<?xml version="1.0" encoding="utf-8"?>
<!-- Generator: Adobe Illustrator 24.3.0, SVG Export Plug-In . SVG Version: 6.00 Build 0)  -->
<svg version="1.1" id="Layer_1" xmlns="http://www.w3.org/2000/svg" xmlns:xlink="http://www.w3.org/1999/xlink" x="0px" y="0px"
	 viewBox="0 0 200 200" style="enable-background:new 0 0 200 200;" xml:space="preserve">
<style type="text/css">
	.st0{fill:#ED145B;}
</style>
<g>
	<path class="st0" d="M154.3,127.6c7.2,7.2,7.2,19,0,26.2c-7.2,7.2-19,7.2-26.2,0s-22.2-48.4-22.2-48.4S147.1,120.4,154.3,127.6z"/>
	<path class="st0" d="M95.1,105.4c0,0-15,41.2-22.2,48.4c-7.2,7.2-19,7.2-26.2,0s-7.2-19,0-26.2C53.9,120.4,95.1,105.4,95.1,105.4z"
		/>
	<path class="st0" d="M154.3,46.2c7.2,7.2,7.2,19,0,26.2c-7.2,7.2-48.4,22.2-48.4,22.2s15-41.2,22.2-48.4S147.1,38.9,154.3,46.2z"/>
	<path class="st0" d="M72.8,46.2c7.2,7.2,22.2,48.4,22.2,48.4s-41.2-15-48.4-22.2s-7.2-19,0-26.2S65.6,38.9,72.8,46.2z"/>
	<path class="st0" d="M200,100c0,10.2-8.3,18.5-18.5,18.5c-10.2,0-70.4-18.5-70.4-18.5s60.1-18.5,70.4-18.5
		C191.7,81.5,200,89.8,200,100z"/>
	<path class="st0" d="M88.9,100c0,0-60.1,18.5-70.4,18.5S0,110.2,0,100s8.3-18.5,18.5-18.5S88.9,100,88.9,100z"/>
	<path class="st0" d="M100,200c-10.2,0-18.5-8.3-18.5-18.5c0-10.2,18.5-70.4,18.5-70.4s18.5,60.1,18.5,70.4
		C118.5,191.7,110.2,200,100,200z"/>
	<path class="st0" d="M100,88.9c0,0-18.5-60.1-18.5-70.4S89.8,0,100,0s18.5,8.3,18.5,18.5S100,88.9,100,88.9z"/>
</g>
</svg>
