<?xml version="1.0" encoding="utf-8"?>
<svg version="1.1" xmlns="http://www.w3.org/2000/svg" xmlns:xlink="http://www.w3.org/1999/xlink" x="0px" y="0px"
	 viewBox="0 0 900 240" enable-background="new 0 0 900 240" xml:space="preserve">
<g>
	<path fill="#FFFFFF" d="M149.3,128.9c-4.2-3.5-9.7-5.3-16.4-5.3c-0.4,0-0.9,0-1.3,0c-6.3,0.2-11.9,1.9-16.9,4.8
		c-4.9,2.9-9,6.6-12.2,10.7c-3.2,4.2-5.6,8.7-7.2,13.4c-1.6,4.7-2.5,9.2-2.9,13.4c-0.7,7.5,0,13.9,2,19c2,5.2,5.3,9.2,9.6,12
		c4.3,2.8,9.6,4.2,15.7,4.2c1.7,0,6.7,0,12.4-2.2c5.9-2.1,11.1-5.9,15.1-11l0.9-1.3c1.4-2,3.2-4.4,4.1-6.3c3-6.1,5.3-12.6,6.1-17.6
		c0.8-4.4,1.5-11.2-0.3-19.2C156.6,137.5,153.7,132.6,149.3,128.9z M142,157.8c-0.8,5.8-2.1,11.3-3.3,14.8c-0.3,0.9-0.9,2.4-2,4.6
		c-0.7,1.4-1.6,2.6-2.8,3.8c-1.7,2.2-3.7,3.9-6,5.2c-1.5,0.8-3.8,2.1-7.1,2.1c-3.9,0-6.7-1.6-8.6-5.1c-2-3.7-2.8-9.2-2.3-16.3
		c0.4-5.1,1.9-10.3,4.4-15.4c2.5-5.1,5.3-8.9,8.5-11.3c3.1-2.3,6-3.6,8.8-3.7c0.3,0,0.6,0,0.9,0c2.6,0,4.7,0.8,6.2,2.5
		c1.8,2,2.9,4.5,3.4,7.5C142.6,150.5,142.6,153.9,142,157.8z M94.9,140.3c-3.4,5.6-8.6,10.3-14.1,13.3c-5.4,3-11.8,4.5-18.8,4.6
		h-0.9c-3.2,0-6.4-0.3-9.6-0.8c-0.6-0.1-1.2-0.1-1.7-0.1c-3.2,0-6.3,1.7-7.9,4.2c-0.9,1.4-1.7,3-1.7,3.7l-4.6,28.1
		c0,0.6-0.3,4.9-3.9,6.9c-1.8,1-3.6,0.9-3.9,0.9c-2.6-0.2-4.9-1.7-6.1-3.4c-2-2.8-1.5-6.2-1.3-7.5l12.9-74.6c0.6-5,4-9.9,8.4-9.8
		c1.4,0,4.8,0.4,6.5,2.6c1.9,2.4,1.5,6.2,1.4,7.5c-0.2,1.3-0.5,2.7-1,4.6c-0.4,1.6-2,10.4-2.3,12.6c-0.5,3,0.2,5.5,2.3,8
		c2,2.4,5.3,3.6,8.3,3.7c0.5,0,0.9,0,1.2,0c4.1,0,8-0.3,11.6-1.5c4.1-1.4,7.9-3.5,10.5-7.5c2.6-4,4.8-10.5,5-17
		c0.2-5.5-2.7-11.9-5.3-16.1c-2.6-4.2-7.2-7.8-12-10.5c-4.9-2.7-10.6-4.3-17-4.6c-0.8,0-1.6-0.1-2.4-0.1c-8.1,0-15.5,2-22,6.1
		c-7,4.3-10.9,9.9-12.2,16.3s1.3,13.6,6.3,19.6c0.9,1.4,1,2.9,0.3,4.6c-0.6,1.5-2,2.8-4,3.7c-1,0.5-2,0.7-3,0.7c-1,0-2-0.3-2.9-0.9
		c-3.8-2.9-6.2-6.8-8-10.2c-2-3.8-2.5-8.2-2.9-12.4c-0.5-5.8,0.4-10.8,3-16c2.5-5,4.3-8.6,9.9-13.3c4.6-3.9,9.4-7.1,15.8-9
		c6-1.8,12.4-2.7,19-2.7H49c4.7,0.1,10,0.9,15.6,2.2c5.7,1.4,10.9,3.6,15.4,6.5c4.6,2.9,7.9,6.4,10.9,10c3,3.6,5.8,8,7.2,12.7
		c1.4,4.6,2.7,10.4,2.4,15.5C100.2,128.4,98.3,134.7,94.9,140.3z M700.1,142.4c-1.3-4.4-4.3-8.7-9-12.2c-4-3-6.8-4.2-11.1-5.2
		c-4.3-1-9.1-1.8-15.7,0.5c-3.3,1.1-6,2.5-8.6,4.6l0.3-1.4c0-0.1,0-0.2,0-0.3c0-1.6-0.8-3.8-4.2-5.4c-1.8-0.8-3.6-1.2-5.5-1.2
		c-0.7,0-1.3,0.1-2,0.2c-2.9,0.4-4.5,1.5-4.9,3.4c-1.8,10.8-3.5,21.4-5.1,31.9c-1.9,5.6-4.2,10.7-7,15.1c-2.9,4.7-5.8,8.3-8.5,10.6
		c-2.5,2.2-4.7,3.3-6.6,3.3c-1.3,0-2.1-0.6-2.6-2c-0.6-1.9-0.8-4.8-0.5-8.7c0-0.9,0.2-2.6,0.5-5c0.3-2.4,1.8-9.5,4.5-23.8
		c0.2-1.3-0.2-2.7-1.2-3.7c-0.5-0.5-1-0.9-1.7-1.4c-1.7-1.1-4-1.8-6.8-2c-0.3,0-0.6,0-0.9,0c-3.3,0-4.6,1.4-5.1,2.7
		c-0.1,0.1-0.1,0.2-0.1,0.3c-1.2,8.3-3.4,14.6-6.5,21.4c-3.1,6.8-6.3,12.2-9.5,16c-3.2,3.7-6,5.9-8.4,6.5c-0.7,0.2-1.3,0.3-1.9,0.3
		c-1.3,0-2.3-0.4-3.2-1.3c-2.2-2.1-3.3-6.1-3.2-11.9c0.1-6,1.4-12,4-17.7c1.8-4.1,4.1-7.8,6.9-11.2c2.7-3.3,5.5-5.8,8.3-7.3
		c2.8-1.6,5.2-2.5,7.2-2.8c1.2-0.2,2.6-0.4,3.9-0.4c3.8,0.1,5,0.4,7.2,0.6c0.7,0.1,1.5-0.2,2.3-0.6c1.4-0.7,2.6-2,3.8-3.9
		c1.4-2.2,1.5-4.1,0.4-5.4c0-0.1-0.1-0.1-0.2-0.2c-2.4-2.2-7.2-3-14.7-3.5c-2.7-0.2-5.3,0.2-7.8,0.6c-10.1,1.8-19,7.5-26.6,16.9
		c-4.4,5.6-7.8,11.5-10,17.7c-0.4,0.9-0.9,1.9-1.4,3.1c-1.1,2.6-2.3,5.4-4.1,7.9c-0.8,1.1-1.8,2.1-2.8,3.1c-0.2,0.2-0.4,0.3-0.7,0.3
		c-0.4,0-0.7-0.2-1-0.6c-0.2-0.3-0.2-0.7,0-1c0.8-1.7,1.6-3.3,2.2-4.8c2.6-6.5,3.2-8.6,5.3-20.5c1-5.6,1.4-10.9,1.1-15.8
		c-0.1-1.6-1.1-3.7-4.7-5c-1.6-0.5-3.2-0.8-4.7-0.8c-1,0-2,0.1-3.1,0.3c-1.1,0.3-4.5,1-4.6,3.6c-0.2,5.6-1.3,17.8-2.9,25.2
		c-1.1,5.4-4,13.8-7.6,19.7c-2.5,4-3.2,5.2-4,6.3c-0.4,0.6-0.8,1.2-1.4,2c-1.6,2.1-3.5,3.9-5.7,5.3c-2.4,1.5-4.7,2.3-7,2.3
		c-1.3,0-2.8-0.3-3.6-3.1c-0.8-2.6-0.8-7-0.1-13c1-8.9,2.6-18.1,5-27.2c3-11.4,3.8-14.6,4-15.3c0-0.1,0-0.2,0-0.4
		c0-1.1-0.4-3.2-3.6-4.4c-1.9-0.7-3.8-1.1-5.7-1.1c-2,0-3.6,0.3-4.8,1.1c-1.3,0.7-2.1,1.6-2.5,2.6c0,0.1,0,0.1-0.1,0.2l-8.1,34.2
		c-2.4,8.4-5.9,15.1-10.5,19.8c-4.3,4.4-8.2,6.7-11.5,6.7c0,0-0.3,0-0.4,0c-2-0.2-3.3-1.1-4.3-2.8c-0.7-1.3-1.4-4.3-0.5-11.5
		c1.2-11.1,4.2-26,8.9-44.4c0.2-1.3-0.1-3.6-4.6-5.1c-1.7-0.5-3.3-0.8-4.8-0.8c-1,0-1.9,0.1-2.8,0.4c-2,0.6-3.4,1.4-4.1,2.6
		c-0.3,0.4-0.4,0.8-0.4,1.1c-0.4,1.9-1.6,6.9-3.6,14.7c-1.4,5.6-2.6,10.7-3.5,15.3c-4,10.3-11.3,19-18.5,22.2
		c-0.1,0.1-0.3,0.1-0.4,0.1c-0.3,0-0.6-0.1-0.9-0.4c-0.1-0.1-0.3-0.4-0.3-0.8c0.6-7.2-0.8-15-3.8-22c-4-9-6.4-14.8-7.2-17
		c-0.8-2.2-1.6-4.6-2.3-7.1c-0.6-2.1-1-4.1-1.3-5.8c0-0.2,0.1-0.5,0.2-0.7c1.2-1.9,1.5-3.8,1.1-5.7c-0.5-2.2-1.9-3.8-4-4.9
		c-1.2-0.6-2.6-0.9-4-0.9c-1,0-2.1,0.1-3.2,0.4c-2.6,0.6-5.2,2.1-7.6,4.3c-8.3,7.7-16.2,22.3-23.5,43.4c-1.6,3.9-3.3,7.4-5.3,10.5
		c-2.9,4.7-5.8,8.3-8.5,10.6c-2.5,2.2-4.7,3.3-6.6,3.3c-1.3,0-2.1-0.6-2.6-2c-0.6-1.8-0.8-4.7-0.5-8.7c0-0.9,0.2-2.6,0.5-5
		c0.3-2.4,1.8-9.5,4.5-23.8c0.2-1.3-0.2-2.8-1.2-3.8c-0.5-0.4-1-0.9-1.7-1.4c-1.7-1.1-4-1.8-6.8-2c-0.3,0-0.6,0-0.9,0
		c-3.3,0-4.6,1.4-5.1,2.7c-0.1,0.1-0.1,0.2-0.1,0.3c-1.2,8.3-3.4,14.6-6.5,21.4c-3.1,6.8-6.3,12.2-9.5,16c-3.2,3.7-6,5.9-8.4,6.5
		c-0.7,0.2-1.3,0.3-1.9,0.3c-1.3,0-2.3-0.4-3.2-1.3c-2.2-2.1-3.3-6.1-3.2-11.9c0.1-6,1.4-12,4-17.7c1.8-4.1,4.1-7.9,6.9-11.2
		c2.7-3.3,5.5-5.8,8.3-7.3c2.8-1.6,5.2-2.5,7.2-2.8c1.3-0.2,4.9-0.6,8.9,0.8c0.7,0.2,1.2,0.6,1.9,0.6c0.7,0,1.5-0.2,2.3-0.6
		c1.4-0.7,2.7-2,3.8-3.9c1.3-2.2,1.5-4.1,0.4-5.4c-0.1-0.1-0.1-0.1-0.2-0.2c-2.4-2.2-7-4.6-14.4-4.7c-2.7,0-5.3,0.2-7.8,0.6
		c-10.1,1.8-19,7.5-26.6,16.9c-5.7,7.1-9.6,14.8-11.6,23.1c-3,7.4-6.5,13.4-10.4,17.7c-4.8,5.3-9.8,7.9-14.7,7.9
		c-3.3-0.1-5.8-1.8-7.6-5.3c-1.8-3.4-2.9-7.8-3.3-13.1c-0.1-0.4,0.2-0.8,0.6-1c5.9-2.2,11.2-5.3,15.6-9.1c4.9-4.3,8.1-8.8,9.5-13.6
		c1.4-4.8,1.6-8.9,0.6-12.2c-1.1-3.2-2.6-5.8-4.8-7.8c-2.1-2-5.3-3.3-9.4-3.8c-0.9-0.1-1.9-0.2-2.8-0.2c-3.2,0-6.6,0.7-10.1,2.2
		c-4.4,1.9-8.2,4.4-11.4,7.5c-0.4,0.4-0.8,0.8-1.1,1.2c-0.2,0.2-0.4,0.3-0.7,0.3c-0.3,0-0.7-0.2-0.9-0.4c-0.2-0.3-0.3-0.5-0.2-0.9
		c1.1-5.3,2.5-12.1,4.3-20.1c3.3-14.9,5.2-23.4,5.7-25.5c0.6-2.8,0.8-4.3,0.8-4.8c0.1-1.6-0.6-3.8-4.7-5.3c-2.2-0.9-4.3-1.3-6.1-1.3
		c-0.4,0-0.8,0-1.3,0.1c-1.5,0.2-3.6,0.6-4.3,2.2c0,0.1,0,0.2-0.1,0.2c-0.4,1.5-2.5,12.1-6.4,30.5c-3.9,18.3-7.1,34.6-9.6,48.6
		c-1.4,7.8-2.7,15.3-3.8,22.5l-0.1,0.1c-0.3,0.4-0.6,0.8-0.9,1.1c-2.9,3.2-5.7,5.5-8.5,6.7c-2.2,0.9-4.3,1.4-6.3,1.4
		c-0.5,0-1.1-0.1-1.6-0.1c-3.2-0.3-5.5-2-7.1-5.2c-1.7-3.5-2.5-7.9-2.5-12.9c0-4.8,0.2-9.3,0.7-13.3c0-0.3,0.3-0.5,0.4-0.6
		c4.3-2.5,9-5.9,13.8-10c5.2-4.4,9.9-9.9,14-16.3c4.1-6.4,7.1-13.1,9-19.8c1.4-4.8,2-9.4,1.8-13.6c-0.2-4.3-1.2-8.3-3.1-11.9
		c-1.9-3.7-4.6-6.4-7.9-7.8c-2.3-1-4.6-1.5-6.9-1.5c-0.9,0-1.9,0.1-2.8,0.3c-3.1,0.6-6.1,2-8.9,4.2c-5.5,4.3-10.4,12.1-14.5,23.1
		c-4,10.8-7.1,22.8-9.2,35.8c-3.3,20.2-3.4,35.4-0.3,45.3c3.2,10.3,9.7,16.2,19.4,17.3c1.5,0.2,3,0.3,4.5,0.3
		c5.1,0,9.7-1.2,13.7-3.5c0.5-0.3,1.1-0.7,1.6-1c0.4,0.8,1.1,1.5,2,2c1.5,0.8,3.5,1.3,6,1.3c2.4,0,4.4-0.4,5.9-1.2
		c1.7-0.9,2.6-1.9,2.8-3.3c1-8.3,2.6-18.7,4.6-31c0.7-4.3,2.3-8.4,4.8-12.4c2.4-4,5.3-7.3,8.5-10.1c3.2-2.7,6.3-4.5,9.3-5.5
		c1.3-0.4,2.4-0.6,3.5-0.6c1.3,0,2.3,0.3,3.3,0.9c1.4,0.8,2,1.9,2.1,3.6c0.1,1.9-0.8,4.2-2.5,6.8c-1.8,2.7-4.6,5.4-8.4,8.2
		c-3.4,2.5-7.7,4.9-12.6,6.9c-1.4,0.6-2.3,2-2.2,3.6c0.9,14.7,4.3,24.6,10.2,30.2c3.6,3.4,8.1,5.1,13.4,5.1c5.1,0,10.1-1.7,14.8-5.1
		c4.3-3,8.4-7.3,12.1-12.7c0.3,1.4,0.8,2.7,1.3,3.9c2,4.7,4.7,8.2,8,10.5c3.2,2.2,7,3.3,11.2,3.3h0.7c4.8-0.1,9.4-1.8,13.6-5
		c2.8-2.1,5.7-5.6,8.7-10.3c0.2-0.4,0.6-0.5,0.8-0.5c0.5,0,1,0.3,1.2,1c0.2,1.2,0.5,2.4,1,3.5c1.4,3.8,3.4,6.5,5.9,7.9
		c2.4,1.4,4.7,2.2,6.8,2.2c6.9,0,13.5-3.3,19.6-9.8c4.8-5.1,9.2-12.5,13.1-21.8c0.1-0.1,0.2-0.3,0.2-0.4l0.3-0.9
		c0.7-1.8,1.5-3.6,2.2-5.6c0.1-0.2,0.1-0.4,0.1-0.6c3.3-8.6,6.2-15.1,8.6-19.4c1.9-3.4,3.8-6.4,5.6-8.9c0.2-0.2,0.4-0.4,0.7-0.4
		c0.5,0,1,0.3,1.2,0.9c0.1,0.6,0.3,1.3,0.5,2c0.8,3.3,2.8,8.7,6.2,16.4c0.7,1.7,1.4,3.2,1.9,4.4c2,4.4,3,6.6,3.8,10.4
		c0.4,1.9,0.5,2.5,0.7,4.3l0.2,1.4c0.3,2.1,0.6,7.4-1.6,10.5c-1.7,2.5-1.9,2.6-2.7,3.1c-0.2,0.1-0.5,0.3-0.9,0.6
		c-1.1,0.8-2.7,1.8-5.1,1.8c-3,0-5.3-1.2-7.1-3.6c-1.7-2.3-2.3-5.4-2-9.3c0.2-2-1.1-3.9-3.1-4.5c-0.3-0.1-0.7-0.2-1-0.2
		c-0.5-0.1-0.9-0.1-1.4-0.1c-1.4,0-2.6,0.4-3.6,1c-1.3,0.9-2.1,1.9-2.5,3.4c-0.5,3.8-0.4,7.4,0.5,10.7c0.9,3.3,2.3,6.2,4.4,8.6
		c2.1,2.4,4.5,4.2,7.4,5.4c2.8,1.2,5.7,1.9,8.4,1.9h0.8c4.6,0,9-1.1,13.1-3.2c2.8-1.4,4.3-2.4,5.3-3c0.5-0.3,0.8-0.5,1.1-0.7
		c1.7-0.8,3.5-1.6,5.2-2.3c3.6-1.5,7.3-3.2,10.7-5.5l1.2-0.8c2.3-1.6,4.3-3,6.1-4.7c0.1,5.4,1.5,9.9,3.9,13.2
		c3,4.1,7.4,6.3,13.1,6.5c0.3,0,0.6,0,0.9,0c3.5,0,7.2-0.7,10.8-2.1c3.9-1.5,7.5-3.9,10.7-7c1.5-1.5,2.9-3,4.2-4.7
		c0.2-0.2,0.4-0.4,0.7-0.4c0.4,0,1,0.3,1.2,0.9c0.7,2.8,1.9,5.3,3.6,7.4c3.1,3.8,7.3,5.8,12.7,6h0.7c10.1,0,13.9-2.6,18.3-5.5
		l0.4-0.3c5.3-3.6,9.8-5.6,14.6-7.8c2.2-1,4.5-2,6.9-3.2c1.5-0.7,2.9-1.6,4.2-2.7c0.2-0.1,0.4-0.2,0.6-0.2c0.5,0,1,0.3,1.1,1
		c0.4,1.7,0.9,3.4,1.5,4.9c2,4.7,4.7,8.2,8,10.5c3.2,2.2,7,3.3,11.2,3.3h0.7c4.8-0.1,9.4-1.8,13.6-5c2.8-2.1,5.7-5.6,8.7-10.3
		c0.2-0.4,0.6-0.5,0.8-0.5c0.5,0,1,0.3,1.2,1c0.2,1.2,0.5,2.4,1,3.5c1.4,3.8,3.4,6.5,5.9,7.9c2.4,1.4,4.7,2.2,6.8,2.2
		c6.9,0,13.5-3.3,19.6-9.8c0.2-0.2,0.4-0.3,0.7-0.3c0.3,0,0.7,0.2,0.9,0.4c0.2,0.3,0.3,0.6,0.3,0.9c-2.8,18-3.6,20.9-6.2,39.2
		c-0.4,3.5,0.3,6.4,1.9,8.3c1.2,1.3,2.9,2,4.8,2c4.9,0,7.8-2.5,8.7-8c0-0.2,1.6-7.2,2.6-13.8c1.7-11.2,2.5-17,3.3-23.2
		c0.1-0.5,0.5-0.8,0.9-0.8c0.2,0,0.5,0.1,0.7,0.2c1.9,1.5,4,2.7,6.3,3.6c3.4,1.4,7.1,2.1,10.9,2.1c0.4,0,0.9,0,1.4,0
		c6.2-0.3,10.4-2.4,13-3.8c4.1-2.1,8.1-5.4,11.8-9.8l0.9-1c1.3-1.5,2.1-2.4,3.7-5.2c1.8-3.2,3.6-8,4.5-11.1
		c0.8-2.5,2.1-7.6,2.6-14.2C701.4,150.1,701.5,147.3,700.1,142.4z M190.2,111.3c5.9-19.7,10.2-22.6,12.2-22.6h0.2
		c0.5,0,0.8,0.2,1,0.4c0.4,0.5,1.2,1.9,0.9,6c-0.3,5.1-1.8,11.4-4.4,18.6c-1.9,5.4-4.7,10.7-8.3,15.8c-1.9,2.8-4,5.3-6.1,7.7
		c-0.2,0.2-0.4,0.3-0.7,0.3c-0.3,0-0.7-0.2-0.9-0.5c-0.2-0.3-0.3-0.6-0.2-0.9C185.4,128.7,187.6,120.3,190.2,111.3z M683.5,161
		c-0.8,4.4-2.2,8.2-3.3,11c-1.3,3.4-2.3,4.8-4.9,8.1c-2.5,3.3-4.3,4.7-8.9,6.3c-1,0.3-3.1,1-5.8,1c-0.6,0-1.2,0-1.8-0.1
		c-1.2-0.1-2.3-0.4-3.5-0.8c-3.2-1.1-5.9-2.7-7.8-4.9c-0.2-0.2-0.3-0.6-0.2-0.9c1.8-11.7,3.7-22.9,5.6-33.4c0-0.2,0.1-0.3,0.2-0.4
		c0.9-3.4,5.2-5.7,9.5-7.5c4.5-1.9,12.9-3.1,18.3,1.8c2.8,2.6,3.6,4.8,3.9,8.5C684.8,152.3,684.7,154.9,683.5,161z"/>
	<path fill="#FFFFFF" d="M854.1,128c7.2,7.2,7.2,19,0,26.3c-7.2,7.2-19,7.2-26.3,0c-7.2-7.2-22.3-48.6-22.3-48.6
		S846.9,120.8,854.1,128z M746.1,128c-7.2,7.2-7.2,19,0,26.3c7.2,7.2,19,7.2,26.3,0c7.2-7.3,22.3-48.6,22.3-48.6
		S753.3,120.8,746.1,128z M854.1,72.6c7.2-7.2,7.2-19,0-26.3c-7.3-7.3-19-7.3-26.3,0c-7.2,7.3-22.3,48.6-22.3,48.6
		S846.9,79.8,854.1,72.6z M794.7,94.9c0,0-15.1-41.3-22.3-48.6c-7.3-7.3-19-7.3-26.3,0c-7.2,7.2-7.2,19,0,26.3
		C753.4,79.8,794.7,94.9,794.7,94.9z M881.4,81.8c-10.3,0-70.6,18.6-70.6,18.6s60.3,18.6,70.6,18.6c10.3,0,18.6-8.3,18.6-18.6
		C899.9,90.1,891.6,81.8,881.4,81.8z M717.9,81.8c-10.3,0-18.6,8.3-18.6,18.6c0,10.3,8.3,18.6,18.6,18.6s70.6-18.6,70.6-18.6
		S728.1,81.8,717.9,81.8z M781,182.1c0,10.3,8.3,18.6,18.6,18.6s18.6-8.3,18.6-18.6c0-10.3-18.6-70.6-18.6-70.6S781,171.8,781,182.1
		z M818.2,18.6c0-10.3-8.3-18.6-18.6-18.6C789.3,0,781,8.3,781,18.6s18.6,70.6,18.6,70.6S818.2,28.9,818.2,18.6z"/>
</g>
</svg>
