<svg viewBox="0 0 830 830" fill="none"
  xmlns="http://www.w3.org/2000/svg">
  <path d="M830 415.161C830 644.268 644.197 829.998 415 829.998C185.803 829.998 0 644.268 0 415.161C0 186.054 185.803 0.324219 415 0.324219C644.197 0.324219 830 186.054 830 415.161Z" fill="#00006D"/>
  <path d="M268.275 414.837V268.169H415V414.837H268.275ZM415 708.172V829.674C466.655 829.674 516.106 820.234 561.725 802.997V708.172H415ZM121.55 708.172C162.796 749.402 212.69 781.991 268.275 802.997V708.172H121.55ZM121.55 268.169H26.6877C9.4434 313.771 0 363.202 0 414.837H121.55V268.169ZM26.6877 561.505C47.702 617.067 80.3035 666.938 121.55 708.172V561.505H26.6877ZM708.45 268.169H803.312C782.298 212.607 749.696 162.736 708.45 121.502V268.169ZM708.45 561.505H803.312C820.557 515.903 830 466.472 830 414.837H708.45V561.505ZM561.725 268.169V121.502H415V268.169H561.725ZM561.725 561.505V708.172H708.45V561.505H561.725ZM268.275 561.505V708.172H415V561.505H268.275ZM415 414.837V561.505H561.725V414.837H415ZM121.55 414.837V561.505H268.275V414.837H121.55ZM268.275 268.169V121.502H121.55V268.169H268.275ZM415 121.502V0C363.345 0 313.894 9.43969 268.275 26.6772V121.502H415ZM561.725 414.837H708.45V268.169H561.725V414.837ZM708.45 121.502C667.204 80.272 617.31 47.6833 561.725 26.6772V121.502H708.45Z" fill="#003399"/>
  <path opacity="0.33" d="M415.045 634.837C229.556 634.837 110.545 507.726 0 414.832C0 643.947 185.803 829.673 415 829.673C644.197 829.673 829.959 643.984 830 414.909C725.568 507.726 600.444 634.837 415.045 634.837Z" fill="black"/>
  <path d="M414.91 665.3L211.125 461.73L414.91 182.52L618.695 461.73L414.91 665.3Z" fill="#003399"/>
  <path opacity="0.17" d="M415 0C185.803 0 0 185.73 0 414.837C0 643.944 185.803 829.674 415 829.674C644.197 829.674 830 643.944 830 414.837C830 185.73 644.201 0 415 0ZM415 780.785C212.813 780.785 48.9084 616.945 48.9084 414.837C48.9084 212.729 212.813 48.8892 415 48.8892C617.187 48.8892 781.092 212.729 781.092 414.837C781.092 616.945 617.187 780.785 415 780.785Z" fill="#00004E"/>
  <path opacity="0.1" d="M414.955 194.836C600.444 194.836 719.455 321.948 830 414.841C830 185.73 644.201 0 415 0C185.799 0 0.040757 185.689 0 414.764C104.432 321.948 229.556 194.836 414.955 194.836Z" fill="white"/>
  <path d="M781.813 414.836L415 781.505L48.1875 414.836H176.572L415 653.171L653.429 414.836H781.813Z" fill="white"/>
  <path d="M734.543 593.54C730.435 600.87 726.078 608.04 721.489 615.048L414.996 194.837L108.508 615.048C103.918 608.04 99.5614 600.87 95.4531 593.54L414.572 48.8945C414.715 48.8945 414.853 48.8945 414.996 48.8945C415.139 48.8945 415.277 48.8945 415.42 48.8945L734.543 593.545V593.54Z" fill="white"/>
  <path d="M415.003 194.836C374.487 194.836 341.641 162.002 341.641 121.502C341.641 81.0011 374.487 48.168 415.003 48.168C455.52 48.168 488.366 81.0011 488.366 121.502C488.366 162.002 455.52 194.836 415.003 194.836Z" fill="white"/>
  <path d="M415.206 131.687L444.454 175.28C435.516 179.762 425.767 182.614 415.206 182.614C404.646 182.614 394.49 180.169 385.959 175.28L415.206 131.687ZM415.206 60.3906C381.085 60.3906 353.867 87.6871 353.867 121.502C353.867 141.465 362.805 158.576 377.429 169.984L409.924 121.502H377.832V111.317H410.328V101.132H377.832V90.9464H452.577V101.132H420.081V111.317H452.577V121.502H420.081L452.577 169.984C467.2 158.576 476.138 141.465 476.138 121.502C476.138 87.6871 448.517 60.3906 415.206 60.3906Z" fill="url(#paint0_linear_1112_14962)"/>
  <path d="M414.997 310.223L440.976 390.14H525.041L457.03 439.535L483.008 519.456L414.997 470.062L346.986 519.456L372.964 439.535L304.953 390.14H389.019L414.997 310.223Z" fill="#FFCC00"/>
  <defs>
    <linearGradient id="paint0_linear_1112_14962" x1="415.003" y1="182.614" x2="415.003" y2="60.3906" gradientUnits="userSpaceOnUse">
      <stop stop-color="#AE8625"/>
      <stop offset="1" stop-color="#EDC967"/>
    </linearGradient>
  </defs>
</svg>
