<?xml version="1.0" encoding="utf-8"?>
<!-- Generator: Adobe Illustrator 24.3.0, SVG Export Plug-In . SVG Version: 6.00 Build 0)  -->
<svg version="1.1" id="Layer_1" xmlns="http://www.w3.org/2000/svg" xmlns:xlink="http://www.w3.org/1999/xlink" x="0px" y="0px"
	 viewBox="0 0 200 95" style="enable-background:new 0 0 200 95;" xml:space="preserve">
<style type="text/css">
	.st0{fill:#E3232C;}
</style>
<g>
	<g>
		<path class="st0" d="M178,63.8l1.6-0.7c0.7,1.5,1.4,3,2.1,4.5l-1.7,0.6C179.5,67,178.8,65.5,178,63.8z M188.3,63.1
			c-0.1,2.2-0.4,4-0.9,5.4c-0.6,1.4-1.4,2.4-2.6,3.1s-2.7,1.2-4.7,1.4l-0.3-1.6c1.3-0.2,2.4-0.5,3.2-0.8c0.8-0.3,1.5-0.8,2.1-1.5
			c0.5-0.7,1-1.5,1.2-2.4c0.2-1,0.4-2.2,0.4-3.7L188.3,63.1z"/>
		<path class="st0" d="M189.9,66.4l10.1,0l0,0.3c0,2-0.7,3.6-2,4.7c-1.3,1.1-3.4,1.7-6.1,1.8l-0.3-1.5c1.9-0.1,3.4-0.4,4.4-1
			c1.1-0.6,1.7-1.5,2-2.7l-8.3,0L189.9,66.4z M190.8,64.6l0-1.5l8.4,0l0,1.5L190.8,64.6z"/>
	</g>
	<g>
		<path class="st0" d="M24.7,89c6.7,3.6,14.3,5.7,22.5,5.7c8.1,0,15.8-2.1,22.5-5.7L47.2,55.5L24.7,89z"/>
		<path class="st0" d="M18.3,47.4v-7.7h25v-8h-25V24H76v7.7h-25v8h25v7.7h-25l25.1,37.3c11.1-8.6,18.2-22.1,18.2-37.3
			c0-26.1-21.1-47.2-47.2-47.2C21.1,0.3,0,21.4,0,47.5c0,15.2,7.1,28.6,18.2,37.3l25.1-37.3H18.3z"/>
	</g>
	<g>
		<path class="st0" d="M108,52.2h3.8c0,1.9,1.4,3.8,5.1,3.8c3.4,0,5-1.6,5-3.6c0-1.6-1.4-2.7-4.2-3l-2.1-0.2
			c-4.1-0.3-6.8-2.7-6.8-6.3c0-4.1,3.1-6.8,8-6.8c4.9,0,8,2.8,8,7H121c0-1.8-1.3-3.6-4.2-3.6c-2.8,0-4.1,1.6-4.1,3.4
			c0,1.5,1.1,2.7,3.3,2.8l2.1,0.2c4.7,0.4,7.7,2.6,7.7,6.4c0,4.1-3.5,7-8.9,7C111.3,59.4,108,56.4,108,52.2z"/>
		<path class="st0" d="M129.4,48.1v-0.7c0-5.4,3.8-11.3,11.6-11.3c7.7,0,11.6,5.9,11.6,11.3v0.7c0,4.9-3.7,11.3-11.6,11.3
			C133,59.4,129.4,53,129.4,48.1z M148.6,47.8c0-4.5-2.9-8-7.6-8c-4.7,0-7.7,3.5-7.7,8c0,4.3,2.9,8,7.7,8
			C145.6,55.8,148.6,52.1,148.6,47.8z"/>
		<path class="st0" d="M171.6,58.8l-5.4-7.6H166h-4v7.6h-3.9V36.6h7.9c5.2,0,8.5,2.3,8.5,7.1v0.5c0,3.4-1.6,5.5-4.3,6.4l6.1,8.2
			H171.6L171.6,58.8z M162,48h4.5c2.5,0,4.1-1.6,4.1-4c0-2.4-1.6-4.1-4.1-4.1H162V48z"/>
		<path class="st0" d="M193.9,52.8H184l-2.1,6.1H178l7.7-22.1h6.4l7.9,22.1h-4L193.9,52.8z M192.7,49.4l-3.3-9.3h-1.1l-3.2,9.3
			H192.7z"/>
	</g>
</g>
</svg>
