<?xml version="1.0" encoding="utf-8"?>
<!-- Generator: Adobe Illustrator 27.7.0, SVG Export Plug-In . SVG Version: 6.00 Build 0)  -->
<svg version="1.1" id="Layer_1" xmlns="http://www.w3.org/2000/svg" xmlns:xlink="http://www.w3.org/1999/xlink" x="0px" y="0px"
	 viewBox="0 0 40 40" style="enable-background:new 0 0 40 40;" xml:space="preserve">
<style type="text/css">
	.st0{clip-path:url(#SVGID_00000110450684391769097990000017983359652765799314_);}
	.st1{fill:#E84142;}
	.st2{fill:#FFFFFF;}
	.st3{fill-rule:evenodd;clip-rule:evenodd;fill:#E84142;}
	.st4{fill:#EE2233;}
	.st5{fill-rule:evenodd;clip-rule:evenodd;fill:#FFFFFF;}
</style>
<g>
	<defs>
		<path id="SVGID_1_" d="M20,0L20,0c11,0,20,9,20,20l0,0c0,11-9,20-20,20l0,0C9,40,0,31,0,20l0,0C0,9,9,0,20,0z"/>
	</defs>
	<clipPath id="SVGID_00000043426072516696193450000006512759770206822334_">
		<use xlink:href="#SVGID_1_"  style="overflow:visible;"/>
	</clipPath>
	<g style="clip-path:url(#SVGID_00000043426072516696193450000006512759770206822334_);">
		<path class="st1" d="M20,0L20,0c11,0,20,9,20,20l0,0c0,11-9,20-20,20l0,0C9,40,0,31,0,20l0,0C0,9,9,0,20,0z"/>
		<path class="st2" d="M36.8,19.4c0,9.4-7.6,17-17,17s-17-7.6-17-17s7.6-17,17-17S36.8,10.1,36.8,19.4z"/>
		<path class="st3" d="M19.8,39.8c11,0,20-9,20-20c0-11-9-20-20-20c-11,0-20,9-20,20C-0.2,30.8,8.7,39.8,19.8,39.8z M13.7,28.8H9
			c-1.1,0-1.7,0-2-0.2c-0.4-0.2-0.6-0.6-0.6-1.1c0-0.4,0.3-0.9,0.8-1.8l10.3-18c0.6-1,0.8-1.5,1.2-1.7c0.4-0.2,0.8-0.2,1.2,0
			c0.4,0.2,0.6,0.7,1.2,1.6l2.4,4.1c0.4,0.7,0.6,1.1,0.7,1.4c0.1,0.4,0.1,0.8,0,1.2c-0.1,0.4-0.3,0.7-0.7,1.4l-6.1,10.7
			c-0.4,0.7-0.6,1.1-0.9,1.4c-0.3,0.3-0.7,0.5-1.1,0.6C15,28.8,14.5,28.8,13.7,28.8z M30.4,28.8H25c-1.1,0-1.7,0-2-0.2
			c-0.4-0.2-0.6-0.6-0.6-1.1c0-0.4,0.3-0.9,0.8-1.9l2.7-4.7c0.6-1,0.8-1.4,1.2-1.6c0.4-0.2,0.8-0.2,1.2,0c0.4,0.2,0.6,0.7,1.2,1.6
			l2.7,4.7c0.6,1,0.9,1.5,0.8,1.9c0,0.4-0.2,0.8-0.6,1.1C32.1,28.8,31.6,28.8,30.4,28.8z"/>
		<g>
			<path class="st4" d="M22,20c0-6.1,4.9-11,11-11h4c6.1,0,11,4.9,11,11l0,0c0,6.1-4.9,11-11,11h-4C26.9,31,22,26.1,22,20L22,20z"/>
			<path class="st5" d="M33,8h4c6.6,0,12,5.4,12,12s-5.4,12-12,12h-4c-6.6,0-12-5.4-12-12S26.4,8,33,8z M33,9c-6.1,0-11,4.9-11,11
				s4.9,11,11,11h4c6.1,0,11-4.9,11-11S43.1,9,37,9H33z"/>
			<path class="st2" d="M26,26h1.8l3.7-6l3.7,6H37l-4.8-7.5H37V17h-4.7v-1.5H37V14H26v1.5h4.7V17H26v1.5h4.7L26,26z"/>
		</g>
	</g>
</g>
</svg>
