<?xml version="1.0" encoding="utf-8"?>
<!-- Generator: Adobe Illustrator 27.7.0, SVG Export Plug-In . SVG Version: 6.00 Build 0)  -->
<svg version="1.1" id="Layer_1" xmlns="http://www.w3.org/2000/svg" xmlns:xlink="http://www.w3.org/1999/xlink" x="0px" y="0px"
	 viewBox="0 0 40 40" style="enable-background:new 0 0 40 40;" xml:space="preserve">
<style type="text/css">
	.st0{clip-path:url(#SVGID_00000069385068082285217530000000330961580413958057_);}
	.st1{fill:#0052B4;}
	.st2{fill:#F0F0F0;}
	.st3{fill:#D80027;}
	.st4{opacity:0.1;enable-background:new    ;}
	.st5{fill:#FFFFFF;}
	.st6{fill:#EE2233;}
</style>
<g>
	<g>
		<defs>
			<path id="SVGID_1_" d="M20,0L20,0c11,0,20,9,20,20l0,0c0,11-9,20-20,20l0,0C9,40,0,31,0,20l0,0C0,9,9,0,20,0z"/>
		</defs>
		<clipPath id="SVGID_00000075883831090673072490000005440767760993425563_">
			<use xlink:href="#SVGID_1_"  style="overflow:visible;"/>
		</clipPath>
		<g style="clip-path:url(#SVGID_00000075883831090673072490000005440767760993425563_);">
			<path class="st1" d="M41.3,20.1c0,11.8-9.5,21.3-21.3,21.3c-11.8,0-21.3-9.5-21.3-21.3c0,0,21.3-21.3,21.3-21.3
				C31.8-1.2,41.3,8.3,41.3,20.1z"/>
			<path class="st2" d="M19.9,20.1L19.9,20.1C20,20.1,20,20,19.9,20.1C20,20,20,20.1,19.9,20.1z"/>
			<path class="st2" d="M20,9.9c0-3.8,0-6.2,0-11.1h0C8.2-1.2-1.3,8.3-1.3,20.1H9.8v-6.3l6.3,6.3h3.9c0,0,0,0,0.1-0.1
				c0-1.4,0-2.7,0-3.9l-6.3-6.3H20z"/>
			<path class="st3" d="M9.5,1.5c-3.3,1.9-6.1,4.7-8,8v10.5H7v-13v0h13c0-1.8,0-3.4,0-5.6H9.5z"/>
			<path class="st3" d="M20,17.5l-7.6-7.6H9.8c0,0,0,0,0,0L20,20.1l0,0C20,20.1,20,18.3,20,17.5z"/>
			<path class="st2" d="M11.5,23.8l1.2,2.4l2.6-0.6l-1.2,2.4l2.1,1.7l-2.6,0.6l0,2.7l-2.1-1.7l-2.1,1.7l0-2.7l-2.6-0.6l2.1-1.7
				l-1.2-2.4l2.6,0.6L11.5,23.8z"/>
			<path class="st2" d="M30.6,28.4l0.6,1.2l1.3-0.3l-0.6,1.2l1.1,0.8l-1.3,0.3l0,1.4l-1.1-0.8l-1.1,0.8l0-1.4l-1.3-0.3l1.1-0.8
				l-0.6-1.2l1.3,0.3L30.6,28.4z"/>
			<path class="st2" d="M25.2,15.4l0.6,1.2l1.3-0.3l-0.6,1.2l1.1,0.8l-1.3,0.3l0,1.4l-1.1-0.8l-1.1,0.8l0-1.4l-1.3-0.3l1.1-0.8
				l-0.6-1.2l1.3,0.3L25.2,15.4z"/>
			<path class="st2" d="M30.3,8l0.6,1.2l1.3-0.3l-0.6,1.2l1.1,0.8l-1.3,0.3l0,1.4l-1.1-0.8l-1.1,0.8l0-1.4L27.9,11l1.1-0.8l-0.6-1.2
				l1.3,0.3L30.3,8z"/>
			<path class="st2" d="M35.4,13.6l0.6,1.2l1.3-0.3l-0.6,1.2l1.1,0.8l-1.3,0.3l0,1.4l-1.1-0.8l-1.1,0.8l0-1.4L33,16.6l1.1-0.8
				l-0.6-1.2l1.3,0.3L35.4,13.6z"/>
			<path class="st2" d="M32,20.1l0.5,1.4h1.5l-1.2,0.9l0.5,1.4L32,22.9l-1.2,0.9l0.5-1.4L30,21.5h1.5L32,20.1z"/>
			<path class="st4" d="M20.2,41c11.6,0,21-9.4,21-21c0-11.6-9.4-21-21-21c-11.6,0-21,9.4-21,21C-0.8,31.6,8.6,41,20.2,41z"/>
			<path class="st5" d="M26.7,33.2l-6.8-10.8l-6.8,10.8l-7.3,0l9.8-15.4H7.1V5.5h25.8v12.3h-8.5l9.9,15.4L26.7,33.2z"/>
			<path class="st6" d="M8.6,31.7h3.7l7.7-12.3l7.7,12.3h3.7l-9.9-15.4h9.8v-3h-9.8v-3.1h9.8V7H8.6v3h9.8v3.1H8.6v3h9.8L8.6,31.7z"
				/>
		</g>
	</g>
</g>
</svg>
