<?xml version="1.0" encoding="utf-8"?>
<!-- Generator: Adobe Illustrator 27.7.0, SVG Export Plug-In . SVG Version: 6.00 Build 0)  -->
<svg version="1.1" id="Layer_1" xmlns="http://www.w3.org/2000/svg" xmlns:xlink="http://www.w3.org/1999/xlink" x="0px" y="0px"
	 viewBox="0 0 40 40" style="enable-background:new 0 0 40 40;" xml:space="preserve">
<style type="text/css">
	.st0{clip-path:url(#SVGID_00000027566823068578378850000001208598561108715159_);}
	.st1{fill:#FFFFFF;}
	.st2{fill:#0033AD;}
	.st3{fill:#EE2233;}
	.st4{fill-rule:evenodd;clip-rule:evenodd;fill:#FFFFFF;}
</style>
<g>
	<defs>
		<path id="SVGID_1_" d="M20,0L20,0c11,0,20,9,20,20l0,0c0,11-9,20-20,20l0,0C9,40,0,31,0,20l0,0C0,9,9,0,20,0z"/>
	</defs>
	<clipPath id="SVGID_00000095308508933956505300000007837042833277705365_">
		<use xlink:href="#SVGID_1_"  style="overflow:visible;"/>
	</clipPath>
	<g style="clip-path:url(#SVGID_00000095308508933956505300000007837042833277705365_);">
		<path class="st1" d="M19.8-1.8c11.9,0,21.5,9.6,21.5,21.5s-9.6,21.5-21.5,21.5c-11.9,0-21.5-9.6-21.5-21.5S7.9-1.8,19.8-1.8z"/>
		<path class="st2" d="M11.6,19.7c-0.2,2.6,3.7,3.6,4.6,1.1C17.7,17.3,11.8,15.9,11.6,19.7L11.6,19.7z"/>
		<path class="st2" d="M2.5,19c-0.9-0.1-1.1,1.3-0.2,1.5C3.4,20.9,3.6,19.1,2.5,19z"/>
		<path class="st2" d="M11.4,5.6c0.8-0.4,0.3-1.7-0.6-1.5C9.8,4.4,10.4,6.1,11.4,5.6z"/>
		<path class="st2" d="M13.9,9.9c1.3-0.6,0.5-2.7-0.9-2.3C11.4,8.1,12.4,10.6,13.9,9.9z"/>
		<path class="st2" d="M5.6,12.8c1,0.7,2.1-0.7,1.2-1.5C5.8,10.3,4.4,12,5.6,12.8z"/>
		<path class="st2" d="M7.1,18.6c-1.4-0.1-1.8,2.1-0.4,2.4C8.4,21.4,8.8,18.7,7.1,18.6z"/>
		<path class="st2" d="M5.7,26.7c-1.1,0.5-0.4,2.2,0.7,1.9C7.8,28.2,7,26.1,5.7,26.7z"/>
		<path class="st2" d="M10.5,16.1c1.4,1,3-1.1,1.8-2.2C10.8,12.4,8.7,15,10.5,16.1z"/>
		<path class="st2" d="M25.4,9.8c1.2,0.8,2.6-0.9,1.5-1.9C25.7,6.7,24,8.8,25.4,9.8z"/>
		<path class="st2" d="M27.9,5.5c0.8,0.5,1.7-0.6,1-1.2C28.1,3.5,27,4.9,27.9,5.5z"/>
		<path class="st2" d="M25.6,17.3c-3.2-0.2-3.4,4.9-0.1,4.9C28.5,22.2,28.7,17.4,25.6,17.3z"/>
		<path class="st2" d="M14.7,15.9c1.4,2.8,5.8,0.6,4.3-2.2C17.7,10.9,13.2,13.1,14.7,15.9z"/>
		<path class="st2" d="M33.7,12.8c1.1-0.5,0.4-2.2-0.7-1.9C31.6,11.3,32.5,13.5,33.7,12.8z"/>
		<path class="st2" d="M27.6,13.6c-1.5,0.7-0.6,3.1,1,2.7C30.6,15.7,29.4,12.7,27.6,13.6z"/>
		<path class="st2" d="M19.6,5.1c1.2,0.1,1.5-1.7,0.3-2C18.6,2.8,18.2,5,19.6,5.1z"/>
		<path class="st2" d="M19.6,11.4c1.7,0.1,2.1-2.4,0.4-2.8C18.1,8.1,17.6,11.3,19.6,11.4z"/>
		<path class="st2" d="M11.9,26c1.5-0.7,0.6-3.1-1-2.7C8.9,23.9,10.1,26.9,11.9,26z"/>
		<path class="st2" d="M20.6,13.5c-1.9,2.8,2.9,5.4,4.3,2.3C26,13.2,22.1,11,20.6,13.5z"/>
		<path class="st2" d="M24.8,23.6c-1.4-2.9-5.9-0.5-4.3,2.3C21.9,28.6,26.2,26.4,24.8,23.6z"/>
		<path class="st2" d="M29,23.5c-1.4-1-3,1.1-1.8,2.2C28.7,27.1,30.7,24.6,29,23.5z"/>
		<path class="st2" d="M33.7,19.8c0.1-1.4-2.1-1.8-2.4-0.4C30.9,21.1,33.6,21.5,33.7,19.8z"/>
		<path class="st2" d="M37,19c-0.9-0.1-1.1,1.3-0.2,1.5C37.9,20.8,38.2,19,37,19z"/>
		<path class="st2" d="M33.9,26.7c-1-0.7-2.1,0.7-1.2,1.5C33.6,29.3,35.1,27.5,33.9,26.7z"/>
		<path class="st2" d="M11.6,34.1c-0.8-0.5-1.7,0.6-1,1.2C11.4,36.1,12.5,34.7,11.6,34.1z"/>
		<path class="st2" d="M28,34c-0.8,0.4-0.3,1.7,0.6,1.5C29.7,35.2,29,33.5,28,34z"/>
		<path class="st2" d="M18.9,26.1c1.9-2.8-2.9-5.4-4.3-2.3C13.4,26.4,17.4,28.5,18.9,26.1z"/>
		<path class="st2" d="M14.1,29.8c-1.2-0.8-2.6,0.9-1.5,1.9C13.8,32.9,15.5,30.7,14.1,29.8z"/>
		<path class="st2" d="M19.7,34.4c-1.2-0.1-1.5,1.7-0.3,2C20.8,36.8,21.2,34.5,19.7,34.4z"/>
		<path class="st2" d="M19.7,28.2c-1.7-0.1-2.1,2.4-0.4,2.8C21.3,31.5,21.8,28.3,19.7,28.2z"/>
		<path class="st2" d="M25.6,29.7c-1.3,0.6-0.5,2.7,0.9,2.3C28.1,31.5,27.1,28.9,25.6,29.7z"/>
		<g>
			<path class="st3" d="M22,20c0-6.1,4.9-11,11-11h4c6.1,0,11,4.9,11,11l0,0c0,6.1-4.9,11-11,11h-4C26.9,31,22,26.1,22,20L22,20z"/>
			<path class="st4" d="M33,8h4c6.6,0,12,5.4,12,12s-5.4,12-12,12h-4c-6.6,0-12-5.4-12-12S26.4,8,33,8z M33,9c-6.1,0-11,4.9-11,11
				s4.9,11,11,11h4c6.1,0,11-4.9,11-11S43.1,9,37,9H33z"/>
			<path class="st1" d="M26,26h1.8l3.7-6l3.7,6H37l-4.8-7.5H37V17h-4.7v-1.5H37V14H26v1.5h4.7V17H26v1.5h4.7L26,26z"/>
		</g>
	</g>
</g>
</svg>
