<?xml version="1.0" encoding="utf-8"?>
<!-- Generator: Adobe Illustrator 27.7.0, SVG Export Plug-In . SVG Version: 6.00 Build 0)  -->
<svg version="1.1" id="Layer_1" xmlns="http://www.w3.org/2000/svg" xmlns:xlink="http://www.w3.org/1999/xlink" x="0px" y="0px"
	 viewBox="0 0 40 40" style="enable-background:new 0 0 40 40;" xml:space="preserve">
<style type="text/css">
	.st0{clip-path:url(#SVGID_00000183963666857831140500000016773371917321137588_);}
	.st1{fill:#EC8C33;}
	.st2{fill:#FFFFFF;}
	.st3{fill:#EE2233;}
	.st4{fill-rule:evenodd;clip-rule:evenodd;fill:#FFFFFF;}
</style>
<g>
	<defs>
		<path id="SVGID_1_" d="M20,0L20,0c11,0,20,9,20,20l0,0c0,11-9,20-20,20l0,0C9,40,0,31,0,20l0,0C0,9,9,0,20,0z"/>
	</defs>
	<clipPath id="SVGID_00000170976430010001603110000000704699355259989914_">
		<use xlink:href="#SVGID_1_"  style="overflow:visible;"/>
	</clipPath>
	<g style="clip-path:url(#SVGID_00000170976430010001603110000000704699355259989914_);">
		<path class="st1" d="M20,0c11,0,20,9,20,20c0,11-9,20-20,20C9,40,0,31,0,20C0,9,9,0,20,0z"/>
		<path class="st2" d="M13.9,9c0.8,0.2,1.5,0.3,2.3,0.6c0.8,0.2,1.5,0.3,2.3,0.6c0.2,0.1,0.3,0,0.3-0.2c0.3-1.2,0.6-2.3,0.8-3.4
			c0.1-0.2,0.1-0.3,0.3-0.2c0.7,0.2,1.3,0.3,2,0.5c0.2,0.1,0.2,0.1,0.1,0.3c-0.3,1.1-0.6,2.3-0.8,3.4c0,0.1,0,0.1-0.1,0.3
			c0.6,0.1,1.2,0.3,1.7,0.4c0.1,0,0.1-0.1,0.2-0.2c0.2-0.9,0.4-1.7,0.7-2.6C23.9,8,24,7.7,24,7.4c0-0.1,0.1-0.2,0.2-0.1
			c0.7,0.2,1.4,0.3,2.1,0.6c0.1,0,0.1,0.1,0.1,0.1c-0.2,0.9-0.4,1.7-0.6,2.6c-0.1,0.3-0.1,0.7-0.3,1c-0.1,0.2,0,0.3,0.2,0.3
			c0.8,0.3,1.5,0.7,2.3,1c0.7,0.4,1.3,1,1.8,1.7c0.6,1,0.7,2.1,0.4,3.2c-0.2,0.8-0.5,1.4-1,2c-0.4,0.4-1,0.7-1.5,0.9
			c-0.1,0-0.1,0.1-0.3,0.1c0.3,0.2,0.6,0.3,0.8,0.6c0.8,0.6,1.4,1.4,1.7,2.3c0.1,0.8,0.1,1.6-0.1,2.3c-0.3,1-0.6,1.8-1.2,2.6
			c-0.8,0.9-1.7,1.4-2.8,1.5c-1.4,0.2-2.8,0.1-4.2-0.1c-0.2-0.1-0.3,0-0.4,0.2c-0.3,1.1-0.6,2.3-0.8,3.4c-0.1,0.3-0.1,0.3-0.4,0.2
			c-0.6-0.1-1.3-0.3-1.9-0.5c-0.2-0.1-0.2-0.1-0.1-0.3c0.3-1.2,0.6-2.3,0.9-3.4c0-0.1,0.1-0.2-0.1-0.3c-0.6-0.1-1.1-0.3-1.7-0.4
			c-0.1,0.6-0.3,1.2-0.5,1.9c-0.1,0.6-0.3,1.2-0.5,1.9c-0.1,0.1-0.1,0.2-0.3,0.1c-0.7-0.2-1.4-0.3-2.1-0.5c-0.2-0.1-0.2-0.1-0.1-0.3
			c0.3-1.2,0.6-2.3,0.9-3.4c0-0.1,0.1-0.1,0.1-0.3c-1.6-0.4-3.2-0.8-4.8-1.2c0.1-0.3,0.2-0.5,0.3-0.8c0.3-0.6,0.6-1.2,0.8-1.8
			c0.1-0.2,0.1-0.2,0.3-0.2c0.5,0.1,1,0.3,1.5,0.3c0.6,0.1,1-0.1,1-0.6c0.9-3.5,1.8-7,2.6-10.6c0.1-0.6-0.2-1.2-0.8-1.4
			c-0.6-0.2-1.2-0.3-1.8-0.5c-0.1,0-0.2-0.1-0.1-0.2c0.2-0.8,0.4-1.6,0.6-2.3C13.8,9.1,13.8,9.1,13.9,9z M17.4,26.1
			c0.1,0,0.1,0.1,0.1,0.1c1.1,0.3,2.3,0.6,3.4,0.7c0.8,0.1,1.6,0.1,2.3-0.2c1.3-0.4,1.9-2.1,1.1-3.2c-0.3-0.6-0.9-0.9-1.4-1.2
			c-1.2-0.7-2.7-1-4.1-1.2c-0.2-0.1-0.2,0-0.3,0.2c-0.1,0.7-0.3,1.3-0.5,2C17.9,24.1,17.7,25,17.4,26.1z M23.2,19
			c0.1,0,0.5-0.1,0.8-0.1c1.3-0.3,2-1.8,1.3-3c-0.3-0.6-1-1-1.6-1.3c-1-0.4-1.9-0.6-3-0.9c-0.2-0.1-0.3,0-0.3,0.2
			c-0.3,1.4-0.7,2.8-1.1,4.3c-0.1,0.1,0,0.2,0.1,0.3c0.3,0.1,0.5,0.1,0.8,0.2C21.2,18.8,22.1,19,23.2,19z"/>
		<g>
			<path class="st3" d="M22,20c0-6.1,4.9-11,11-11h4c6.1,0,11,4.9,11,11l0,0c0,6.1-4.9,11-11,11h-4C26.9,31,22,26.1,22,20L22,20z"/>
			<path class="st4" d="M33,8h4c6.6,0,12,5.4,12,12s-5.4,12-12,12h-4c-6.6,0-12-5.4-12-12S26.4,8,33,8z M33,9c-6.1,0-11,4.9-11,11
				s4.9,11,11,11h4c6.1,0,11-4.9,11-11S43.1,9,37,9H33z"/>
			<path class="st2" d="M26,26h1.8l3.7-6l3.7,6H37l-4.8-7.5H37V17h-4.7v-1.5H37V14H26v1.5h4.7V17H26v1.5h4.7L26,26z"/>
		</g>
	</g>
</g>
</svg>
