<?xml version="1.0" encoding="utf-8"?>
<!-- Generator: Adobe Illustrator 27.7.0, SVG Export Plug-In . SVG Version: 6.00 Build 0)  -->
<svg version="1.1" id="Layer_1" xmlns="http://www.w3.org/2000/svg" xmlns:xlink="http://www.w3.org/1999/xlink" x="0px" y="0px"
	 viewBox="0 0 40 40" style="enable-background:new 0 0 40 40;" xml:space="preserve">
<style type="text/css">
	.st0{clip-path:url(#SVGID_00000170980378977505518000000017540646460607888273_);}
	.st1{fill:#6DA544;}
	.st2{fill:#FFDA44;}
	.st3{fill:#F0F0F0;}
	.st4{fill:#0052B4;}
	.st5{opacity:0.1;enable-background:new    ;}
	.st6{fill:#FFFFFF;}
	.st7{fill:#EE2233;}
</style>
<g>
	<defs>
		<path id="SVGID_1_" d="M20,0L20,0c11,0,20,9,20,20l0,0c0,11-9,20-20,20l0,0C9,40,0,31,0,20l0,0C0,9,9,0,20,0z"/>
	</defs>
	<clipPath id="SVGID_00000029017913100956847380000012645922817102071463_">
		<use xlink:href="#SVGID_1_"  style="overflow:visible;"/>
	</clipPath>
	<g style="clip-path:url(#SVGID_00000029017913100956847380000012645922817102071463_);">
		<path class="st1" d="M20,40c11,0,20-9,20-20S31,0,20,0S0,9,0,20S9,40,20,40z"/>
		<path class="st2" d="M20,7l18,13L20,33L2,20L20,7z"/>
		<path class="st3" d="M20,28c4.4,0,8-3.6,8-8s-3.6-8-8-8s-8,3.6-8,8S15.6,28,20,28z"/>
		<path class="st4" d="M15.8,20c-1.3,0-2.6,0.2-3.8,0.6c0.1,4.1,3.5,7.4,7.7,7.4c2.6,0,4.9-1.3,6.3-3.2C23.6,21.9,20,20,15.8,20
			L15.8,20z"/>
		<path class="st4" d="M27.9,21c0.1-0.5,0.1-1,0.1-1.4c0-4.2-3.5-7.6-7.8-7.6c-3.2,0-6,1.9-7.2,4.6c1.1-0.2,2.2-0.3,3.3-0.3
			C20.8,16.2,24.9,18.1,27.9,21L27.9,21z"/>
		<path class="st5" d="M20,40c11,0,20-9,20-20S31,0,20,0S0,9,0,20S9,40,20,40z"/>
		<path class="st6" d="M26.7,33.2l-6.8-10.8l-6.8,10.8l-7.3,0l9.8-15.4H7.1V5.5h25.8v12.3h-8.5l9.9,15.4L26.7,33.2z"/>
		<path class="st7" d="M8.6,31.7h3.7l7.7-12.3l7.7,12.3h3.7l-9.9-15.4h9.8v-3h-9.8v-3.1h9.8V7H8.6v3h9.8v3.1H8.6v3h9.8L8.6,31.7z"/>
	</g>
</g>
</svg>
