<?xml version="1.0" encoding="utf-8"?>
<!-- Generator: Adobe Illustrator 27.7.0, SVG Export Plug-In . SVG Version: 6.00 Build 0)  -->
<svg version="1.1" id="Layer_1" xmlns="http://www.w3.org/2000/svg" xmlns:xlink="http://www.w3.org/1999/xlink" x="0px" y="0px"
	 viewBox="0 0 40 40" style="enable-background:new 0 0 40 40;" xml:space="preserve">
<style type="text/css">
	.st0{clip-path:url(#SVGID_00000006702697087887456630000008422937524070547626_);}
	.st1{fill:#D80027;}
	.st2{fill:#FFDA44;}
	.st3{opacity:0.1;enable-background:new    ;}
	.st4{fill:#FFFFFF;}
	.st5{fill:#EE2233;}
</style>
<g>
	<defs>
		<path id="SVGID_1_" d="M20,0L20,0c11,0,20,9,20,20l0,0c0,11-9,20-20,20l0,0C9,40,0,31,0,20l0,0C0,9,9,0,20,0z"/>
	</defs>
	<clipPath id="SVGID_00000146464510953956348540000010472701323677781427_">
		<use xlink:href="#SVGID_1_"  style="overflow:visible;"/>
	</clipPath>
	<g style="clip-path:url(#SVGID_00000146464510953956348540000010472701323677781427_);">
		<path class="st1" d="M20,40c11,0,20-9,20-20S31,0,20,0S0,9,0,20S9,40,20,40z"/>
		<path class="st2" d="M11.9,11.2l1.9,6h6.3L15,20.9l1.9,6l-5.1-3.7l-5.1,3.7l2-6l-5.1-3.7h6.3L11.9,11.2z"/>
		<path class="st2" d="M26.2,32.4l-1.5-1.8l-2.2,0.9l1.3-2l-1.5-1.8l2.3,0.6l1.3-2l0.1,2.4l2.3,0.6L26.1,30L26.2,32.4z"/>
		<path class="st2" d="M29.2,27l0.7-2.3L28,23.4l2.4,0l0.7-2.3l0.8,2.2l2.4,0l-1.9,1.4l0.8,2.2l-1.9-1.4L29.2,27z"/>
		<path class="st2" d="M33.2,14l-1,2.1l1.7,1.6l-2.3-0.3l-1,2.1l-0.4-2.3l-2.3-0.3l2.1-1.1l-0.4-2.3l1.7,1.6L33.2,14z"/>
		<path class="st2" d="M26.3,7.6l-0.2,2.3l2.2,0.9L26,11.4l-0.2,2.4l-1.2-2l-2.3,0.6l1.5-1.8l-1.2-2l2.2,0.9L26.3,7.6z"/>
		<path class="st3" d="M20,40c11,0,20-9,20-20S31,0,20,0S0,9,0,20S9,40,20,40z"/>
		<path class="st4" d="M26.7,33.2l-6.8-10.8l-6.8,10.8l-7.3,0l9.8-15.4H7.1V5.5h25.8v12.3h-8.5l9.9,15.4L26.7,33.2z"/>
		<path class="st5" d="M8.6,31.7h3.7l7.7-12.3l7.7,12.3h3.7l-9.9-15.4h9.8v-3h-9.8v-3.1h9.8V7H8.6v3h9.8v3.1H8.6v3h9.8L8.6,31.7z"/>
	</g>
</g>
</svg>
