<?xml version="1.0" encoding="utf-8"?>
<!-- Generator: Adobe Illustrator 27.7.0, SVG Export Plug-In . SVG Version: 6.00 Build 0)  -->
<svg version="1.1" id="Layer_1" xmlns="http://www.w3.org/2000/svg" xmlns:xlink="http://www.w3.org/1999/xlink" x="0px" y="0px"
	 viewBox="0 0 40 40" style="enable-background:new 0 0 40 40;" xml:space="preserve">
<style type="text/css">
	.st0{clip-path:url(#SVGID_00000118385949411851893830000000716212779288850819_);}
	.st1{fill:#0052B4;}
	.st2{fill:#FFCC00;}
	.st3{opacity:0.1;enable-background:new    ;}
	.st4{fill:#FFFFFF;}
	.st5{fill:#EE2233;}
</style>
<g>
	<defs>
		<path id="SVGID_1_" d="M20,0L20,0c11,0,20,9,20,20l0,0c0,11-9,20-20,20l0,0C9,40,0,31,0,20l0,0C0,9,9,0,20,0z"/>
	</defs>
	<clipPath id="SVGID_00000011725228310450877030000002915268477753374083_">
		<use xlink:href="#SVGID_1_"  style="overflow:visible;"/>
	</clipPath>
	<g style="clip-path:url(#SVGID_00000011725228310450877030000002915268477753374083_);">
		<path class="st1" d="M20,40c11,0,20-9,20-20S31,0,20,0S0,9,0,20S9,40,20,40z"/>
		<path class="st2" d="M19.1,4.9l-1.5-1.1l1.9,0L20,2l0.6,1.8h1.9l-1.5,1.1l0.6,1.8L20,5.6l-1.5,1.1L19.1,4.9z M10.7,8.8l1.5-1.1
			l1.5,1.1L13.2,7l1.5-1.1h-1.9l-0.6-1.8l-0.6,1.8H9.8L11.3,7L10.7,8.8z M6.5,9.8L6,11.6H4.1l1.5,1.1L5,14.5l1.5-1.1L8,14.5
			l-0.6-1.8L9,11.7H7.1L6.5,9.8z M4.5,21.2L6,22.3l-0.6-1.8l1.5-1.1H5l-0.6-1.8l-0.6,1.8H2l1.5,1.1l-0.6,1.8L4.5,21.2z M7.1,27.3
			l-0.6-1.8L6,27.3H4.1l1.5,1.1L5,30.2l1.5-1.1L8,30.2l-0.6-1.8L9,27.3L7.1,27.3z M12.8,33l-0.6-1.8L11.7,33H9.8l1.5,1.1l-0.6,1.8
			l1.5-1.1l1.5,1.1l-0.6-1.8l1.5-1.1L12.8,33z M20.6,35.1L20,33.3l-0.6,1.8h-1.9l1.5,1.1L18.5,38l1.5-1.1l1.5,1.1l-0.6-1.8l1.5-1.1
			L20.6,35.1z M28.3,33l-0.6-1.8L27.2,33h-1.9l1.5,1.1l-0.6,1.8l1.5-1.1l1.5,1.1l-0.6-1.8l1.5-1.1L28.3,33z M34,27.3l-0.6-1.8
			l-0.6,1.8H31l1.5,1.1L32,30.2l1.5-1.1l1.5,1.1l-0.6-1.8l1.5-1.1L34,27.3z M38,19.4h-1.9l-0.6-1.8L35,19.4h-1.9l1.5,1.1L34,22.3
			l1.5-1.1l1.5,1.1l-0.6-1.8L38,19.4z M32,14.5l1.5-1.1l1.5,1.1l-0.6-1.8l1.5-1.1h-1.9l-0.6-1.8l-0.6,1.8H31l1.5,1.1L32,14.5z
			 M27.8,4.1l-0.6,1.8h-1.9L26.9,7l-0.6,1.8l1.5-1.1l1.5,1.1L28.7,7l1.5-1.1h-1.9L27.8,4.1z"/>
		<path class="st3" d="M20,40c11,0,20-9,20-20S31,0,20,0S0,9,0,20S9,40,20,40z"/>
		<path class="st4" d="M26.7,33.2l-6.8-10.8l-6.8,10.8l-7.3,0l9.8-15.4H7.1V5.5h25.8v12.3h-8.5l9.9,15.4L26.7,33.2z"/>
		<path class="st5" d="M8.6,31.7h3.7l7.7-12.3l7.7,12.3h3.7l-9.9-15.4h9.8v-3h-9.8v-3.1h9.8V7H8.6v3h9.8v3.1H8.6v3h9.8L8.6,31.7z"/>
	</g>
</g>
</svg>
