<?xml version="1.0" encoding="utf-8"?>
<!-- Generator: Adobe Illustrator 27.7.0, SVG Export Plug-In . SVG Version: 6.00 Build 0)  -->
<svg version="1.1" id="Layer_1" xmlns="http://www.w3.org/2000/svg" xmlns:xlink="http://www.w3.org/1999/xlink" x="0px" y="0px"
	 viewBox="0 0 40 40" style="enable-background:new 0 0 40 40;" xml:space="preserve">
<style type="text/css">
	.st0{clip-path:url(#SVGID_00000158007304087392598510000001170620813338305950_);}
	.st1{fill:#F0F0F0;}
	.st2{fill:#0052B4;}
	.st3{fill:#D80027;}
	.st4{opacity:0.1;enable-background:new    ;}
	.st5{fill:#FFFFFF;}
	.st6{fill:#EE2233;}
</style>
<g>
	<defs>
		<path id="SVGID_1_" d="M20,0L20,0c11,0,20,9,20,20l0,0c0,11-9,20-20,20l0,0C9,40,0,31,0,20l0,0C0,9,9,0,20,0z"/>
	</defs>
	<clipPath id="SVGID_00000017492565161813106340000016934472033966770831_">
		<use xlink:href="#SVGID_1_"  style="overflow:visible;"/>
	</clipPath>
	<g style="clip-path:url(#SVGID_00000017492565161813106340000016934472033966770831_);">
		<path class="st1" d="M20,40c11,0,20-9,20-20S31,0,20,0S0,9,0,20S9,40,20,40z"/>
		<path class="st2" d="M2.4,6.5c-1.7,2.3-3.1,4.9-3.8,7.7h11.5L2.4,6.5z"/>
		<path class="st2" d="M41.4,14.2c-0.8-2.8-2.1-5.5-3.8-7.7l-7.7,7.7H41.4z"/>
		<path class="st2" d="M-1.4,25.8c0.8,2.8,2.1,5.5,3.8,7.7l7.7-7.7H-1.4z"/>
		<path class="st2" d="M33.5,2.4c-2.3-1.7-4.9-3.1-7.7-3.8v11.5L33.5,2.4z"/>
		<path class="st2" d="M6.5,37.6c2.3,1.7,4.9,3.1,7.7,3.8V29.9L6.5,37.6z"/>
		<path class="st2" d="M14.2-1.4c-2.8,0.8-5.5,2.1-7.7,3.8l7.7,7.7V-1.4z"/>
		<path class="st2" d="M25.8,41.4c2.8-0.8,5.5-2.1,7.7-3.8l-7.7-7.7V41.4z"/>
		<path class="st2" d="M29.9,25.8l7.7,7.7c1.7-2.3,3.1-4.9,3.8-7.7H29.9z"/>
		<path class="st3" d="M42,17.1H22.9h0V-2C21.9-2.1,21-2.2,20-2.2c-1,0-1.9,0.1-2.9,0.2v19.1v0H-2C-2.1,18.1-2.2,19-2.2,20
			c0,1,0.1,1.9,0.2,2.9h19.1h0V42c0.9,0.1,1.9,0.2,2.9,0.2c1,0,1.9-0.1,2.9-0.2V22.9v0H42c0.1-0.9,0.2-1.9,0.2-2.9
			C42.2,19,42.1,18.1,42,17.1L42,17.1z"/>
		<path class="st3" d="M25.8,25.8l9.9,9.9c0.5-0.5,0.9-0.9,1.3-1.4l-8.5-8.5L25.8,25.8L25.8,25.8z"/>
		<path class="st3" d="M14.2,25.8L14.2,25.8l-9.9,9.9c0.5,0.5,0.9,0.9,1.4,1.3l8.5-8.5V25.8z"/>
		<path class="st3" d="M14.2,14.2L14.2,14.2L4.3,4.3C3.9,4.8,3.4,5.2,3,5.7l8.5,8.5L14.2,14.2L14.2,14.2z"/>
		<path class="st3" d="M25.8,14.2l9.9-9.9c-0.5-0.5-0.9-0.9-1.4-1.3l-8.5,8.5V14.2z"/>
		<path class="st4" d="M20,40c11,0,20-9,20-20S31,0,20,0C8.9,0,0,9,0,20S8.9,40,20,40z"/>
		<path class="st5" d="M26.7,33.2l-6.8-10.8l-6.8,10.8l-7.3,0l9.8-15.4H7.1V5.5h25.8v12.3h-8.5l9.9,15.4L26.7,33.2z"/>
		<path class="st6" d="M8.6,31.7h3.7l7.7-12.3l7.7,12.3h3.7l-9.9-15.4h9.8v-3h-9.8v-3.1h9.8V7H8.6v3h9.8v3.1H8.6v3h9.8L8.6,31.7z"/>
	</g>
</g>
</svg>
