<?xml version="1.0" encoding="utf-8"?>
<!-- Generator: Adobe Illustrator 27.7.0, SVG Export Plug-In . SVG Version: 6.00 Build 0)  -->
<svg version="1.1" id="Layer_1" xmlns="http://www.w3.org/2000/svg" xmlns:xlink="http://www.w3.org/1999/xlink" x="0px" y="0px"
	 viewBox="0 0 40 40" style="enable-background:new 0 0 40 40;" xml:space="preserve">
<style type="text/css">
	.st0{clip-path:url(#SVGID_00000137851851995952987730000000915818575603004843_);}
	.st1{fill:#D80027;}
	.st2{fill:#F0F0F0;}
	.st3{opacity:0.1;enable-background:new    ;}
	.st4{fill:#FFFFFF;}
	.st5{fill:#EE2233;}
</style>
<g>
	<g>
		<defs>
			<path id="SVGID_1_" d="M20,0L20,0c11,0,20,9,20,20l0,0c0,11-9,20-20,20l0,0C9,40,0,31,0,20l0,0C0,9,9,0,20,0z"/>
		</defs>
		<clipPath id="SVGID_00000095300151889951489260000015435775614133725367_">
			<use xlink:href="#SVGID_1_"  style="overflow:visible;"/>
		</clipPath>
		<g style="clip-path:url(#SVGID_00000095300151889951489260000015435775614133725367_);">
			<path class="st1" d="M20,40c11,0,20-9,20-20S31,0,20,0S0,9,0,20S9,40,20,40z"/>
			<path class="st2" d="M23,11.4c-0.7,3.4-2.1,2.8-2.7,5.8c-4.2-0.8-6.9-4.9-6.1-9.1C15,4,19,1.2,23.2,2C22.1,8,23.6,8.4,23,11.4z"
				/>
			<path class="st2" d="M12.3,14.4c3,1.7,2,2.9,4.7,4.4c-2.1,3.7-6.8,5.1-10.5,3s-5.1-6.8-3-10.5C8.7,14.2,9.6,12.9,12.3,14.4
				L12.3,14.4z"/>
			<path class="st2" d="M11.8,25.5c2.5-2.4,3.4-1,5.6-3.1c2.9,3.1,2.7,8-0.4,10.9S9,36,6.1,32.9C10.5,28.8,9.6,27.6,11.8,25.5z"/>
			<path class="st2" d="M22.2,29.4c-1.5-3.1,0.1-3.5-1.2-6.3c3.9-1.8,8.5-0.1,10.3,3.8s0.1,8.5-3.8,10.3
				C25,31.7,23.5,32.2,22.2,29.4z"/>
			<path class="st2" d="M29.1,20.7c-3.4,0.4-3.3-1.2-6.3-0.8c-0.5-4.2,2.5-8.1,6.7-8.6s8.1,2.5,8.6,6.7
				C32.1,18.8,32.2,20.3,29.1,20.7z"/>
			<path class="st3" d="M20.2,40c11,0,20-9,20-20s-9-20-20-20s-20,9-20,20S9.2,40,20.2,40z"/>
			<path class="st4" d="M26.8,33.2L20,22.4l-6.8,10.8H5.9l9.8-15.4H7.1V5.5h25.8v12.3h-8.5l9.8,15.4H26.8z"/>
			<path class="st5" d="M8.6,31.7h3.6l7.7-12.3l7.7,12.3h3.7l-9.9-15.4h9.8v-3h-9.8v-3.1h9.8V7H8.6v3h9.8v3.1H8.6v3h9.8L8.6,31.7z"
				/>
		</g>
	</g>
</g>
</svg>
