<?xml version="1.0" encoding="utf-8"?>
<!-- Generator: Adobe Illustrator 27.7.0, SVG Export Plug-In . SVG Version: 6.00 Build 0)  -->
<svg version="1.1" id="Layer_1" xmlns="http://www.w3.org/2000/svg" xmlns:xlink="http://www.w3.org/1999/xlink" x="0px" y="0px"
	 viewBox="0 0 40 40" style="enable-background:new 0 0 40 40;" xml:space="preserve">
<style type="text/css">
	.st0{clip-path:url(#SVGID_00000062889319340838351770000002129675037159634568_);}
	.st1{fill:#C0C0C0;}
	.st2{fill:#FFFFFF;}
	.st3{fill:#EE2233;}
	.st4{fill-rule:evenodd;clip-rule:evenodd;fill:#FFFFFF;}
</style>
<g>
	<defs>
		<path id="SVGID_1_" d="M20,0L20,0c11,0,20,9,20,20l0,0c0,11-9,20-20,20l0,0C9,40,0,31,0,20l0,0C0,9,9,0,20,0z"/>
	</defs>
	<clipPath id="SVGID_00000181051351795827684030000017053751319193064101_">
		<use xlink:href="#SVGID_1_"  style="overflow:visible;"/>
	</clipPath>
	<g style="clip-path:url(#SVGID_00000181051351795827684030000017053751319193064101_);">
		<path class="st1" d="M20,0c11,0,20,9,20,20c0,11-9,20-20,20C9,40,0,31,0,20C0,9,9,0,20,0z"/>
		<path class="st2" d="M18.7,25.5c3.8,0.1,7.5,0.1,11.3,0.3c-0.1,0.6-0.3,1-0.3,1.5c-0.2,0.7-0.4,1.3-0.6,2
			c-0.1,0.4-0.2,0.4-0.6,0.4h-18c0.6-2.5,1.3-4.8,1.9-7.2c-1,0.4-1.8,0.7-2.8,1.1c0.3-1,0.6-2,0.9-2.9c0-0.1,0.2-0.2,0.3-0.2
			c0.6-0.3,1.3-0.5,2-0.8c0.2-0.1,0.4-0.3,0.4-0.5l2.9-10.9c0.1-0.4,0.2-0.6,0.7-0.6h6.4c-0.8,2.9-1.5,5.7-2.2,8.8
			c1.1-0.5,2.2-0.9,3.4-1.3c-0.1,0.6-0.3,1-0.4,1.5c-0.1,1.1-0.8,1.8-1.9,2c-0.5,0.1-1,0.3-1.5,0.6c-0.2,0.1-0.3,0.2-0.4,0.4
			c-0.5,1.9-1,3.7-1.4,5.6L18.7,25.5L18.7,25.5z"/>
		<g>
			<path class="st3" d="M22,20c0-6.1,4.9-11,11-11h4c6.1,0,11,4.9,11,11l0,0c0,6.1-4.9,11-11,11h-4C26.9,31,22,26.1,22,20L22,20z"/>
			<path class="st4" d="M33,8h4c6.6,0,12,5.4,12,12s-5.4,12-12,12h-4c-6.6,0-12-5.4-12-12S26.4,8,33,8z M33,9c-6.1,0-11,4.9-11,11
				s4.9,11,11,11h4c6.1,0,11-4.9,11-11S43.1,9,37,9H33z"/>
			<path class="st2" d="M26,26h1.8l3.7-6l3.7,6H37l-4.8-7.5H37V17h-4.7v-1.5H37V14H26v1.5h4.7V17H26v1.5h4.7L26,26z"/>
		</g>
	</g>
</g>
</svg>
