<?xml version="1.0" encoding="utf-8"?>
<!-- Generator: Adobe Illustrator 27.7.0, SVG Export Plug-In . SVG Version: 6.00 Build 0)  -->
<svg version="1.1" id="Layer_1" xmlns="http://www.w3.org/2000/svg" xmlns:xlink="http://www.w3.org/1999/xlink" x="0px" y="0px"
	 viewBox="0 0 40 40" style="enable-background:new 0 0 40 40;" xml:space="preserve">
<style type="text/css">
	.st0{clip-path:url(#SVGID_00000165943348946371921150000015757864332218720703_);}
	.st1{fill:#0052B4;}
	.st2{fill:#F0F0F0;}
	.st3{fill:#D80027;}
	.st4{opacity:0.1;enable-background:new    ;}
	.st5{fill:#FFFFFF;}
	.st6{fill:#EE2233;}
</style>
<g>
	<defs>
		<path id="SVGID_1_" d="M20,0L20,0c11,0,20,9,20,20l0,0c0,11-9,20-20,20l0,0C9,40,0,31,0,20l0,0C0,9,9,0,20,0z"/>
	</defs>
	<clipPath id="SVGID_00000158740986348936756890000011991200135017112735_">
		<use xlink:href="#SVGID_1_"  style="overflow:visible;"/>
	</clipPath>
	<g style="clip-path:url(#SVGID_00000158740986348936756890000011991200135017112735_);">
		<path class="st1" d="M40,20c0,11-9,20-20,20C9,40,0,31,0,20C0,20,20,0,20,0C31,0,40,9,40,20z"/>
		<path class="st2" d="M20.1,20.4L20.1,20.4C20.1,20.4,20.1,20.3,20.1,20.4C20.1,20.3,20.1,20.4,20.1,20.4z"/>
		<path class="st2" d="M20.1,10.1c0-3.8,0-6.3,0-11.2h0C8.3-1.1-1.3,8.5-1.3,20.4H9.9v-6.3l6.3,6.3h3.9c0,0,0,0,0.1-0.1
			c0-1.4,0-2.7,0-3.9l-6.3-6.3H20.1z"/>
		<path class="st3" d="M9.5,1.7C6.2,3.6,3.4,6.4,1.5,9.8v10.6h5.6V7.3v0h13.1c0-1.8,0-3.5,0-5.6H9.5z"/>
		<path class="st3" d="M20.1,17.7l-7.6-7.6c0,0-2.6,0-2.6,0v0l10.3,10.3h0C20.1,20.4,20.1,18.6,20.1,17.7z"/>
		<path class="st3" d="M36.5,14.5l0.5,1.5h1.6l-1.3,0.9l0.5,1.5l-1.3-0.9l-1.3,0.9l0.5-1.5L34.4,16H36L36.5,14.5z"/>
		<path class="st3" d="M30.8,25.2l0.7,2.2h2.4L32,28.8l0.7,2.2l-1.9-1.4l-1.9,1.4l0.7-2.2l-1.9-1.4h2.4L30.8,25.2z"/>
		<path class="st3" d="M30.7,8.3l0.6,1.8h1.9l-1.5,1.1l0.6,1.8l-1.5-1.1L29.2,13l0.6-1.8l-1.5-1.1h1.9L30.7,8.3z"/>
		<path class="st3" d="M25.7,14.4l0.7,2.2h2.4L26.8,18l0.7,2.2l-1.9-1.4l-1.9,1.4l0.7-2.2l-1.9-1.4h2.4L25.7,14.4z"/>
		<path class="st4" d="M20,40c11,0,20-9,20-20S31,0,20,0S0,9,0,20S9,40,20,40z"/>
		<path class="st5" d="M26.7,33.2l-6.8-10.8l-6.8,10.8l-7.3,0l9.8-15.4H7.1V5.5h25.8v12.3h-8.5l9.9,15.4L26.7,33.2z"/>
		<path class="st6" d="M8.6,31.7h3.7l7.7-12.3l7.7,12.3h3.7l-9.9-15.4h9.8v-3h-9.8v-3.1h9.8V7H8.6v3h9.8v3.1H8.6v3h9.8L8.6,31.7z"/>
	</g>
</g>
</svg>
