<?xml version="1.0" encoding="utf-8"?>
<!-- Generator: Adobe Illustrator 27.7.0, SVG Export Plug-In . SVG Version: 6.00 Build 0)  -->
<svg version="1.1" id="Layer_1" xmlns="http://www.w3.org/2000/svg" xmlns:xlink="http://www.w3.org/1999/xlink" x="0px" y="0px"
	 viewBox="0 0 40 40" style="enable-background:new 0 0 40 40;" xml:space="preserve">
<style type="text/css">
	.st0{clip-path:url(#SVGID_00000019638448284366731980000000267740840276454847_);}
	.st1{fill:#F0F0F0;}
	.st2{fill:#D80027;}
	.st3{fill:#0052B4;}
	.st4{fill:#FFDA44;}
	.st5{opacity:0.1;enable-background:new    ;}
	.st6{fill:#FFFFFF;}
	.st7{fill:#EE2233;}
</style>
<g>
	<defs>
		<path id="SVGID_1_" d="M20,0L20,0c11,0,20,9,20,20l0,0c0,11-9,20-20,20l0,0C9,40,0,31,0,20l0,0C0,9,9,0,20,0z"/>
	</defs>
	<clipPath id="SVGID_00000065052433901659660550000017760007038624662154_">
		<use xlink:href="#SVGID_1_"  style="overflow:visible;"/>
	</clipPath>
	<g style="clip-path:url(#SVGID_00000065052433901659660550000017760007038624662154_);">
		<path class="st1" d="M20,40c11,0,20-9,20-20S31,0,20,0S0,9,0,20S9,40,20,40z"/>
		<path class="st2" d="M20,0v20L5.9,34.1C9.5,37.8,14.5,40,20,40c11,0,20-9,20-20C40,9,20,0,20,0z"/>
		<path class="st3" d="M20,0C14.5,0,9.5,2.2,5.9,5.9c4.9,4.9,6.6,6.6,14.1,14.1h20C40,9,31,0,20,0z"/>
		<path class="st4" d="M13.7,20l-2.4-1.1l1.3-2.4L9.9,17l-0.3-2.7l-1.8,2l-1.8-2L5.5,17l-2.7-0.5l1.3,2.4L1.7,20l2.4,1.1l-1.3,2.4
			L5.5,23l0.3,2.7l1.8-2l1.8,2L9.9,23l2.7,0.5l-1.3-2.4L13.7,20z"/>
		<path class="st4" d="M5.3,7.8L6.1,9l1.3-0.4L6.6,9.7l0.8,1.1l-1.3-0.4l-0.8,1.1l0-1.4L4,9.6l1.3-0.4L5.3,7.8z"/>
		<path class="st4" d="M5.3,28.5l0.8,1.1l1.3-0.4l-0.8,1.1l0.8,1.1L6.1,31l-0.8,1.1l0-1.4L4,30.3l1.3-0.4L5.3,28.5z"/>
		<path class="st4" d="M16.9,18.2l-0.8,1.1l-1.3-0.4l0.8,1.1l-0.8,1.1l1.3-0.4l0.8,1.1l0-1.4l1.3-0.4l-1.3-0.4L16.9,18.2z"/>
		<path class="st5" d="M20,40c11,0,20-9,20-20S31,0,20,0S0,9,0,20S9,40,20,40z"/>
		<path class="st6" d="M26.7,33.2l-6.8-10.8l-6.8,10.8l-7.3,0l9.8-15.4H7.1V5.5h25.8v12.3h-8.5l9.9,15.4L26.7,33.2z"/>
		<path class="st7" d="M8.6,31.7h3.7l7.7-12.3l7.7,12.3h3.7l-9.9-15.4h9.8v-3h-9.8v-3.1h9.8V7H8.6v3h9.8v3.1H8.6v3h9.8L8.6,31.7z"/>
	</g>
</g>
</svg>
