<?xml version="1.0" encoding="utf-8"?>
<!-- Generator: Adobe Illustrator 27.7.0, SVG Export Plug-In . SVG Version: 6.00 Build 0)  -->
<svg version="1.1" id="Layer_1" xmlns="http://www.w3.org/2000/svg" xmlns:xlink="http://www.w3.org/1999/xlink" x="0px" y="0px"
	 viewBox="0 0 40 40" style="enable-background:new 0 0 40 40;" xml:space="preserve">
<style type="text/css">
	.st0{clip-path:url(#SVGID_00000127023069968530429010000016836333253143990203_);}
	.st1{fill:#F00500;}
	.st2{fill:#FFA409;}
	.st3{fill:#FFFFFF;}
	.st4{fill:none;}
	.st5{fill:#FF8300;}
	.st6{clip-path:url(#SVGID_00000085239562974731443720000015872445590630527149_);}
	.st7{clip-path:url(#SVGID_00000182507711299298198730000000276235517059704246_);}
	.st8{fill:#EE2233;}
	.st9{fill-rule:evenodd;clip-rule:evenodd;fill:#FFFFFF;}
	.st10{clip-path:url(#SVGID_00000015347167827019180310000015096664230796563351_);}
	.st11{clip-path:url(#SVGID_00000078758026519008175770000010103827737578944156_);}
</style>
<g>
	<g>
		<g>
			<defs>
				<path id="SVGID_1_" d="M20,0L20,0c11,0,20,9,20,20l0,0c0,11-9,20-20,20l0,0C9,40,0,31,0,20l0,0C0,9,9,0,20,0z"/>
			</defs>
			<clipPath id="SVGID_00000067233807402224949380000004568772213971916222_">
				<use xlink:href="#SVGID_1_"  style="overflow:visible;"/>
			</clipPath>
			<g style="clip-path:url(#SVGID_00000067233807402224949380000004568772213971916222_);">
				<path class="st1" d="M20,0c11,0,20,9,20,20s-9,20-20,20S0,31,0,20S9,0,20,0z"/>
				<path class="st2" d="M31.7,24.8L31.7,24.8L31.7,24.8C31.7,24.7,31.7,24.7,31.7,24.8v-0.4l0,0c0-0.2,0-0.4,0-0.6
					c-0.2-2-0.7-3.6-1.6-5.4c0-0.1-0.1-0.1-0.1-0.2l0,0c0.1-0.4,0.7-2.1,1.1-4.1c0.6-2.7,0.9-5.8-0.2-6.7c0,0-1.9-0.1-4.5,2.5
					c-0.7,0.7-1.3,1.5-1.9,2.4l-0.2-0.1c-1-0.4-2.1-0.6-3.2-0.7c-0.3,0-1.5,0-1.9,0c-1.2,0.1-2.1,0.3-3.2,0.7h-0.1
					c-0.6-0.8-1.3-1.6-2-2.4c-2.7-2.7-4.7-2.5-4.7-2.5c-1.2,1-0.8,4.2-0.2,7c0.3,1.3,0.7,2.7,1.1,4v0.1c-1,2.1-1.5,4.1-1.6,6.2l0,0
					v0.1c0,0.6,0,0.9,0.1,1.3c0.3,1.3,1.3,2.6,2.8,4c2.5,2.2,5.9,3.8,8.4,4c2.7,0.2,6.5-1.5,9.1-3.9c0.4-0.4,0.9-0.7,1.3-1.1
					c0.3-0.3,0.6-0.9,0.6-0.9l0,0l0,0l0,0l0,0l0,0l0,0l0,0l0,0l0,0l0,0c0,0,0-0.1,0.1-0.1c0.1-0.1,0.3-0.6,0.3-0.6
					c0.2-0.6,0.4-1.1,0.5-1.6C31.7,25.4,31.7,24.9,31.7,24.8z"/>
				<path class="st3" d="M31.7,24.8L31.7,24.8c-1.2-0.2-2.4-0.1-3.5,0.3s-2.2,1-3.1,1.7c0,0-0.9-4.1-4.9-4.1s-5.5,4.1-5.5,4.1
					c-2.3-2.5-5.1-2.4-6.2-2.2v0.1c0,0.6,0,0.9,0.1,1.3c0.3,1.3,1.1,2.6,2.6,4c2.5,2.2,5.9,3.8,8.4,4c2.7,0.2,6.6-1.4,9.2-3.8
					c0.4-0.4,0.8-0.8,1.2-1.2c0.3-0.3,0.6-0.9,0.6-0.9l0,0l0,0l0,0l0,0l0,0l0,0l0,0l0,0l0,0l0,0c0,0,0-0.1,0.1-0.1
					c0.1-0.1,0.3-0.6,0.3-0.6c0.2-0.6,0.4-1.1,0.5-1.6C31.7,25.4,31.7,24.9,31.7,24.8L31.7,24.8z"/>
				<path class="st2" d="M31.7,24.4c0-0.2,0-0.4,0-0.6c-0.2-2-0.7-3.6-1.6-5.4c0-0.1-0.1-0.1-0.1-0.2l0,0c0.1-0.4,0.7-2.1,1.1-4.1
					c0.6-2.7,0.9-5.8-0.2-6.7c0,0-1.9-0.1-4.5,2.5c-0.7,0.7-1.3,1.5-1.9,2.4l-0.2-0.1c-1-0.4-2.1-0.6-3.2-0.7c-0.3,0-1.5,0-1.9,0
					c-1.2,0.1-2.1,0.3-3.2,0.7h-0.1c-0.6-0.8-1.3-1.6-2-2.4c-2.7-2.7-4.7-2.5-4.7-2.5c-1.2,1-0.8,4.2-0.2,7c0.3,1.3,0.7,2.7,1.1,4
					v0.1c-1,2.1-1.5,4.1-1.6,6.2c1.1-0.2,3.9-0.4,6.2,2.2c0,0,1.7-4.1,5.7-4.1s4.9,4.1,4.9,4.1c0.9-0.8,1.9-1.4,3.1-1.7
					c1.1-0.4,2.3-0.5,3.5-0.4L31.7,24.4L31.7,24.4z M10.8,16.7c0,0-1.6-4.1-1.2-6.5c0.1-0.4,0.2-0.7,0.4-1c0,0,1.8,0.2,4.6,3.5
					c0,0-0.5,0.3-1.3,0.9l0,0C12.4,14.5,11.5,15.5,10.8,16.7z M26.7,13.6L26.7,13.6c-0.4-0.3-0.8-0.6-1.2-0.9
					C28.3,9.4,30,9.2,30,9.2c0.2,0.3,0.3,0.6,0.4,1c0.4,2.3-1.1,6.5-1.1,6.5C28.5,15.5,27.7,14.5,26.7,13.6z"/>
				<g>
					<path class="st4" d="M30.1,10.2c0.1,0,0.1,0,0.2,0l0,0C30.3,10.2,30.2,10.2,30.1,10.2z"/>
					<path class="st5" d="M30.3,10.2L30.3,10.2L30.3,10.2z"/>
					<path class="st5" d="M30.3,10.2c-0.1-0.4-0.2-0.7-0.4-1c0,0-1.7,0.2-4.5,3.5c0.4,0.2,0.8,0.5,1.2,0.9c0,0,1.9,1.9,2.5,3.1
						C29.2,16.7,30.7,12.6,30.3,10.2"/>
				</g>
				<g>
					<path class="st5" d="M14.7,12.8L14.7,12.8L14.7,12.8z"/>
					<path class="st5" d="M9.7,10.2c-0.4,2.4,1.2,6.5,1.2,6.5c0.7-1.2,1.5-2.2,2.6-3.1l0,0l0,0c0.7-0.6,1.3-0.9,1.3-0.9
						c-2.9-3.3-4.6-3.5-4.6-3.5C9.9,9.5,9.7,9.8,9.7,10.2"/>
				</g>
				<path class="st3" d="M24.9,19c0,0-1.3,0.1-1.2-1c0.2-1.1,1.2-1.2,1.5-1.2s1.5,0.5,1.3,1.4S26,18.9,25.8,19
					C25.7,19,24.9,19,24.9,19z M15,19c0,0-1.3,0.1-1.2-1c0.2-1.1,1.2-1.2,1.5-1.2s1.5,0.5,1.3,1.4c-0.2,0.9-0.5,0.7-0.7,0.8
					C15.8,19,15,19,15,19L15,19z"/>
			</g>
		</g>
	</g>
	<g>
		<g>
			<defs>
				<path id="SVGID_00000123401739636653047030000014205263017219295420_" d="M20,0L20,0c11,0,20,9,20,20l0,0c0,11-9,20-20,20l0,0
					C9,40,0,31,0,20l0,0C0,9,9,0,20,0z"/>
			</defs>
			<clipPath id="SVGID_00000110454478653390561630000000190104691787504828_">
				<use xlink:href="#SVGID_00000123401739636653047030000014205263017219295420_"  style="overflow:visible;"/>
			</clipPath>
			<path style="clip-path:url(#SVGID_00000110454478653390561630000000190104691787504828_);" d="M27.4,21.4c0,0.1-0.2,0.3-0.4,0.4
				c-0.6,0.4-1.6,0.9-2.7,1.1c-0.6,0.1-1.2,0.1-1.4,0c-0.1-0.1-0.1-0.1-0.1-0.3c0.1-0.3,0.4-0.7,0.8-1c0.2-0.2,1.1-0.8,1.6-1
				c0.7-0.4,1.3-0.6,1.7-0.7c0.1,0,0.3,0,0.3,0c0.1,0,0.2,0.3,0.2,0.5S27.4,21.2,27.4,21.4z M17.5,22.8c0,0.1-0.2,0.1-0.3,0.1
				c-0.1,0-0.6,0-0.8,0c-0.9-0.1-1.8-0.4-2.5-0.8c-0.4-0.2-0.7-0.4-0.9-0.6l-0.1-0.1v-0.2c0-0.3,0-0.7,0-0.9c0-0.1,0.1-0.3,0.1-0.4
				c0,0,0,0,0.2,0s0.3,0,0.6,0.1c0.5,0.2,1.3,0.6,2.2,1.2c0.8,0.5,1.1,0.7,1.3,1C17.4,22.4,17.5,22.7,17.5,22.8z"/>
		</g>
	</g>
	<g>
		<g>
			<defs>
				<path id="SVGID_00000052806399577331036970000002424895316526838451_" d="M20,0L20,0c11,0,20,9,20,20l0,0c0,11-9,20-20,20l0,0
					C9,40,0,31,0,20l0,0C0,9,9,0,20,0z"/>
			</defs>
			<clipPath id="SVGID_00000063594701040624478040000011369912958840186527_">
				<use xlink:href="#SVGID_00000052806399577331036970000002424895316526838451_"  style="overflow:visible;"/>
			</clipPath>
			<g style="clip-path:url(#SVGID_00000063594701040624478040000011369912958840186527_);">
				<path class="st8" d="M22,20c0-6.1,4.9-11,11-11h4c6.1,0,11,4.9,11,11l0,0c0,6.1-4.9,11-11,11h-4C26.9,31,22,26.1,22,20L22,20z"
					/>
				<path class="st9" d="M33,8h4c6.6,0,12,5.4,12,12s-5.4,12-12,12h-4c-6.6,0-12-5.4-12-12S26.4,8,33,8z M33,9c-6.1,0-11,4.9-11,11
					s4.9,11,11,11h4c6.1,0,11-4.9,11-11S43.1,9,37,9H33z"/>
				<path class="st3" d="M26,26h1.8l3.7-6l3.7,6H37l-4.8-7.5H37V17h-4.7v-1.5H37V14H26v1.5h4.7V17H26v1.5h4.7L26,26z"/>
			</g>
		</g>
	</g>
	<g>
		<g>
			<defs>
				<path id="SVGID_00000005946497363402859230000005615307569332789682_" d="M20,0L20,0c11,0,20,9,20,20l0,0c0,11-9,20-20,20l0,0
					C9,40,0,31,0,20l0,0C0,9,9,0,20,0z"/>
			</defs>
			<clipPath id="SVGID_00000033332169132553339870000010647829666950970500_">
				<use xlink:href="#SVGID_00000005946497363402859230000005615307569332789682_"  style="overflow:visible;"/>
			</clipPath>
			<path style="clip-path:url(#SVGID_00000033332169132553339870000010647829666950970500_);" d="M18.5,31.5
				c-0.3-0.5-0.6-1.1-0.9-1.6c-0.1-0.1-0.1-0.2-0.2-0.2s-0.2,0-0.2,0c-0.2,0-0.1-0.6,0.1-0.6c0.4,0,0.8,0,1.1,0
				c0.6,0,1.1-0.1,1.6-0.3c0.1,0,0.1-0.1,0.1-0.1c0-0.3,0-0.5,0-0.8c0-0.1,0-0.1-0.1-0.2c-0.8-0.4-1.2-1.1-1.2-1.9
				c0-0.3,0.1-0.5,0.4-0.7c0.5-0.3,2.1-0.1,2.3,0c0.4,0.2,0.6,0.5,0.5,1c-0.1,0.8-0.5,1.4-1.2,1.7c-0.1,0-0.1,0.1-0.1,0.2
				c0,0.2,0,0.5,0,0.7c0,0.1,0,0.2,0.2,0.2c0.8,0.2,1.6,0.3,2.4,0.3c0.1,0,0.2,0,0.3,0c0.2,0,0.3,0.1,0.3,0.3c0,0.2-0.1,0.3-0.2,0.3
				l0,0c-0.4,0-0.5,0.2-0.6,0.5c-0.2,0.4-0.6,1.2-0.8,1.4c0-0.5,0.1-1,0.1-1.6c0-0.1,0-0.2-0.2-0.2c-0.5-0.1-1.1-0.2-1.6-0.3
				c-0.1,0-0.2,0-0.2,0c-0.5,0.2-1.1,0.3-1.6,0.3c-0.1,0-0.2,0.1-0.2,0.2C18.5,30.3,18.5,30.9,18.5,31.5L18.5,31.5z"/>
		</g>
	</g>
	<g>
		<g>
			<defs>
				<path id="SVGID_00000039816363424247413270000006849045369296610699_" d="M20,0L20,0c11,0,20,9,20,20l0,0c0,11-9,20-20,20l0,0
					C9,40,0,31,0,20l0,0C0,9,9,0,20,0z"/>
			</defs>
			<clipPath id="SVGID_00000157271450127661421840000008478210895111190677_">
				<use xlink:href="#SVGID_00000039816363424247413270000006849045369296610699_"  style="overflow:visible;"/>
			</clipPath>
			<path style="clip-path:url(#SVGID_00000157271450127661421840000008478210895111190677_);" d="M20.3,31.4c-0.3,0-0.5,0-0.8-0.1
				c-0.2,0-0.4-0.2-0.3-0.3c0-0.2,0.2-0.3,0.4-0.2c0.5,0.1,1,0.1,1.5,0c0.2,0,0.4,0,0.4,0.2s-0.1,0.3-0.3,0.3
				C20.9,31.4,20.6,31.4,20.3,31.4z"/>
		</g>
	</g>
</g>
</svg>
