<?xml version="1.0" encoding="utf-8"?>
<!-- Generator: Adobe Illustrator 27.7.0, SVG Export Plug-In . SVG Version: 6.00 Build 0)  -->
<svg version="1.1" id="Layer_1" xmlns="http://www.w3.org/2000/svg" xmlns:xlink="http://www.w3.org/1999/xlink" x="0px" y="0px"
	 viewBox="0 0 40 40" style="enable-background:new 0 0 40 40;" xml:space="preserve">
<style type="text/css">
	.st0{clip-path:url(#SVGID_00000001630601484410284860000005994751488092755852_);}
	.st1{fill:#D80027;}
	.st2{fill:#F0F0F0;}
	.st3{opacity:0.1;enable-background:new    ;}
	.st4{fill:#FFFFFF;}
	.st5{fill:#EE2233;}
</style>
<g>
	<defs>
		<path id="SVGID_1_" d="M20,0L20,0c11,0,20,9,20,20l0,0c0,11-9,20-20,20l0,0C9,40,0,31,0,20l0,0C0,9,9,0,20,0z"/>
	</defs>
	<clipPath id="SVGID_00000048485438594674655760000004254836125638990523_">
		<use xlink:href="#SVGID_1_"  style="overflow:visible;"/>
	</clipPath>
	<g style="clip-path:url(#SVGID_00000048485438594674655760000004254836125638990523_);">
		<path class="st1" d="M20,43c13.2,0,23.8-10.7,23.8-23.8C43.8,6.1,33.2-4.6,20-4.6S-3.8,6.1-3.8,19.2C-3.8,32.4,6.8,43,20,43z"/>
		<path class="st2" d="M32.2,14.9l2,2.7l3.2-1l-2,2.7l2,2.7l-3.2-1l-2,2.7l0-3.3l-3.2-1l3.2-1L32.2,14.9z"/>
		<path class="st2" d="M13.7,26C10,26,7,22.9,7,19.2c0-3.7,3-6.7,6.7-6.7c1.2,0,2.3,0.3,3.2,0.8c-1.5-1.5-3.5-2.4-5.8-2.4
			c-4.6,0-8.3,3.7-8.3,8.3c0,4.6,3.7,8.3,8.3,8.3c2.3,0,4.3-0.9,5.8-2.4C15.9,25.7,14.8,26,13.7,26L13.7,26z"/>
		<path class="st3" d="M20,40c11,0,20-9,20-20S31,0,20,0S0,9,0,20S9,40,20,40z"/>
		<path class="st4" d="M26.7,33.2l-6.8-10.8l-6.8,10.8l-7.3,0l9.8-15.4H7.1V5.5h25.8v12.3h-8.5l9.9,15.4L26.7,33.2z"/>
		<path class="st5" d="M8.6,31.7h3.7l7.7-12.3l7.7,12.3h3.7l-9.9-15.4h9.8v-3h-9.8v-3.1h9.8V7H8.6v3h9.8v3.1H8.6v3h9.8L8.6,31.7z"/>
	</g>
</g>
</svg>
