<?xml version="1.0" encoding="utf-8"?>
<!-- Generator: Adobe Illustrator 27.7.0, SVG Export Plug-In . SVG Version: 6.00 Build 0)  -->
<svg version="1.1" id="Layer_1" xmlns="http://www.w3.org/2000/svg" xmlns:xlink="http://www.w3.org/1999/xlink" x="0px" y="0px"
	 viewBox="0 0 40 40" style="enable-background:new 0 0 40 40;" xml:space="preserve">
<style type="text/css">
	.st0{clip-path:url(#SVGID_00000022557440207070695290000006534833233926415527_);}
	.st1{fill:#D80027;}
	.st2{fill:#0052B4;}
	.st3{fill:#F0F0F0;}
	.st4{opacity:0.1;enable-background:new    ;}
	.st5{fill:#FFFFFF;}
	.st6{fill:#EE2233;}
</style>
<g>
	<defs>
		<path id="SVGID_1_" d="M20,0L20,0c11,0,20,9,20,20l0,0c0,11-9,20-20,20l0,0C9,40,0,31,0,20l0,0C0,9,9,0,20,0z"/>
	</defs>
	<clipPath id="SVGID_00000159433732777295259200000014742629606280789157_">
		<use xlink:href="#SVGID_1_"  style="overflow:visible;"/>
	</clipPath>
	<g style="clip-path:url(#SVGID_00000159433732777295259200000014742629606280789157_);">
		<path class="st1" d="M40.8,20.4c0,11.5-9.3,20.8-20.8,20.8S-0.8,31.9-0.8,20.4C6.4,13.3,12.4,7.2,20-0.4
			C31.5-0.4,40.8,8.9,40.8,20.4z"/>
		<path class="st2" d="M20,20.4c0-11.5,0-12.8,0-20.8C8.5-0.4-0.8,8.9-0.8,20.4H20z"/>
		<path class="st3" d="M15.2,11.8l-2.5,1.2l1.4,2.5l-2.8-0.5l-0.3,2.8l-1.9-2l-1.9,2l-0.3-2.8l-2.8,0.5l1.4-2.5l-2.5-1.2l2.5-1.2
			L3.9,8.1l2.8,0.5L7,5.9l1.9,2l1.9-2l0.3,2.8L14,8.1l-1.4,2.5L15.2,11.8z"/>
		<path class="st4" d="M20,40c11,0,20-9,20-20S31,0,20,0S0,9,0,20S9,40,20,40z"/>
		<path class="st5" d="M26.7,33.2l-6.8-10.8l-6.8,10.8l-7.3,0l9.8-15.4H7.1V5.5h25.8v12.3h-8.5l9.9,15.4L26.7,33.2z"/>
		<path class="st6" d="M8.6,31.7h3.7l7.7-12.3l7.7,12.3h3.7l-9.9-15.4h9.8v-3h-9.8v-3.1h9.8V7H8.6v3h9.8v3.1H8.6v3h9.8L8.6,31.7z"/>
	</g>
</g>
</svg>
