<?xml version="1.0" encoding="utf-8"?>
<!-- Generator: Adobe Illustrator 27.7.0, SVG Export Plug-In . SVG Version: 6.00 Build 0)  -->
<svg version="1.1" id="Layer_1" xmlns="http://www.w3.org/2000/svg" xmlns:xlink="http://www.w3.org/1999/xlink" x="0px" y="0px"
	 viewBox="0 0 40 40" style="enable-background:new 0 0 40 40;" xml:space="preserve">
<style type="text/css">
	.st0{clip-path:url(#SVGID_00000085964675169972760190000015773142031711723695_);}
	.st1{fill:#F0F0F0;}
	.st2{fill:#0052B4;}
	.st3{fill:#D80027;}
	.st4{opacity:0.1;enable-background:new    ;}
	.st5{fill:#FFFFFF;}
	.st6{fill:#EE2233;}
</style>
<g>
	<defs>
		<path id="SVGID_1_" d="M20,0L20,0c11,0,20,9,20,20l0,0c0,11-9,20-20,20l0,0C9,40,0,31,0,20l0,0C0,9,9,0,20,0z"/>
	</defs>
	<clipPath id="SVGID_00000083060332811519065130000017412978607318832559_">
		<use xlink:href="#SVGID_1_"  style="overflow:visible;"/>
	</clipPath>
	<g style="clip-path:url(#SVGID_00000083060332811519065130000017412978607318832559_);">
		<path class="st1" d="M20,40.2c11.2,0,20.2-9.1,20.2-20.2C40.2,8.8,31.2-0.2,20-0.2C8.8-0.2-0.2,8.8-0.2,20
			C-0.2,31.2,8.8,40.2,20,40.2z"/>
		<path class="st2" d="M39,13H1c-0.8,2.2-1.3,4.6-1.3,7s0.4,4.8,1.3,7h38c0.8-2.2,1.3-4.6,1.3-7S39.8,15.2,39,13z"/>
		<path class="st3" d="M20-0.2c-6.1,0-11.6,2.7-15.3,7h30.7C31.6,2.5,26.1-0.2,20-0.2L20-0.2z"/>
		<path class="st3" d="M35.3,33.2H4.7c3.7,4.3,9.2,7,15.3,7C26.1,40.2,31.6,37.5,35.3,33.2z"/>
		<path class="st4" d="M20,40c11,0,20-9,20-20S31,0,20,0S0,9,0,20S9,40,20,40z"/>
		<path class="st5" d="M26.7,33.2l-6.8-10.8l-6.8,10.8l-7.3,0l9.8-15.4H7.1V5.5h25.8v12.3h-8.5l9.9,15.4L26.7,33.2z"/>
		<path class="st6" d="M8.6,31.7h3.7l7.7-12.3l7.7,12.3h3.7l-9.9-15.4h9.8v-3h-9.8v-3.1h9.8V7H8.6v3h9.8v3.1H8.6v3h9.8L8.6,31.7z"/>
	</g>
</g>
</svg>
