<?xml version="1.0" encoding="utf-8"?>
<!-- Generator: Adobe Illustrator 27.7.0, SVG Export Plug-In . SVG Version: 6.00 Build 0)  -->
<svg version="1.1" id="Layer_1" xmlns="http://www.w3.org/2000/svg" xmlns:xlink="http://www.w3.org/1999/xlink" x="0px" y="0px"
	 viewBox="0 0 40 40" style="enable-background:new 0 0 40 40;" xml:space="preserve">
<style type="text/css">
	.st0{clip-path:url(#SVGID_00000095337132021761400090000000292090821196868262_);}
	.st1{fill:#23292F;}
	.st2{fill:#FFFFFF;}
	.st3{fill:#EE2233;}
	.st4{fill-rule:evenodd;clip-rule:evenodd;fill:#FFFFFF;}
</style>
<g>
	<defs>
		<path id="SVGID_1_" d="M20,0L20,0c11,0,20,9,20,20l0,0c0,11-9,20-20,20l0,0C9,40,0,31,0,20l0,0C0,9,9,0,20,0z"/>
	</defs>
	<clipPath id="SVGID_00000050629007634471459440000006725386409028134303_">
		<use xlink:href="#SVGID_1_"  style="overflow:visible;"/>
	</clipPath>
	<g style="clip-path:url(#SVGID_00000050629007634471459440000006725386409028134303_);">
		<path class="st1" d="M20,0c11,0,20,9,20,20c0,11-9,20-20,20C9,40,0,31,0,20C0,9,9,0,20,0z"/>
		<path class="st2" d="M29.3,9.1h3.8L25.2,17c-2.9,2.8-7.5,2.8-10.4,0L6.9,9.1h3.8l6,5.9c0.9,0.9,2.1,1.3,3.3,1.3
			c1.2,0,2.4-0.5,3.3-1.3L29.3,9.1z"/>
		<path class="st2" d="M10.7,30.9H6.9l7.9-7.9c2.9-2.8,7.5-2.8,10.4,0l7.9,7.9h-3.8l-6-6c-0.9-0.9-2.1-1.3-3.3-1.3
			c-1.2,0-2.4,0.5-3.3,1.3L10.7,30.9z"/>
		<g>
			<path class="st3" d="M22,20c0-6.1,4.9-11,11-11h4c6.1,0,11,4.9,11,11l0,0c0,6.1-4.9,11-11,11h-4C26.9,31,22,26.1,22,20L22,20z"/>
			<path class="st4" d="M33,8h4c6.6,0,12,5.4,12,12s-5.4,12-12,12h-4c-6.6,0-12-5.4-12-12S26.4,8,33,8z M33,9c-6.1,0-11,4.9-11,11
				s4.9,11,11,11h4c6.1,0,11-4.9,11-11S43.1,9,37,9H33z"/>
			<path class="st2" d="M26,26h1.8l3.7-6l3.7,6H37l-4.8-7.5H37V17h-4.7v-1.5H37V14H26v1.5h4.7V17H26v1.5h4.7L26,26z"/>
		</g>
	</g>
</g>
</svg>
