<?xml version="1.0" encoding="utf-8"?>
<!-- Generator: Adobe Illustrator 24.3.0, SVG Export Plug-In . SVG Version: 6.00 Build 0)  -->
<svg version="1.1" id="Layer_1" xmlns="http://www.w3.org/2000/svg" xmlns:xlink="http://www.w3.org/1999/xlink" x="0px" y="0px"
	 viewBox="0 0 151 200" style="enable-background:new 0 0 151 200;" xml:space="preserve">
<style type="text/css">
	.st0{fill:#E3232C;}
</style>
<g>
	<g>
		<path class="st0" d="M39.8,141c10.6,5.8,22.8,9,35.7,9c12.9,0,25.1-3.3,35.7-9L75.5,87.8L39.8,141z"/>
		<path class="st0" d="M29.6,74.9V62.6h39.7V49.9H29.6V37.6h91.7v12.3H81.7v12.7h39.7v12.3H81.7l39.9,59.4
			c17.6-13.7,29-35.2,29-59.3c0-41.4-33.6-75-75-75c-41.4,0-75,33.6-75,75c0,24.1,11.4,45.5,29,59.3l39.9-59.4H29.6z"/>
	</g>
	<g>
		<path class="st0" d="M29.1,179H33c0,1.9,1.4,3.8,5.2,3.8c3.4,0,5.1-1.6,5.1-3.6c0-1.6-1.4-2.7-4.3-3l-2.1-0.2
			c-4.2-0.3-6.9-2.7-6.9-6.4c0-4.2,3.2-6.9,8-6.9c4.9,0,8.1,2.8,8.1,7.1h-3.9c0-1.9-1.3-3.6-4.2-3.6c-2.8,0-4.2,1.6-4.2,3.4
			c0,1.5,1.1,2.7,3.4,2.9l2.1,0.2c4.7,0.4,7.8,2.7,7.8,6.5c0,4.2-3.5,7-8.9,7C32.4,186.3,29.1,183.2,29.1,179z"/>
		<path class="st0" d="M50.6,174.8v-0.7c0-5.4,3.9-11.4,11.7-11.4c7.8,0,11.7,6,11.7,11.4v0.7c0,4.9-3.7,11.4-11.7,11.4
			C54.3,186.3,50.6,179.8,50.6,174.8z M70,174.5c0-4.6-3-8.1-7.7-8.1c-4.8,0-7.7,3.5-7.7,8.1c0,4.3,3,8.1,7.7,8.1
			C67,182.6,70,178.8,70,174.5z"/>
		<path class="st0" d="M93.2,185.7l-5.5-7.6h-0.2h-4v7.6h-3.9v-22.4h8c5.2,0,8.5,2.3,8.5,7.2v0.5c0,3.4-1.6,5.5-4.3,6.5l6.1,8.3
			H93.2L93.2,185.7z M83.5,174.8H88c2.5,0,4.1-1.6,4.1-4.1c0-2.4-1.6-4.1-4.1-4.1h-4.5V174.8z"/>
		<path class="st0" d="M115.7,179.5h-9.9l-2.1,6.1h-3.9l7.7-22.3h6.5l8,22.3h-4.1L115.7,179.5z M114.5,176.2l-3.3-9.4h-1.1l-3.2,9.4
			H114.5z"/>
	</g>
	<g>
		<path class="st0" d="M99.7,190.5l1.6-0.7c0.7,1.5,1.4,3,2.1,4.5l-1.7,0.6C101.2,193.7,100.5,192.2,99.7,190.5z M110.1,189.8
			c-0.1,2.2-0.4,4.1-0.9,5.4c-0.6,1.4-1.4,2.4-2.6,3.1c-1.2,0.7-2.8,1.2-4.8,1.4l-0.3-1.6c1.3-0.2,2.4-0.5,3.2-0.8
			c0.8-0.3,1.5-0.9,2.1-1.5c0.6-0.7,1-1.5,1.2-2.5c0.2-1,0.4-2.2,0.4-3.7L110.1,189.8z"/>
		<path class="st0" d="M111.6,193.1l10.2,0l0,0.3c0,2.1-0.7,3.6-2,4.7c-1.3,1.1-3.4,1.7-6.1,1.9l-0.3-1.6c1.9-0.1,3.4-0.5,4.5-1
			c1.1-0.6,1.8-1.5,2-2.7l-8.3,0L111.6,193.1z M112.6,191.3l0-1.6l8.5,0l0,1.6L112.6,191.3z"/>
	</g>
</g>
</svg>
