<?xml version="1.0" encoding="utf-8"?>
<!-- Generator: Adobe Illustrator 24.3.0, SVG Export Plug-In . SVG Version: 6.00 Build 0)  -->
<svg version="1.1" id="Layer_1" xmlns="http://www.w3.org/2000/svg" xmlns:xlink="http://www.w3.org/1999/xlink" x="0px" y="0px"
	 viewBox="0 0 200 68" style="enable-background:new 0 0 200 68;" xml:space="preserve">
<style type="text/css">
	.st0{fill:#E3232C;}
</style>
<g>
	<g>
		<path class="st0" d="M170.5,55.2l2.2-0.9c1,2,1.9,4.1,2.8,6.1l-2.2,0.8C172.4,59.5,171.5,57.5,170.5,55.2z M184.3,54.3
			c-0.1,3-0.5,5.4-1.3,7.2c-0.8,1.8-1.9,3.2-3.5,4.2c-1.6,0.9-3.7,1.6-6.4,1.9l-0.4-2.1c1.7-0.3,3.2-0.6,4.3-1.1
			c1.1-0.5,2-1.1,2.8-2c0.7-0.9,1.3-2,1.6-3.3c0.3-1.3,0.5-2.9,0.6-4.9L184.3,54.3z"/>
		<path class="st0" d="M186.4,58.7l13.6,0l0,0.4c0,2.8-0.9,4.9-2.7,6.3c-1.8,1.5-4.5,2.3-8.2,2.5l-0.3-2.1c2.5-0.1,4.5-0.6,6-1.4
			c1.5-0.8,2.4-2,2.7-3.7l-11.1,0L186.4,58.7z M187.6,56.3l0-2.1l11.3,0l0,2.1L187.6,56.3z"/>
	</g>
	<g>
		<path class="st0" d="M17.7,63.6c4.8,2.6,10.3,4.1,16.1,4.1c5.8,0,11.3-1.5,16.1-4.1l-16.1-24L17.7,63.6z"/>
		<path class="st0" d="M13.1,33.8v-5.5H31v-5.7H13.1V17h41.3v5.5H36.5v5.7h17.9v5.5H36.5l17.9,26.7c7.9-6.2,13.1-15.8,13.1-26.7
			c0-18.7-15.1-33.8-33.8-33.8C15.1,0.1,0,15.2,0,33.8c0,10.8,5.1,20.5,13.1,26.7L31,33.8H13.1z"/>
	</g>
	<g>
		<path class="st0" d="M76.3,39.1h5.2c0,2.5,1.8,5.1,6.9,5.1c4.6,0,6.8-2.2,6.8-4.8c0-2.2-1.9-3.6-5.7-4l-2.8-0.2
			c-5.6-0.4-9.2-3.6-9.2-8.5c0-5.6,4.2-9.2,10.7-9.2c6.6,0,10.8,3.7,10.8,9.4h-5.2c0-2.5-1.8-4.8-5.6-4.8c-3.8,0-5.6,2.2-5.6,4.6
			c0,2,1.4,3.6,4.5,3.8l2.8,0.2c6.3,0.6,10.4,3.5,10.4,8.7c0,5.6-4.7,9.4-11.9,9.4C80.6,48.8,76.3,44.8,76.3,39.1z"/>
		<path class="st0" d="M105,33.6v-0.9c0-7.2,5.2-15.2,15.6-15.2c10.4,0,15.6,8,15.6,15.2v0.9c0,6.6-4.9,15.3-15.6,15.3
			C109.9,48.8,105,40.2,105,33.6z M130.8,33.2c0-6.1-3.9-10.8-10.3-10.8c-6.3,0-10.3,4.7-10.3,10.8c0,5.8,3.9,10.8,10.3,10.8
			C126.9,43.9,130.8,38.9,130.8,33.2z"/>
		<path class="st0" d="M161.8,48.1l-7.3-10.2h-0.3h-5.4v10.2h-5.2V18.1h10.6c7,0,11.4,3.1,11.4,9.6v0.7c0,4.5-2.2,7.4-5.8,8.7
			l8.1,11H161.8L161.8,48.1z M148.9,33.5h6c3.3,0,5.5-2.2,5.5-5.4c0-3.2-2.1-5.5-5.5-5.5h-6V33.5z"/>
		<path class="st0" d="M191.7,39.9h-13.3l-2.8,8.2h-5.2l10.3-29.7h8.6L200,48.1h-5.4L191.7,39.9z M190.2,35.4l-4.4-12.6h-1.5
			L180,35.4H190.2z"/>
	</g>
</g>
</svg>
