<?xml version="1.0" encoding="utf-8"?>
<!-- Generator: Adobe Illustrator 24.3.0, SVG Export Plug-In . SVG Version: 6.00 Build 0)  -->
<svg version="1.1" id="Layer_1" xmlns="http://www.w3.org/2000/svg" xmlns:xlink="http://www.w3.org/1999/xlink" x="0px" y="0px"
	 viewBox="0 0 200 42" style="enable-background:new 0 0 200 42;" xml:space="preserve">
<style type="text/css">
	.st0{fill:#E3232C;}
</style>
<g>
	<line class="st0" x1="115.6" y1="11.3" x2="116.8" y2="11.3"/>
	<rect x="119" y="21.9" class="st0" width="2.8" height="1.3"/>
	<g>
		<path class="st0" d="M171.1,22.1l2.1-0.9c1,2,1.9,4,2.7,5.9l-2.2,0.8C173.1,26.3,172.2,24.3,171.1,22.1z M184.7,21.2
			c-0.1,2.9-0.5,5.3-1.2,7.1c-0.7,1.8-1.9,3.1-3.4,4.1c-1.5,0.9-3.6,1.6-6.2,1.9l-0.4-2.1c1.7-0.2,3.1-0.6,4.2-1
			c1.1-0.5,2-1.1,2.7-2c0.7-0.9,1.3-1.9,1.6-3.2c0.3-1.3,0.5-2.9,0.6-4.8L184.7,21.2z"/>
		<path class="st0" d="M186.7,25.6l13.3,0l0,0.4c0,2.7-0.9,4.8-2.6,6.2c-1.7,1.4-4.4,2.2-8,2.4l-0.3-2c2.5-0.1,4.4-0.6,5.8-1.4
			c1.4-0.8,2.3-2,2.6-3.6l-10.9,0L186.7,25.6z M187.9,23.2l0-2l11.1,0l0,2L187.9,23.2z"/>
	</g>
	<g>
		<path class="st0" d="M10.9,39.2c2.9,1.6,6.3,2.5,9.9,2.5c3.6,0,6.9-0.9,9.9-2.5l-9.9-14.7L10.9,39.2z"/>
		<path class="st0" d="M8.1,21v-3.4h11v-3.5h-11v-3.4h25.4v3.4h-11v3.5h11V21h-11l11,16.4c4.9-3.8,8-9.7,8-16.4
			c0-11.5-9.3-20.7-20.7-20.7C9.3,0.3,0,9.5,0,21c0,6.7,3.1,12.6,8,16.4L19,21H8.1z"/>
	</g>
	<g>
		<path class="st0" d="M51.4,26.7H56c0,2.2,1.6,4.5,6.1,4.5c4.1,0,6-1.9,6-4.3c0-2-1.7-3.2-5.1-3.5l-2.5-0.2c-5-0.4-8.1-3.2-8.1-7.6
			c0-5,3.8-8.2,9.5-8.2c5.8,0,9.6,3.3,9.6,8.4h-4.6c0-2.2-1.6-4.3-5-4.3c-3.4,0-5,1.9-5,4.1c0,1.7,1.3,3.2,4,3.4l2.5,0.2
			c5.6,0.5,9.3,3.1,9.3,7.7c0,5-4.2,8.4-10.6,8.4C55.2,35.3,51.4,31.7,51.4,26.7z"/>
		<path class="st0" d="M76.9,21.7v-0.8c0-6.4,4.6-13.5,13.9-13.5c9.2,0,13.9,7.1,13.9,13.5v0.8c0,5.9-4.4,13.6-13.9,13.6
			C81.2,35.3,76.9,27.6,76.9,21.7z M99.9,21.3c0-5.4-3.5-9.6-9.1-9.6c-5.6,0-9.2,4.2-9.2,9.6c0,5.1,3.5,9.6,9.2,9.6
			C96.4,30.9,99.9,26.5,99.9,21.3z"/>
		<path class="st0" d="M127.4,34.6l-6.5-9h-0.3h-4.8v9h-4.7V8h9.4c6.2,0,10.1,2.7,10.1,8.5v0.6c0,4-1.9,6.6-5.1,7.7l7.2,9.8H127.4
			L127.4,34.6z M115.9,21.7h5.4c3,0,4.9-2,4.9-4.8c0-2.9-1.9-4.8-4.9-4.8h-5.4V21.7z"/>
		<path class="st0" d="M154.1,27.3h-11.8l-2.5,7.3h-4.7l9.2-26.4h7.7l9.4,26.4h-4.8L154.1,27.3z M152.7,23.3l-3.9-11.2h-1.3
			l-3.8,11.2H152.7z"/>
	</g>
</g>
</svg>
