<?xml version="1.0" encoding="utf-8"?>
<!-- Generator: Adobe Illustrator 24.3.0, SVG Export Plug-In . SVG Version: 6.00 Build 0)  -->
<svg version="1.1" id="Layer_1" xmlns="http://www.w3.org/2000/svg" xmlns:xlink="http://www.w3.org/1999/xlink" x="0px" y="0px"
	 viewBox="0 0 146 200" style="enable-background:new 0 0 146 200;" xml:space="preserve">
<style type="text/css">
	.st0{fill:#E3232C;}
</style>
<g>
	<g>
		<path class="st0" d="M28.5,161.7l6.6-2.8c2.9,6.1,5.7,12.2,8.3,18.2l-6.7,2.6C34.4,174.5,31.7,168.5,28.5,161.7z M70.2,158.8
			c-0.2,9-1.5,16.3-3.8,21.8c-2.3,5.5-5.8,9.7-10.5,12.5c-4.7,2.8-11.1,4.8-19.2,5.8l-1.3-6.4c5.2-0.8,9.5-1.8,12.9-3.2
			c3.3-1.4,6.1-3.4,8.3-6.1c2.2-2.7,3.9-6,4.9-9.9c1-3.9,1.6-8.9,1.7-14.9L70.2,158.8z"/>
		<path class="st0" d="M76.4,172.2l41.1,0l0,1.2c0,8.3-2.7,14.7-8,19.1c-5.4,4.4-13.6,6.9-24.7,7.5l-1-6.3c7.6-0.4,13.7-1.8,18-4.2
			c4.4-2.4,7.1-6.1,8.1-11l-33.5,0L76.4,172.2z M80.2,164.9l0-6.3l34.1,0l0,6.3L80.2,164.9z"/>
	</g>
	<g>
		<path class="st0" d="M38.3,136.9c10.3,5.6,22.1,8.8,34.7,8.8c12.6,0,24.4-3.2,34.7-8.8L73,85.3L38.3,136.9z"/>
		<path class="st0" d="M28.5,72.8v-12H67V48.5H28.5v-12h89.1v12H79v12.3h38.6v12H79l38.7,57.6c17.1-13.3,28.2-34.1,28.2-57.5
			C145.9,32.6,113.2,0,73,0C32.8,0,0.1,32.6,0.1,72.9c0,23.4,11,44.2,28.2,57.5L67,72.8H28.5z"/>
	</g>
</g>
</svg>
