<?xml version="1.0" encoding="utf-8"?>
<!-- Generator: Adobe Illustrator 24.3.0, SVG Export Plug-In . SVG Version: 6.00 Build 0)  -->
<svg version="1.1" id="Layer_1" xmlns="http://www.w3.org/2000/svg" xmlns:xlink="http://www.w3.org/1999/xlink" x="0px" y="0px"
	 viewBox="0 0 200 79" style="enable-background:new 0 0 200 79;" xml:space="preserve">
<style type="text/css">
	.st0{fill:#E3232C;}
</style>
<g>
	<g>
		<path class="st0" d="M96.8,19.4l7.6-3.2c3.4,7.1,6.6,14.2,9.7,21.2l-7.8,3C103.6,34.3,100.5,27.4,96.8,19.4z M145.1,16.1
			c-0.3,10.5-1.8,18.9-4.4,25.3c-2.7,6.4-6.7,11.2-12.2,14.5c-5.5,3.3-12.9,5.6-22.3,6.8l-1.5-7.4c6.1-0.9,11.1-2.1,14.9-3.7
			c3.9-1.6,7.1-4,9.7-7.1c2.6-3.1,4.5-6.9,5.7-11.5c1.1-4.6,1.8-10.3,2-17.2L145.1,16.1z"/>
		<path class="st0" d="M152.4,31.7l47.6,0l0,1.4c0,9.6-3.1,17-9.3,22.1c-6.2,5.1-15.8,8-28.7,8.7l-1.2-7.3
			c8.9-0.5,15.8-2.1,20.9-4.9c5.1-2.8,8.2-7.1,9.4-12.8l-38.8,0L152.4,31.7z M156.8,23.2l0-7.3l39.5,0l0,7.3L156.8,23.2z"/>
	</g>
	<g>
		<path class="st0" d="M20.5,73.8c5.5,3,11.9,4.7,18.6,4.7c6.7,0,13.1-1.7,18.6-4.7L39,46.2L20.5,73.8z"/>
		<path class="st0" d="M15.2,39.4V33h20.7v-6.6H15.2V20h47.7v6.4H42.3V33h20.7v6.4H42.3L63,70.3c9.2-7.1,15.1-18.3,15.1-30.8
			c0-21.6-17.5-39-39-39c-21.6,0-39,17.5-39,39C0,52,5.9,63.2,15.1,70.3l20.7-30.9H15.2z"/>
	</g>
</g>
</svg>
