<svg xmlns="http://www.w3.org/2000/svg" xml:space="preserve" viewBox="0 0 360 360">
  <path fill="#e23" d="M359.9 180.2c0 99.4-80.6 180-180 180s-180-80.6-180-180S80.5.2 179.9.2s180 80.6 180 180z"/>
  <linearGradient id="a" x1="9.9" x2="349.9" y1="181.8" y2="181.8" gradientTransform="matrix(1 0 0 -1 0 362)" gradientUnits="userSpaceOnUse">
    <stop offset="0" stop-color="#fff"/>
    <stop offset=".05" stop-color="#ff8000"/>
    <stop offset=".2" stop-color="#ff0"/>
    <stop offset=".4" stop-color="#00ff05"/>
    <stop offset=".6" stop-color="#06ffff"/>
    <stop offset=".8" stop-color="#00f"/>
    <stop offset=".95" stop-color="#f0f"/>
    <stop offset="1" stop-color="#fff"/>
  </linearGradient>
  <path fill="url(#a)" d="M300.1 60C268 27.9 225.3 10.2 179.9 10.2h-2.7c-44.4.7-86 18.3-117.4 49.8C27.6 92.1 9.9 134.8 9.9 180.2s17.7 88.1 49.8 120.2c31.5 31.5 73.1 49.1 117.5 49.8h2.7c45.4 0 88.1-17.7 120.2-49.8s49.8-74.8 49.8-120.2S332.2 92.1 300.1 60zM17.8 184.1h72.4c.5 26.1 5.6 51.3 15.2 75.2h-67c-12.5-22.4-19.9-48-20.6-75.2zm163.3-90.9v-71c24.1 19.6 43 43.9 55.9 71.1l-55.9-.1zm59.4 7.9c9.8 23.4 15.3 48.9 15.8 75.2h-75.1v-75.2h59.3zm-67.2-7.9h-56c12.8-27.2 31.8-51.5 56-71.1v71.1zm0 7.9v75.2H98.1c.5-26.3 5.9-51.8 15.8-75.2h59.4zm-83.1 75.1H17.8c.7-27.2 8.1-52.8 20.6-75.2h67c-9.6 23.9-14.7 49.1-15.2 75.2zm7.9 7.9h75.2v75.2h-59.4c-9.9-23.5-15.3-48.9-15.8-75.2zm75.2 83v71.1c-24.2-19.6-43.1-43.9-55.9-71.1h55.9zm7.8 0H237c-12.8 27.2-31.7 51.4-55.8 71l-.1-71zm0-7.8v-75.2h75.1c-.5 26.3-5.9 51.8-15.8 75.2h-59.3zm83-75.2H342c-.7 27.2-8.1 52.8-20.6 75.2h-72.6c9.7-23.9 14.8-49.1 15.3-75.2zm0-7.9c-.5-26.1-5.6-51.3-15.2-75.2h72.6c12.5 22.3 20 47.9 20.6 75.2h-78zm52.6-83h-71.3c-1.4-3.1-2.8-6.1-4.4-9.1-12.8-25.1-30.8-47.6-52.4-65.8 53.9 2.8 100.8 32.1 128.1 74.9zM165 18.7c-21.4 18.1-39.2 40.5-51.9 65.4-1.5 3-3 6-4.4 9.1H43.1C69.4 52 113.8 23.4 165 18.7zM43.1 267.1h65.7c1.4 3.1 2.8 6.1 4.4 9.1 12.7 24.9 30.5 47.3 51.9 65.4-51.3-4.6-95.7-33.2-122-74.5zm145.6 75c21.6-18.2 39.6-40.8 52.4-65.9 1.5-3 3-6 4.4-9.1h71.3c-27.4 42.9-74.3 72.1-128.1 75z"/>
  <path fill="#888" fill-opacity=".25" d="M179.9.2c99.4 0 180 80.6 180 180s-80.6 180-180 180-180-80.6-180-180S80.5.2 179.9.2z"/>
  <path fill="#fff" d="m241.1 304.9-61.2-97.6-61.6 97.6-65.9-.1 88.3-138.4H63.9v-111h232v111h-76.8l88.6 138.4-66.6.1z"/>
  <path fill="#e23" d="M166.2 152.4H77.9V125h88.3V96.8H77.9V69.4h204v27.4h-88.3V125h88.3v27.4h-88.3l88.6 139h-33L179.9 181l-69.4 110.3h-33l88.7-138.9z"/>
</svg>
