<?xml version="1.0" encoding="utf-8"?>
<svg version="1.1" xmlns="http://www.w3.org/2000/svg" xmlns:xlink="http://www.w3.org/1999/xlink" x="0px" y="0px"
	 viewBox="0 0 200 200" style="enable-background:new 0 0 200 200;" xml:space="preserve">
<g>
	<path fill="#FFFFFF" d="M200,100c0,55.2-44.8,100-100,100S0,155.2,0,100S44.8,0,100,0S200,44.8,200,100z"/>
	<path fill="#EE2233" d="M52.4,188c14.2,7.7,30.4,12,47.6,12c17.2,0,33.5-4.4,47.6-12L100,117L52.4,188z"/>
	<path fill="#EE2233" d="M38.9,99.9V83.4h52.9V66.5H38.9V50.1h122.3v16.4h-52.9v16.9h52.9v16.4h-52.9l53.1,79.1
		c23.5-18.3,38.7-46.9,38.7-79C200,44.8,155.2,0,100,0C44.8,0,0,44.8,0,100c0,32.1,15.1,60.7,38.7,79l53.1-79.1H38.9z"/>
</g>
</svg>
