<?xml version="1.0" encoding="utf-8"?>
<!-- Generator: Adobe Illustrator 24.3.0, SVG Export Plug-In . SVG Version: 6.00 Build 0)  -->
<svg version="1.1" id="Layer_1" xmlns="http://www.w3.org/2000/svg" xmlns:xlink="http://www.w3.org/1999/xlink" x="0px" y="0px"
	 viewBox="0 0 158 200" style="enable-background:new 0 0 158 200;" xml:space="preserve">
<style type="text/css">
	.st0{fill:#E3232C;}
</style>
<g>
	<g>
		<path class="st0" d="M48.6,121.7c9.2,5,19.7,7.8,30.8,7.8c11.2,0,21.7-2.8,30.8-7.8L79.4,75.8L48.6,121.7z"/>
		<path class="st0" d="M39.8,64.6V54h34.3V43.1H39.8V32.5H119v10.6H84.7V54H119v10.6H84.7l34.4,51.2c15.2-11.8,25-30.3,25-51.1
			C144.1,29,115.1,0,79.4,0C43.6,0,14.6,29,14.6,64.7c0,20.8,9.8,39.3,25,51.1l34.4-51.2H39.8z"/>
	</g>
	<g>
		<path class="st0" d="M0.5,167.5H7c0,3.2,2.3,6.5,8.7,6.5c5.8,0,8.6-2.7,8.6-6.1c0-2.8-2.4-4.6-7.2-5.1l-3.6-0.3
			c-7.1-0.6-11.6-4.6-11.6-10.8c0-7.1,5.4-11.7,13.6-11.7c8.3,0,13.7,4.7,13.7,12h-6.6c0-3.2-2.3-6.1-7.1-6.1
			c-4.8,0-7.1,2.7-7.1,5.8c0,2.5,1.8,4.5,5.7,4.9l3.6,0.3c8,0.7,13.2,4.5,13.2,11c0,7.1-5.9,11.9-15.1,11.9
			C5.9,179.8,0.5,174.7,0.5,167.5z"/>
		<path class="st0" d="M36.9,160.5v-1.1c0-9.1,6.6-19.3,19.8-19.3c13.2,0,19.8,10.1,19.8,19.3v1.1c0,8.4-6.3,19.4-19.8,19.4
			C43.1,179.8,36.9,168.8,36.9,160.5z M69.7,159.9c0-7.8-5-13.7-13-13.7c-8.1,0-13.1,5.9-13.1,13.7c0,7.3,5,13.7,13.1,13.7
			C64.7,173.6,69.7,167.3,69.7,159.9z"/>
		<path class="st0" d="M109,178.9l-9.2-12.9h-0.4h-6.8v12.9h-6.7v-38h13.5c8.8,0,14.5,3.9,14.5,12.1v0.8c0,5.7-2.7,9.4-7.3,11
			l10.3,14H109L109,178.9z M92.6,160.4h7.6c4.2,0,6.9-2.8,6.9-6.9c0-4.1-2.7-6.9-6.9-6.9h-7.6V160.4z"/>
		<path class="st0" d="M147,168.5h-16.8l-3.5,10.4H120l13.1-37.7h11l13.5,37.7h-6.9L147,168.5z M145,162.8l-5.6-16h-1.9l-5.4,16H145
			z"/>
	</g>
	<g>
		<path class="st0" d="M120,184.9l2.6-1.1c1.2,2.4,2.3,4.8,3.3,7.2l-2.7,1C122.4,189.9,121.3,187.6,120,184.9z M136.5,183.7
			c-0.1,3.6-0.6,6.4-1.5,8.6c-0.9,2.2-2.3,3.8-4.2,4.9c-1.9,1.1-4.4,1.9-7.6,2.3l-0.5-2.5c2.1-0.3,3.8-0.7,5.1-1.3
			c1.3-0.5,2.4-1.4,3.3-2.4c0.9-1.1,1.5-2.4,1.9-3.9c0.4-1.6,0.6-3.5,0.7-5.9L136.5,183.7z"/>
		<path class="st0" d="M141.3,189l16.2,0l0,0.5c0,3.3-1.1,5.8-3.2,7.5c-2.1,1.7-5.4,2.7-9.8,3l-0.4-2.5c3-0.2,5.4-0.7,7.1-1.7
			c1.7-0.9,2.8-2.4,3.2-4.4l-13.2,0L141.3,189z M142.8,186.1l0-2.5l13.5,0l0,2.5L142.8,186.1z"/>
	</g>
</g>
</svg>
