<svg viewBox="0 0 830 830" fill="none"
  xmlns="http://www.w3.org/2000/svg">
  <rect width="830" height="830" rx="415" fill="url(#paint0_linear_1000_5191)"/>
  <path fill-rule="evenodd" clip-rule="evenodd" d="M136.257 426.815L138.296 422.011C138.667 421.133 139.504 420.542 140.456 420.481C141.405 420.422 142.308 420.905 142.786 421.729C147.921 430.571 159.604 450.696 165.775 461.326C166.325 462.275 166.199 463.47 165.46 464.281C164.723 465.092 163.544 465.332 162.549 464.874L147.125 457.77C158.289 554.478 227.293 633.671 318.608 659.822L341.563 646.176C342.428 645.662 343.451 645.475 344.441 645.654L374.365 650.998C376.051 651.3 377.384 652.595 377.732 654.273C378.08 655.949 377.374 657.668 375.946 658.617L361.87 667.962C369.279 668.658 376.806 669.014 384.411 669.014C387.305 669.014 389.653 671.362 389.653 674.255C389.653 677.146 387.305 679.495 384.411 679.495C376.637 679.495 368.944 679.139 361.336 678.441L370.986 689.38C372.116 690.664 372.354 692.506 371.584 694.036C370.814 695.566 369.192 696.471 367.486 696.328L337.199 693.744C336.198 693.66 335.262 693.22 334.561 692.504L311.043 668.507C218.117 639.903 148.276 558.397 136.741 459.203L124.108 467.179C123.177 467.765 121.975 467.681 121.136 466.969C120.299 466.256 120.02 465.082 120.45 464.068L135.093 429.555C135.211 428.521 135.628 427.577 136.257 426.815ZM681.773 457.77L666.352 464.874C665.354 465.332 664.175 465.092 663.438 464.281C662.699 463.47 662.574 462.275 663.124 461.326C669.294 450.696 680.98 430.571 686.112 421.729C686.591 420.905 687.494 420.422 688.445 420.481C689.394 420.542 690.231 421.133 690.602 422.011L692.641 426.815C693.27 427.577 693.687 428.521 693.805 429.555L708.448 464.068C708.878 465.082 708.602 466.256 707.763 466.969C706.924 467.681 705.721 467.765 704.79 467.179L692.16 459.203C680.63 558.387 610.792 639.893 517.858 668.507L494.34 692.504C493.636 693.22 492.7 693.66 491.702 693.744L461.412 696.328C459.709 696.471 458.084 695.566 457.314 694.036C456.544 692.506 456.782 690.664 457.915 689.38L467.562 678.441C459.954 679.139 452.262 679.495 444.487 679.495C441.594 679.495 439.248 677.146 439.248 674.255C439.248 671.362 441.594 669.014 444.487 669.014C452.093 669.014 459.619 668.658 467.028 667.962L452.952 658.617C451.525 657.668 450.819 655.949 451.167 654.273C451.515 652.595 452.847 651.3 454.533 650.998L484.457 645.654C485.45 645.475 486.471 645.662 487.335 646.176L510.291 659.822C601.61 633.669 670.617 554.472 681.773 457.77ZM501.861 672.851C494.693 674.542 487.412 675.921 480.029 676.977L471.111 687.088L489.441 685.525L501.861 672.851ZM327.04 672.851L339.46 685.525L357.788 687.088L348.872 676.977C341.489 675.921 334.211 674.542 327.04 672.851ZM498.87 662.787L484.396 654.181L466.294 657.414L479.84 666.412C486.274 665.455 492.626 664.242 498.87 662.787ZM330.028 662.787C336.28 664.242 342.627 665.455 349.059 666.412L362.605 657.414L344.505 654.181L330.028 662.787ZM270.211 385.821C270.973 396.927 271.554 407.561 271.682 415.597C271.687 415.845 271.671 416.093 271.641 416.341C271.641 416.341 262.096 490.158 305.028 535.759C347.685 581.068 373.825 585.243 385.524 591.475C385.847 591.567 386.164 591.693 386.473 591.851C395.642 596.538 405.722 598.324 415.036 598.334C424.351 598.324 434.428 596.538 443.599 591.851C443.909 591.693 444.224 591.567 444.546 591.475C456.245 585.243 482.385 581.068 525.042 535.759C567.974 490.158 558.432 416.341 558.432 416.341L558.391 415.597C558.519 407.633 559.087 397.121 559.842 386.126L559.824 385.962C559.752 385.287 559.816 384.629 559.987 384.013C561.159 367.328 562.709 349.834 563.751 338.626C562.876 338.913 561.937 338.882 561.021 338.47C544.318 330.972 526.635 326.948 508.334 326.948C485.726 326.948 464.06 333.09 444.026 344.331C441.972 347.199 441.095 350.742 441.095 354.559C441.095 358.092 440.207 363.342 436.856 362.216C434.006 361.257 430.01 356.575 430.01 353.04C430.01 342.525 432.473 334.925 441.857 329.34C442.364 329.041 442.896 328.816 443.438 328.667C463.756 317.882 485.596 312.018 508.334 312.018C517.505 312.018 526.53 312.972 535.369 314.819C510.298 300.769 489.981 280.695 479.057 268.658C482.953 267.806 486.819 266.877 490.648 265.877C506.768 282.984 537.457 310.747 572.73 318.352C617.246 327.948 658.135 371.201 670.202 392.777C672.702 397.252 674.019 400.989 674.275 403.532C674.49 405.684 674.076 407.393 673.393 408.662C672.024 411.21 668.847 412.169 666.296 410.8C664.011 409.572 663.006 406.889 663.812 404.509C663.681 403.99 663.254 402.361 662.699 401.127C661.297 398.004 658.92 394.1 655.758 389.718C641.031 369.313 609.618 339.113 575.125 329.721C574.421 336.92 571.983 362.385 570.361 385.839C570.842 389.72 572.991 404.855 578.834 420.831C583.214 432.806 589.638 445.334 599.223 453.61C618.137 469.942 627.103 503.253 628.649 523.535C629.145 530.044 628.861 535.283 628.068 538.389C627.418 540.934 626.28 542.584 625.221 543.495C623.031 545.383 619.718 545.137 617.832 542.945C616.131 540.973 616.162 538.092 617.786 536.16C617.889 535.342 618.59 529.455 618.198 524.331C616.817 506.18 609.298 476.159 592.375 461.543C581.909 452.505 574.559 439.136 569.586 426.027C570.425 449.448 568.22 505.188 532.673 542.945C525.776 550.269 519.301 556.557 513.233 561.976C521.411 578.753 550.046 611.895 555.544 622.642C556.838 625.173 549.099 629.951 547.119 627.69C539.35 618.81 515.389 587.712 505.218 568.842C476.263 592.568 457.892 595.791 448.91 601.04C444.28 603.745 437.114 606.218 428.662 607.582C424.062 608.355 419.477 608.692 415.036 608.685C410.595 608.692 406.008 608.355 401.411 607.582C392.958 606.218 385.79 603.745 381.162 601.04C372.088 595.737 353.438 592.504 323.98 568.123C313.32 587.111 290.592 616.574 283.063 625.178C281.083 627.439 273.344 622.663 274.639 620.133C279.947 609.754 306.827 578.497 316.034 561.254C310.204 556.002 303.992 549.949 297.397 542.945C261.776 505.108 259.637 449.213 260.492 425.876C255.516 439.031 248.153 452.472 237.646 461.543C220.721 476.159 213.205 506.18 211.821 524.331C211.432 529.455 212.133 535.342 212.235 536.16C213.86 538.092 213.888 540.973 212.189 542.945C210.301 545.137 206.991 545.383 204.798 543.495C203.739 542.584 202.601 540.934 201.951 538.389C201.158 535.283 200.874 530.044 201.37 523.535C202.918 503.253 211.885 469.942 230.795 453.61C240.381 445.334 246.808 432.806 251.187 420.831C257.174 404.456 259.282 388.965 259.694 385.571C258.102 362.669 255.744 337.913 254.991 330.177C221.135 340.057 190.472 369.633 175.974 389.718C172.812 394.1 170.436 398.004 169.034 401.127C168.481 402.361 168.051 403.99 167.924 404.509C168.729 406.889 167.721 409.572 165.437 410.8C162.889 412.169 159.709 411.21 158.34 408.662C157.66 407.393 157.245 405.684 157.46 403.532C157.714 400.989 159.031 397.252 161.53 392.777C173.6 371.201 214.487 327.948 259.003 318.352C293.882 310.831 324.274 283.606 340.54 266.453C344.403 267.43 348.296 268.333 352.221 269.159C341.409 281.009 321.867 300.204 297.794 314.008C305.282 312.693 312.895 312.018 320.611 312.018C344.572 312.018 367.537 318.531 388.771 330.45C390.602 331.479 391.8 333.82 392.043 336.421C394.675 345.544 396.673 354.925 397.945 364.549C399.216 374.181 399.797 384.018 399.587 394.036C399.38 403.99 398.436 413.735 396.778 423.241C395.082 432.95 392.674 442.377 389.579 451.495C389.356 452.229 388.594 452.641 387.875 452.413C387.156 452.188 386.752 451.408 386.975 450.673C389.403 441.548 391.145 432.167 392.165 422.563C393.155 413.254 393.442 403.765 392.997 394.118C392.554 384.514 391.372 375.138 389.538 366.003C387.995 358.315 385.964 350.824 383.498 343.544C363.861 332.804 342.684 326.948 320.611 326.948C302.309 326.948 284.624 330.972 267.923 338.47C267.396 338.706 266.862 338.816 266.337 338.816C267.386 350.095 268.937 367.622 270.106 384.302C270.211 384.79 270.249 385.3 270.211 385.821ZM425.594 542.75C424.942 542.935 424.264 543.042 423.583 543.057L414.491 543.3L405.407 543.057C404.727 543.042 404.043 542.935 403.391 542.75L397.745 541.136L400.285 544.375C402.253 546.877 405.374 548.353 408.699 548.353H420.291C423.614 548.353 426.738 546.877 428.703 544.375L431.245 541.136L425.594 542.75ZM448.601 526.992C447.421 528.291 444.213 531.215 439.25 531.215H389.738C383.357 531.215 379.878 526.383 379.878 526.383C379.878 526.383 381.572 527.884 387.371 527.301C393.171 526.72 400.71 524.789 405.929 525.564C411.148 526.337 414.494 528.109 414.494 528.109C414.494 528.109 419.68 526.337 424.901 525.564C430.12 524.789 437.659 526.72 443.459 527.301C446.574 527.613 447.974 527.324 448.601 526.992C448.938 526.621 449.11 526.383 449.11 526.383C449.11 526.383 449.14 526.702 448.601 526.992ZM424.607 483.655C426.096 485.553 428.442 486.584 430.846 486.4C435.538 486.082 439.317 482.306 439.647 477.607C439.834 475.199 438.805 472.851 436.907 471.357C435.433 472.518 433.883 473.58 432.266 474.534C431.353 475.082 430.501 475.729 429.731 476.463C429.009 477.249 428.365 478.101 427.802 479.006C426.804 480.615 425.74 482.163 424.607 483.655ZM404.31 483.655C402.821 485.553 400.475 486.584 398.07 486.4C393.378 486.082 389.6 482.306 389.27 477.607C389.083 475.199 390.114 472.851 392.009 471.357C393.483 472.518 395.033 473.58 396.65 474.534C397.563 475.082 398.415 475.729 399.188 476.463C399.907 477.249 400.551 478.101 401.114 479.006C402.112 480.615 403.179 482.163 404.31 483.655ZM381.001 393.744C376.647 390.531 367.291 384.591 354.856 382.171C355.679 384.115 356.137 386.254 356.137 388.5C356.137 397.459 348.862 404.735 339.903 404.735C330.941 404.735 323.668 397.459 323.668 388.5C323.668 386.927 323.891 385.404 324.31 383.964C317.459 385.829 308.572 389.078 299.669 394.688C298.942 395.164 297.973 395.036 297.395 394.384C296.809 393.724 296.804 392.729 297.402 392.041C303.941 384.849 323.177 366.417 345.372 369.149C346.628 369.208 367.893 370.538 383.483 391.309C383.488 391.316 383.49 391.322 383.495 391.327C384.01 392.04 383.92 393.025 383.281 393.629C382.654 394.223 381.689 394.271 381.009 393.749L380.97 393.719L381.014 393.755L381.001 393.744ZM535.674 393.435C531.156 390.165 522 384.517 509.953 382.171C510.777 384.115 511.235 386.254 511.235 388.5C511.235 397.459 503.959 404.735 495 404.735C486.038 404.735 478.765 397.459 478.765 388.5C478.765 386.927 478.988 385.404 479.407 383.964C472.556 385.829 463.669 389.078 454.766 394.688C454.04 395.164 453.07 395.036 452.492 394.384C451.906 393.724 451.901 392.729 452.499 392.041C459.038 384.849 478.274 366.417 500.469 369.149C501.726 369.208 522.99 370.538 538.58 391.309C538.582 391.316 538.588 391.322 538.593 391.327C539.107 392.04 539.015 393.025 538.378 393.629C537.751 394.223 536.786 394.271 536.106 393.749L536.111 393.755L535.674 393.435ZM238.501 217.989C239.343 219.102 240.368 220.105 241.568 220.949C243.336 222.192 245.117 223.415 246.905 224.62C236.242 233.101 224.451 240.103 210.838 244.216C183.662 252.426 169.653 275.187 161.374 301.478C152.653 329.176 150.295 360.858 146.948 385.397C146.56 388.262 143.914 390.27 141.049 389.879C138.184 389.49 136.176 386.845 136.564 383.979C140.681 353.794 143.513 313.105 157.711 281.534C167.668 259.392 183.107 241.645 207.807 234.183C219.301 230.711 229.36 224.976 238.501 217.989ZM590.722 218.171C599.799 225.073 609.784 230.739 621.178 234.183C645.881 241.645 661.32 259.392 671.277 281.534C685.475 313.105 688.307 353.794 692.421 383.979C692.812 386.845 690.804 389.49 687.936 389.879C685.071 390.27 682.428 388.262 682.037 385.397C678.693 360.858 676.335 329.176 667.611 301.478C659.332 275.187 645.326 252.426 618.147 244.216C604.532 240.1 592.733 233.096 582.063 224.605C584.212 223.159 586.345 221.686 588.458 220.184C589.303 219.585 590.057 218.91 590.722 218.171ZM504.315 382.964C506.533 382.964 508.334 384.304 508.334 385.954C508.334 387.604 506.533 388.945 504.315 388.945C502.094 388.945 500.293 387.604 500.293 385.954C500.293 384.304 502.094 382.964 504.315 382.964ZM350.568 382.964C352.789 382.964 354.59 384.304 354.59 385.954C354.59 387.604 352.789 388.945 350.568 388.945C348.35 388.945 346.549 387.604 346.549 385.954C346.549 384.304 348.35 382.964 350.568 382.964ZM340.248 358.596C341.52 358.535 357.327 358.103 374.498 373.833C374.501 373.836 374.506 373.838 374.508 373.841C375.173 374.465 375.25 375.496 374.682 376.21C374.114 376.924 373.096 377.082 372.341 376.576C365.475 372.009 352.469 364.577 340.276 364.815C340.192 364.818 340.107 364.813 340.025 364.798C340.025 364.798 324.172 362.027 299.833 380.024L299.845 380.017C299.142 380.549 298.154 380.477 297.538 379.85C296.919 379.226 296.857 378.236 297.397 377.54L297.438 377.492C302.92 371.132 317.487 357.394 340.248 358.596ZM495.345 358.596C496.617 358.535 512.424 358.103 529.595 373.833C529.598 373.836 529.603 373.838 529.605 373.841C530.271 374.465 530.347 375.496 529.779 376.21C529.212 376.924 528.191 377.082 527.439 376.576C520.572 372.009 507.566 364.577 495.373 364.815C495.289 364.818 495.205 364.813 495.123 364.798C495.123 364.798 479.269 362.027 454.93 380.024L454.943 380.017C454.239 380.549 453.252 380.477 452.632 379.85C452.013 379.226 451.955 378.236 452.494 377.54L452.535 377.492C458.018 371.132 472.584 357.394 495.345 358.596ZM258.936 199.362C264.017 194.074 268.893 188.615 273.695 183.243C293.583 160.986 312.437 140.251 337.398 135.728C378.297 128.317 405.66 141.538 414.494 146.767C423.328 141.538 450.688 128.317 491.59 135.728C516.551 140.251 535.402 160.986 555.293 183.243C560.09 188.612 564.961 194.067 570.034 199.344C567.133 201.36 564.191 203.32 561.215 205.218C556.503 200.288 551.952 195.233 547.477 190.227C529.278 169.86 512.56 150.18 489.72 146.04C444.477 137.844 417.589 157.212 417.589 157.212C415.745 158.563 413.24 158.563 411.398 157.212C411.398 157.212 384.509 137.844 339.266 146.04C316.426 150.18 299.71 169.86 281.51 190.227C277.031 195.238 272.477 200.299 267.757 205.236C264.779 203.335 261.837 201.376 258.936 199.362Z" fill="white"/>
  <path fill-rule="evenodd" clip-rule="evenodd" d="M390.534 289.052L390.839 289.308L392.085 290.298L393.702 291.464L395.04 292.331L395.385 292.541L396.774 293.339L398.194 294.076L398.928 294.427L400.409 295.076L402.906 296.002L406.201 296.921L408.419 297.358L410.489 297.64L413.866 297.852L415.682 297.839C411.863 303.212 416.265 311.209 416.265 311.209C429.082 334.883 413.216 339.667 408.634 340.532C408.44 340.557 408.248 340.465 408.148 340.296C408.048 340.127 408.059 339.915 408.174 339.759C415.229 329.28 399.11 317.031 399.11 317.031C387.104 304.33 387.997 294.67 390.534 289.052ZM448.517 275.541C448.993 284.669 461.145 284.918 461.145 284.918C488.055 285.654 484.264 301.789 482.724 306.189C482.647 306.371 482.473 306.489 482.276 306.491C482.079 306.494 481.903 306.379 481.823 306.2C476.275 294.851 457.609 302.687 457.609 302.687C439.489 306.998 431.682 300.352 428.435 295.148L431.375 293.8L433.759 292.464L435.23 291.52C437.875 289.732 440.277 287.609 442.378 285.217L444.414 282.682L446.023 280.297L447.456 277.775L448.517 275.541ZM381.002 276.649C374.63 276.345 370.079 283.866 370.079 283.866C355.985 306.803 343.91 295.452 340.868 291.919C340.751 291.763 340.735 291.551 340.83 291.38C340.927 291.208 341.114 291.111 341.311 291.134C353.91 292.004 356.458 271.919 356.458 271.919C362.191 252.712 372.941 250.194 378.912 250.427L378.569 251.696L378.063 254.006L377.774 255.825L377.536 258.14L377.444 260.491L377.503 262.934L377.712 265.278L378.063 267.578L378.608 270.041L379.245 272.231L380.01 274.365L380.908 276.447L381.002 276.649ZM414.508 234.208C429.18 234.208 441.091 246.119 441.091 260.791C441.091 275.465 429.18 287.376 414.508 287.376C399.836 287.376 387.923 275.465 387.923 260.791C387.923 246.119 399.836 234.208 414.508 234.208ZM447.174 243.274C453.107 242.934 457.264 236.062 457.264 236.062C471.358 213.125 483.433 224.476 486.474 228.009C486.595 228.165 486.61 228.377 486.513 228.549C486.418 228.718 486.229 228.815 486.034 228.794C473.432 227.924 470.884 248.007 470.884 248.007C465.781 265.114 456.696 268.982 450.551 269.461L450.945 267.611L451.209 265.999L451.401 264.37L451.536 262.461L451.559 259.836L451.406 257.258L451.114 254.955L450.917 253.822L450.687 252.701L450.421 251.596L450.124 250.506L449.794 249.429L449.436 248.368L449.044 247.319C448.602 246.191 448.108 245.088 447.563 244.016L447.174 243.274ZM475.865 249.642C512.96 241.384 547.315 225.799 577.318 204.483C579.766 202.746 583.164 203.322 584.901 205.767C586.638 208.213 586.062 211.61 583.617 213.35C550.377 236.96 512.003 253.804 470.508 261.865C472.519 258.657 474.358 254.651 475.865 249.642ZM355.069 261.185C315.314 252.967 278.493 236.671 246.407 214.089C243.954 212.363 243.365 208.97 245.092 206.514C246.819 204.061 250.214 203.47 252.667 205.197C284.881 227.868 322.052 243.96 362.222 251.512C359.707 253.806 357.241 256.928 355.069 261.185ZM383.259 240.862C380.575 234.76 371.337 234.573 371.337 234.573C344.427 233.837 348.218 217.702 349.758 213.301C349.835 213.12 350.009 213.002 350.206 213C350.403 212.997 350.58 213.112 350.659 213.291C356.208 224.64 374.873 216.804 374.873 216.804C393.883 212.281 401.54 219.817 404.492 225.098C403.594 225.351 402.707 225.635 401.839 225.952L400.432 226.497L397.526 227.843L396.608 228.334L393.873 230.004L393.205 230.465L390.504 232.558L387.953 234.944L385.684 237.498L385.175 238.14L383.474 240.526L383.259 240.862ZM417.181 223.821C420.308 218.474 416.217 211.04 416.217 211.04C403.4 187.366 419.266 182.582 423.848 181.717C424.043 181.692 424.234 181.784 424.334 181.952C424.434 182.121 424.424 182.334 424.309 182.492C417.253 192.968 433.373 205.217 433.373 205.217C446.722 219.342 444.125 229.705 441.05 234.932L439.42 233.356L437.525 231.747L435.358 230.15L433.076 228.712L430.497 227.349L427.609 226.111L424.518 225.098L421.646 224.415L418.893 223.985L417.181 223.821Z" fill="url(#paint1_linear_1000_5191)"/>

  <defs>
    <linearGradient id="paint0_linear_1000_5191" x1="173.885" y1="127.82" x2="766.501" y2="760.608" gradientUnits="userSpaceOnUse">
      <stop stop-color="#530037"/>
      <stop offset="0.401042" stop-color="#A20772"/>
      <stop offset="0.973591" stop-color="#220219"/>
    </linearGradient>
    <linearGradient id="paint1_linear_1000_5191" x1="260.861" y1="296.279" x2="417.266" y2="445.343" gradientUnits="userSpaceOnUse">
      <stop stop-color="#FF00B7"/>
      <stop offset="0.973591" stop-color="#8F00FF"/>
    </linearGradient>
  </defs>
</svg>
