<svg viewBox="0 0 830 830" fill="none"
  xmlns="http://www.w3.org/2000/svg">
  <circle cx="415" cy="415" r="415" transform="rotate(-180 415 415)" fill="#5CB492"/>
  <path fill-rule="evenodd" clip-rule="evenodd" d="M266.9 226.214C237.379 202.433 216.01 179.899 216.01 179.899C213.965 177.765 214.067 174.395 216.189 172.371C218.336 170.35 221.71 170.439 223.729 172.57C223.729 172.57 247.884 198.017 280.114 223.082C280.216 223.074 280.319 223.071 280.447 223.068C308.306 223.01 336.142 211.603 336.142 211.603C338.851 210.489 341.969 211.795 343.068 214.514C344.192 217.233 342.889 220.343 340.18 221.456C340.18 221.456 318.352 230.374 293.354 232.998C294.07 233.517 294.811 234.033 295.527 234.547C321.394 252.878 350.429 268.881 375.631 270.639C391.351 271.732 410.239 272.627 430.816 272.034C395.287 261.989 368.475 246.991 368.475 246.991C365.919 245.557 364.999 242.31 366.456 239.746C367.887 237.183 371.132 236.266 373.689 237.702C373.689 237.702 394.086 249.117 422.61 258.43C410.341 248.83 402.368 240.227 402.368 240.227C400.348 238.073 400.476 234.7 402.648 232.704C404.795 230.706 408.169 230.834 410.162 232.99C410.162 232.99 430.611 255.05 455.838 266.837C456.017 266.916 456.171 267.003 456.35 267.097C460.465 267.851 464.656 268.495 468.848 269.001C469.027 269.024 469.206 269.052 469.385 269.09C508.339 264.087 549.771 252.055 585.401 225.941C540.774 242.766 499.111 246.845 499.111 246.845C496.198 247.131 493.591 244.99 493.309 242.066C493.002 239.141 495.15 236.534 498.089 236.249C498.089 236.249 559.484 230.248 611.907 202.44C611.984 202.395 612.086 202.351 612.163 202.31C616.38 197.826 620.47 193.065 624.405 188.014C626.22 185.694 629.569 185.275 631.895 187.079C634.195 188.883 634.63 192.23 632.815 194.55C606.411 228.499 573.235 249.829 538.55 262.991C569.835 261.639 592.303 255.31 592.303 255.31C595.114 254.513 598.079 256.161 598.871 258.987C599.664 261.816 598.028 264.759 595.191 265.556C595.191 265.556 560.762 275.299 517.259 273.713C505.195 283.476 492.338 291.714 480.325 298.437C479.226 299.056 475.724 301.166 474.855 301.429C450.547 314.42 430.995 320.882 430.995 320.882C428.208 321.804 425.192 320.287 424.272 317.499C423.352 314.709 424.886 311.697 427.672 310.774C427.672 310.774 428.029 310.653 428.694 310.416C409.14 312.375 395.747 311.535 395.747 311.535C392.808 311.353 390.584 308.824 390.763 305.893C390.942 302.96 393.473 300.727 396.412 300.91C396.412 300.91 431.787 303.09 470.893 291.503C479.583 286.811 488.887 281.258 498.038 274.843C453.972 284.307 410.751 283.583 378.877 281.527C378.137 282.194 377.727 282.715 376.987 283.182C354.085 297.584 305.879 304.329 305.879 304.329C302.965 304.603 300.358 302.448 300.077 299.523C299.821 296.597 301.968 294.001 304.908 293.728C304.908 293.728 322.442 292.093 343.912 285.295C316.563 286.331 294.505 281.613 294.505 281.613C291.616 281 289.776 278.169 290.389 275.295C291.028 272.423 293.84 270.588 296.728 271.201C296.728 271.201 318.965 275.951 345.956 274.561C327.017 267.591 307.438 256.036 289.367 243.235C288.242 242.435 287.118 241.632 285.993 240.827C284.945 240.901 283.539 240.958 282.645 240.843C257.034 237.601 214.119 214.54 214.119 214.54C211.639 212.976 210.873 209.687 212.432 207.198C214.016 204.712 217.314 203.963 219.793 205.527C219.793 205.527 240.062 218.273 266.9 226.214Z" fill="white"/>
  <path fill-rule="evenodd" clip-rule="evenodd" d="M549.436 329.041C532.106 316.673 515.211 307.087 498.853 299.835C502.329 297.647 505.831 295.343 509.332 292.923C532.797 304.046 557.232 319.816 582.383 341.426C584.069 342.872 584.632 345.151 583.967 347.139C584.402 348.425 584.325 349.871 583.687 351.176C575.354 367.951 567.992 387.714 569.986 406.438C571.341 419.171 575.404 430.725 578.6 442.456C582.05 455.143 584.555 468.019 582.433 482.502C579.673 501.244 571.136 517.153 561.73 532.688C552.886 547.291 543.276 561.552 537.78 577.917C527.019 609.86 535.711 642.925 539.135 675.304C539.442 678.225 537.321 680.849 534.407 681.158C531.467 681.47 528.86 679.349 528.553 676.429C524.95 642.549 516.438 607.949 527.659 574.527C533.41 557.415 543.379 542.444 552.605 527.177C561.296 512.845 569.347 498.246 571.878 480.956C573.156 472.334 572.516 464.359 571.034 456.643C557.615 513.207 512.578 577.33 439.324 616.059C431.144 620.37 432.449 620.048 421.918 621.721H418.569C409.675 621.706 400.882 619.772 392.856 616.059C317.889 581.359 272.469 514.807 258.768 457.657C257.414 465.057 256.904 472.712 258.105 480.956C260.635 498.246 268.686 512.845 277.376 527.177C286.604 542.444 296.572 557.415 302.323 574.527C313.544 607.949 305.033 642.549 301.454 676.429C301.122 679.349 298.515 681.47 295.575 681.158C292.661 680.849 290.54 678.225 290.847 675.304C294.297 642.925 302.962 609.86 292.227 577.917C286.732 561.552 277.095 547.291 268.252 532.688C258.845 517.153 250.309 501.244 247.574 482.502C245.452 468.019 247.932 455.143 251.382 442.456C254.577 430.725 258.641 419.171 259.996 406.438C261.989 387.714 254.628 367.951 246.296 351.176C245.657 349.871 245.605 348.422 246.015 347.136C245.426 345.363 245.81 343.332 247.165 341.86C247.165 341.86 263.19 324.4 291.409 306.711C293.249 310.048 296.239 312.626 299.792 313.968C288.674 320.744 279.422 327.569 272.264 333.377C350.784 313.071 386.952 338.365 391.987 342.239L392.549 342.68C393.597 343.614 394.39 344.962 394.671 346.257C395.258 349.733 408.6 431.832 398.735 457.46C397.994 459.43 396.077 460.736 393.955 460.731C398.223 454.984 397.431 431.765 397.431 423.435C397.457 408.654 388.818 372.773 384.907 349.69C378.134 345.009 338.899 321.904 256.878 348.532C265.619 366.598 272.699 387.652 270.604 407.562C269.657 416.46 267.485 424.817 265.133 433.045C270.143 491.593 315.359 569.22 397.355 607.119C404.001 610.179 411.259 611.774 418.621 611.787H420.282L421.918 611.764C429.994 609.968 428.18 610.182 434.8 607.119C516.975 569.117 559.635 491.281 564.516 432.693L564.746 432.711C562.446 424.59 560.324 416.339 559.405 407.562C557.308 387.956 564.159 367.241 572.721 349.362C572.056 349.268 571.418 349.055 570.829 348.736C512.886 317.282 464.782 350.832 457.599 356.402C454.89 363.053 453.867 370.231 454.686 377.329C454.686 377.508 454.711 377.687 454.711 377.869C454.711 380.469 452.615 382.68 449.88 382.951L449.318 382.797C446.583 382.812 444.232 380.822 443.95 378.223C442.928 369.004 444.385 359.688 448.142 351.138L448.679 350.116L449.624 349.349C450.11 348.95 492.948 313.858 549.436 329.041ZM640.583 386.08C639.126 381.553 637.975 376.874 637.26 371.999C635.112 357.838 637.592 345.251 641.068 332.848C644.263 321.424 648.328 310.168 649.682 297.77C651.65 279.743 645.566 260.323 636.289 244.53C635.343 243.255 629.668 235.738 619.291 225.319C621.847 222.898 624.352 220.396 626.831 217.808C638.947 229.999 645.081 238.492 645.081 238.492L645.336 238.904C650.474 247.631 654.717 257.367 657.426 267.427C657.682 267.674 657.886 267.953 658.091 268.257C688.175 313.937 703.204 368.611 703.204 427.342C703.204 430.28 700.827 432.665 697.887 432.665C694.948 432.665 692.546 430.28 692.546 427.342C692.546 378.704 682.578 332.953 660.672 293.114C660.596 295.062 660.468 296.998 660.264 298.92C658.857 311.918 654.691 323.739 651.343 335.715C648.25 346.715 645.899 357.858 647.791 370.417C650.321 387.243 658.347 401.45 667.011 415.401C676.264 430.298 686.232 444.909 691.983 461.608C703.23 494.232 694.719 528.004 691.114 561.074C690.807 563.995 688.175 566.107 685.261 565.791C682.322 565.472 680.225 562.842 680.532 559.921C683.958 528.388 692.622 496.187 681.913 465.077C676.418 449.133 666.807 435.24 657.963 421.015C653.311 413.506 648.864 405.904 645.209 397.921C621.642 432.452 617.86 467.515 619.394 503.638C621.055 543.517 629.106 584.684 625.758 627.867C625.528 630.797 622.971 632.99 620.058 632.765C617.118 632.538 614.921 629.975 615.151 627.047C618.447 584.303 610.422 543.56 608.735 504.088C607.022 463.7 611.853 424.634 640.583 386.08ZM187.355 397.469C183.674 405.616 179.15 413.363 174.396 421.015C165.552 435.24 155.942 449.133 150.446 465.077C139.737 496.187 148.401 528.388 151.826 559.921C152.159 562.842 150.037 565.472 147.123 565.791C144.184 566.107 141.551 563.995 141.245 561.074C137.641 528.004 129.129 494.232 140.376 461.608C146.127 444.909 156.095 430.298 165.348 415.401C174.012 401.45 182.038 387.243 184.569 370.417C186.46 357.858 184.109 346.715 181.041 335.715C177.693 323.739 173.501 311.918 172.095 298.92C171.865 296.794 171.712 294.655 171.661 292.506C149.526 332.485 139.43 378.453 139.43 427.342C139.43 430.28 137.053 432.665 134.114 432.665C131.174 432.665 128.797 430.28 128.797 427.342C128.797 368.611 143.801 313.937 173.885 268.257C174.14 267.89 174.421 267.56 174.728 267.274C177.361 257.305 181.604 247.622 187.074 238.793C187.15 238.699 187.201 238.606 187.278 238.517C187.278 238.517 192.85 230.686 203.943 219.264C205.119 220.928 206.652 222.392 208.467 223.544C208.672 223.671 208.876 223.795 209.106 223.909C209.106 223.909 210.333 224.571 212.531 225.688C202.307 236.108 196.786 243.539 196.019 244.576C186.102 260.602 180.709 279.759 182.677 297.77C184.032 310.168 188.096 321.424 191.291 332.848C194.767 345.251 197.246 357.838 195.125 371.999C194.409 376.7 193.31 381.221 191.93 385.598C220.992 424.301 225.847 463.529 224.136 504.088C222.474 543.56 214.423 584.303 217.72 627.047C217.95 629.975 215.752 632.538 212.838 632.765C209.898 632.99 207.342 630.797 207.112 627.867C203.764 584.684 211.815 543.517 213.502 503.638C215.036 467.356 211.176 432.145 187.355 397.469ZM444.691 548.515C442.212 553.084 438.174 556.62 433.317 558.48C428.563 560.445 423.477 561.444 418.314 561.419C413.176 561.444 408.064 560.399 403.31 558.352C398.453 556.454 394.441 552.81 392.089 548.132C396.179 550.306 400.575 551.783 405.125 552.501C409.496 553.268 413.918 553.651 418.339 553.651C422.787 553.682 427.209 553.339 431.554 552.629C436.129 551.985 440.576 550.595 444.691 548.515ZM453.662 536.148C453.408 532.647 445.995 531.369 439.784 528.252C433.573 525.135 429.56 524.752 424.448 527.869C422.838 529.045 420.946 529.808 418.953 530.092L418.8 529.939C418.698 529.964 418.57 529.964 418.442 529.939C418.339 529.964 418.237 529.964 418.109 529.939L417.93 530.092C415.963 529.78 414.071 529.022 412.435 527.869C407.323 524.752 403.234 525.135 397.099 528.252C390.965 531.369 383.501 532.647 383.245 536.148C382.99 539.648 383.885 541.999 391.783 541.871C399.68 541.743 405.891 538.882 409.828 540.951C411.642 542.28 413.585 543.412 415.605 544.325C417.547 544.835 419.566 544.835 421.483 544.325C423.527 543.408 425.47 542.275 427.285 540.951C431.196 538.882 437.509 541.743 445.177 541.871C452.845 541.999 453.918 539.674 453.662 536.148ZM433.906 491.585C435.056 490.108 436.129 488.562 437.1 486.96C437.662 486.04 438.302 485.184 439.043 484.405C439.835 483.659 440.679 483.007 441.598 482.463C443.209 481.489 444.768 480.424 446.25 479.269C448.193 480.754 449.241 483.128 449.011 485.555C448.884 487.855 447.912 490.024 446.25 491.636C444.615 493.264 442.468 494.245 440.142 494.396C437.739 494.567 435.388 493.509 433.906 491.585ZM407.399 491.585C405.917 493.497 403.54 494.531 401.111 494.345C396.384 494.025 392.575 490.231 392.242 485.503C392.063 483.081 393.112 480.72 395.003 479.217C396.511 480.388 398.07 481.454 399.68 482.412C400.601 482.964 401.469 483.615 402.237 484.353C402.977 485.144 403.617 485.999 404.179 486.909C405.202 488.526 406.275 490.085 407.399 491.585ZM328.138 383.689L327.934 383.737C315.18 387.164 299.562 386.844 289.262 377.345C289.032 377.132 287.14 374.202 287.498 374.304C291.282 375.379 293.786 376.176 297.722 375.706C306.336 374.684 314.413 371.373 322.822 369.459C331.819 367.399 340.586 367.939 349.506 370.174C360.472 372.913 370.517 378.658 379.13 385.881C372.127 384.514 364.587 383.111 356.944 382.317C358.401 384.824 359.27 387.757 359.27 390.895C359.27 400.119 351.934 407.595 342.886 407.595C333.864 407.595 326.528 400.119 326.528 390.895C326.528 388.314 327.116 385.872 328.138 383.689ZM488.143 382.317C480.501 383.111 472.961 384.514 465.957 385.881C474.571 378.658 484.616 372.913 495.581 370.174C504.501 367.939 513.244 367.399 522.266 369.459C530.675 371.373 538.752 374.684 547.366 375.706C551.301 376.176 553.807 375.379 557.589 374.304C557.947 374.202 556.056 377.132 555.826 377.345C545.5 386.844 529.908 387.164 517.154 383.737L516.949 383.689C517.971 385.872 518.559 388.314 518.559 390.895C518.559 400.119 511.224 407.595 502.176 407.595C493.153 407.595 485.817 400.119 485.817 390.895C485.817 387.757 486.686 384.824 488.143 382.317ZM509.051 383.669C512.988 383.29 516.439 385.365 516.719 388.298C517 391.232 514.01 393.923 510.074 394.3C506.112 394.676 502.687 392.602 502.406 389.668C502.125 386.735 505.115 384.044 509.051 383.669ZM349.763 383.669C353.698 383.29 357.124 385.365 357.405 388.298C357.685 391.232 354.72 393.923 350.784 394.3C346.823 394.676 343.398 392.602 343.116 389.668C342.835 386.735 345.8 384.044 349.763 383.669ZM256.52 347.484L256.418 347.594L256.852 348.517L256.52 347.484ZM402.262 142.618C339.462 144.764 290.821 166.494 256.571 189.358C253.683 186.746 250.974 184.263 248.519 181.95C286.655 155.987 342.504 131.035 415.732 131.817C501.843 130.902 564.184 165.541 601.935 195.585C598.383 197.371 594.753 199.055 591.15 200.644C556.567 174.167 502.355 145.112 429.203 142.618C428.64 142.776 428.051 142.848 427.464 142.817C423.503 142.623 419.592 142.506 415.732 142.465C411.872 142.506 407.962 142.623 403.975 142.817C403.387 142.848 402.798 142.776 402.262 142.618Z" fill="white"/>
</svg>
