<svg viewBox="0 0 830 830" fill="none"
  xmlns="http://www.w3.org/2000/svg">
  <path d="M830 415C830 185.802 644.198 0 415 0C185.802 0 0 185.802 0 415C0 644.198 185.802 830 415 830C644.198 830 830 644.198 830 415Z" fill="black"/>
  <path fill-rule="evenodd" clip-rule="evenodd" d="M548.006 269.345C541.101 259.875 536.758 250.28 536.758 250.28C536.554 249.896 536.353 249.547 536.096 249.238C535.807 245.211 535.347 226.872 548.208 205.119C562.994 180.082 595.13 150.979 663.773 132.851C664.75 139.877 665.298 154.954 656.581 172C648.295 188.249 631.666 206.097 599.618 220.858C597.431 221.875 596.453 224.5 597.46 226.712C598.495 228.922 601.114 229.891 603.328 228.87C627.035 217.943 642.801 205.325 653.271 192.819L674.073 185.221C674.33 193.814 673.295 210.967 662.851 225.544C662.276 225.997 661.874 226.573 661.586 227.219C655.373 235.176 646.195 242.213 632.643 246.433C630.313 247.16 629.018 249.633 629.738 251.957C630.458 254.285 632.932 255.582 635.262 254.86C650.912 249.986 661.5 241.848 668.605 232.659L672.95 231.329C670.85 240.397 664.98 257.02 649.071 269.841C633.996 281.995 610.061 290.566 572.23 286.792L568.547 286.392C564.376 285.514 560.433 282.879 556.837 279.515L548.006 269.345ZM273.525 279.512C269.929 282.876 266.016 285.511 261.845 286.389C260.895 286.501 259.946 286.607 258.996 286.702L258.162 286.789C220.343 290.564 196.4 281.992 181.323 269.839C165.419 257.017 159.541 240.394 157.427 231.327L161.78 232.657C168.9 241.845 179.481 249.983 195.125 254.857C197.45 255.579 199.924 254.282 200.649 251.954C201.374 249.63 200.073 247.157 197.749 246.431C184.193 242.21 175.005 235.174 168.8 227.216C168.524 226.571 168.098 225.994 167.549 225.542C157.091 210.965 156.05 193.813 156.306 185.218L177.126 192.816C187.575 205.322 203.352 217.94 227.067 228.867C229.279 229.888 231.9 228.919 232.931 226.709C233.938 224.497 232.96 221.872 230.761 220.856C198.735 206.096 182.102 188.247 173.794 171.998C165.08 154.952 165.646 139.875 166.625 132.849C235.261 150.976 267.399 180.08 282.185 205.117C295.046 226.871 294.586 245.21 294.297 249.235C294.038 249.545 293.808 249.893 293.635 250.277C293.635 250.277 289.292 259.872 282.358 269.342L273.525 279.512Z" fill="url(#paint0_linear_1000_5141)"/>
  <path fill-rule="evenodd" clip-rule="evenodd" d="M490.216 509.266V714.399L613.836 631.969C644.102 612.199 662.37 578.49 662.37 542.34V269.498C667.346 264.153 671.145 258.54 674.021 253.178C674.079 253.537 674.106 253.902 674.106 254.271V542.344C674.106 582.464 653.854 619.878 620.281 641.821C565.071 677.881 487.539 730.198 487.539 730.198C485.727 731.376 483.426 731.472 481.526 730.445C479.627 729.417 478.448 727.43 478.448 725.272V661.972C448.672 681.692 421.975 685.639 400.368 683.091C378.562 680.518 361.819 671.247 351.95 664.298V725.272C351.95 727.43 350.772 729.417 348.871 730.445C346.972 731.472 344.671 731.376 342.86 730.198C342.86 730.198 265.325 677.881 210.116 641.821C176.523 619.878 156.273 582.464 156.273 542.344V254.271L156.495 253.429C159.352 258.722 163.109 264.248 168.037 269.516V542.337C168.037 578.488 186.283 612.197 216.563 631.967L340.184 714.396V509.223C194.475 506.286 226.806 339.249 226.806 339.249C226.862 338.973 226.92 338.707 227.007 338.45C226.115 335.205 228.042 331.82 231.408 330.802C253.675 324.064 277.265 320.445 301.69 320.445C331.842 320.445 360.753 325.971 387.481 336.08C390.876 337.359 392.515 341.023 391.22 344.272V344.669L388.66 476.707L416.595 494.361C416.654 494.399 416.739 494.438 416.797 494.48C416.855 494.438 416.911 494.399 416.969 494.361L444.905 476.707L442.344 344.669C442.344 344.208 442.4 343.76 442.487 343.33C441.854 340.345 443.409 337.234 446.285 336.08C471.544 325.971 498.846 320.445 527.357 320.445C550.4 320.445 572.698 324.064 593.728 330.802C596.288 331.619 597.957 333.949 598.071 336.512C598.762 337.296 599.251 338.272 599.453 339.373C599.453 339.373 606.788 381.336 596.604 423.299C590.304 449.118 577.414 474.846 552.674 491.369C537.08 501.786 516.74 508.598 490.216 509.266ZM485.267 497.586C485.468 497.565 485.669 497.557 485.871 497.557C511.704 497.557 531.326 491.483 546.141 481.59C568.265 466.807 579.542 443.619 585.153 420.525C593.957 384.368 588.921 348.213 588.002 342.254C568.725 336.298 548.386 333.111 527.356 333.111C501.665 333.111 476.981 337.867 454.08 346.611L451.492 478.494C451.492 479.641 450.915 480.704 449.909 481.299L419.645 498.808C418.724 499.364 417.601 499.279 416.796 498.69C415.962 499.279 414.839 499.364 413.918 498.808L383.654 481.299C382.675 480.704 382.071 479.641 382.071 478.494L379.51 346.696C355.173 337.902 328.963 333.111 301.689 333.111C279.682 333.111 258.422 336.222 238.226 342.034C236.441 351.767 211.637 497.501 344.096 497.501C344.441 497.501 344.787 497.53 345.103 497.588C345.42 497.534 345.735 497.505 346.082 497.505C349.331 497.505 351.95 500.14 351.95 503.388V649.387C357.214 654.039 375.281 668.282 401.75 671.402C422.78 673.886 449.017 669.232 478.448 647.623V503.388C478.448 500.14 481.067 497.505 484.316 497.505C484.663 497.505 484.978 497.534 485.267 497.586ZM430.346 603.073C429.57 603.297 428.735 603.428 427.901 603.448L416.91 603.741L405.921 603.448C405.087 603.428 404.253 603.297 403.477 603.073L396.629 601.12L399.706 605.042C402.095 608.071 405.863 609.858 409.89 609.858H423.93C427.957 609.858 431.728 608.071 434.116 605.042L437.193 601.12L430.346 603.073ZM458.194 583.997C456.785 585.568 452.901 589.108 446.888 589.108H386.933C379.224 589.108 374.995 583.257 374.995 583.257C374.995 583.257 377.066 585.076 384.086 584.371C391.105 583.669 400.225 581.329 406.554 582.267C412.853 583.203 416.91 585.348 416.91 585.348C416.91 585.348 423.183 583.203 429.512 582.267C435.84 581.329 444.96 583.669 451.98 584.371C455.75 584.75 457.447 584.4 458.194 583.997C458.626 583.545 458.827 583.257 458.827 583.257C458.827 583.257 458.856 583.645 458.194 583.997ZM435.295 530.296C436.645 528.539 437.94 526.702 439.092 524.795C439.754 523.702 440.53 522.681 441.393 521.758C442.314 520.867 443.321 520.093 444.443 519.446C446.342 518.29 448.182 517.022 449.967 515.647C452.268 517.413 453.505 520.239 453.247 523.123C453.102 525.86 451.924 528.437 449.967 530.356C448.01 532.294 445.45 533.461 442.717 533.639C439.841 533.842 437.05 532.585 435.295 530.296ZM403.763 530.296C401.98 532.568 399.16 533.803 396.282 533.579C390.674 533.201 386.156 528.684 385.754 523.063C385.524 520.183 386.76 517.373 389.034 515.587C390.788 516.975 392.66 518.247 394.585 519.386C395.679 520.042 396.714 520.816 397.635 521.697C398.499 522.635 399.275 523.652 399.937 524.735C401.146 526.659 402.412 528.516 403.763 530.296ZM318.204 376.622C319.987 376.636 321.771 376.748 323.583 376.97C325.108 377.043 352.641 378.722 372.636 405.749C373.211 406.554 373.094 407.676 372.376 408.349C371.685 409.013 370.592 409.06 369.816 408.467L369.845 408.473L369.297 408.07C363.63 403.912 351.606 396.32 335.668 393.245C336.761 395.797 337.392 398.619 337.392 401.582C337.392 413.069 328.071 422.4 316.563 422.4C305.084 422.4 295.763 413.069 295.763 401.582C295.763 399.482 296.081 397.455 296.656 395.542C287.708 397.963 276.057 402.229 264.406 409.658C263.572 410.195 262.507 410.058 261.845 409.328C261.183 408.587 261.183 407.477 261.845 406.701C269.268 398.432 291.476 376.591 317.887 376.62L318.204 376.622ZM517.085 376.622C518.84 376.636 520.652 376.748 522.436 376.97C523.961 377.043 551.492 378.722 571.487 405.749C571.487 405.755 571.516 405.759 571.516 405.765C572.091 406.57 571.977 407.676 571.257 408.349C570.539 409.013 569.445 409.06 568.696 408.467C563.289 404.41 550.976 396.421 534.519 393.245C535.642 395.797 536.274 398.619 536.274 401.582C536.274 413.069 526.924 422.4 515.446 422.4C503.967 422.4 494.646 413.069 494.646 401.582C494.646 399.482 494.932 397.455 495.509 395.542C486.591 397.963 474.91 402.229 463.257 409.658C462.452 410.195 461.359 410.058 460.726 409.328C460.064 408.587 460.037 407.477 460.697 406.701C468.148 398.432 490.359 376.591 516.74 376.62L517.085 376.622ZM527.385 394.485C530.232 394.485 532.533 396.206 532.533 398.32C532.533 400.434 530.232 402.155 527.385 402.155C524.536 402.155 522.235 400.434 522.235 398.32C522.235 396.206 524.536 394.485 527.385 394.485ZM330.258 394.485C333.107 394.485 335.408 396.206 335.408 398.32C335.408 400.434 333.107 402.155 330.258 402.155C327.409 402.155 325.108 400.434 325.108 398.32C325.108 396.206 327.409 394.485 330.258 394.485ZM317.024 363.443C318.549 363.365 339.264 362.746 361.559 383.625C361.559 383.633 361.588 383.642 361.588 383.654C362.306 384.37 362.365 385.517 361.732 386.304C361.07 387.086 359.918 387.244 359.084 386.675C350.512 380.863 333.221 370.696 317.053 371.015C316.966 371.017 316.881 371.009 316.764 370.992C316.764 370.992 296.139 367.369 264.549 390.96C263.773 391.553 262.65 391.473 261.959 390.777C261.271 390.078 261.183 388.976 261.787 388.19L261.816 388.136C268.462 380.27 287.276 361.868 317.024 363.443ZM515.877 363.443C517.429 363.365 538.115 362.746 560.411 383.625C560.44 383.633 560.44 383.642 560.44 383.654C561.189 384.37 561.218 385.517 560.585 386.304C559.923 387.086 558.801 387.244 557.966 386.675C549.393 380.863 532.102 370.696 515.906 371.015C515.819 371.017 515.734 371.009 515.647 370.992C515.647 370.992 495.019 367.369 463.402 390.96C462.624 391.553 461.531 391.473 460.842 390.777C460.122 390.078 460.064 388.976 460.67 388.19L460.697 388.136C467.343 380.27 486.13 361.868 515.877 363.443ZM308.796 135.94C290.872 143.15 272.173 152.347 253.846 164.063C250.682 161.632 247.258 159.221 243.635 156.845C325.425 102.882 416.451 98.2178 416.451 98.2178L417.688 98.2379C417.688 98.2379 463.402 100.617 518.983 121.781C519.185 121.841 519.386 121.913 519.587 121.996L519.762 122.074C541.454 130.389 564.64 141.568 587.166 156.584C583.514 158.951 580.09 161.354 576.897 163.779C558.052 151.595 538.806 142.153 520.509 134.837L482.849 223.46C482.389 224.541 481.613 225.46 480.635 226.099L418.782 266.107L418.665 266.18C418.607 266.203 418.58 266.228 418.551 266.255L418.406 266.327L418.35 266.359L418.321 266.383L418.292 266.402C417.429 266.852 416.507 267.081 415.615 267.095L415.588 267.097H415.501C414.609 267.097 413.661 266.888 412.826 266.448L412.797 266.433L412.739 266.41L412.681 266.377L412.567 266.307C412.509 266.284 412.48 266.257 412.451 266.234L412.337 266.166L350.454 227.697C349.477 227.077 348.67 226.164 348.182 225.083L308.796 135.94ZM509.519 130.641C458.366 112.085 417.169 109.99 417.228 109.993L416.825 109.982C413.43 110.177 371.082 112.945 319.786 131.718L358.223 218.666L415.443 254.248L472.723 217.197L509.519 130.641Z" fill="white"/>
  <defs>
    <linearGradient id="paint0_linear_1000_5141" x1="405.392" y1="166.981" x2="405.89" y2="265.61" gradientUnits="userSpaceOnUse">
      <stop stop-color="#ECB067"/>
      <stop offset="1" stop-color="#825A34"/>
    </linearGradient>
  </defs>
</svg>
