<svg viewBox="0 0 830 830" fill="none"
  xmlns="http://www.w3.org/2000/svg">
  <path d="M415 830C644.198 830 830 644.198 830 415C830 185.802 644.198 0 415 0C185.802 0 0 185.802 0 415C0 644.198 185.802 830 415 830Z" fill="url(#paint0_linear_1000_5145)"/>
  <path d="M668.116 551.952C668.116 522.902 566.441 500.077 437.791 498.002C456.466 456.502 495.891 433.677 543.616 427.452C597.566 421.227 653.591 419.152 666.041 419.152C666.041 419.152 668.116 419.152 668.116 417.077C668.116 417.077 668.116 415.002 666.041 415.002C653.591 415.002 599.641 412.927 543.616 406.702C479.291 398.402 431.566 356.902 427.416 290.502C421.191 230.327 419.116 182.602 419.116 170.152C419.116 168.077 419.116 168.077 417.041 168.077C414.966 168.077 414.966 170.152 414.966 170.152C414.966 182.602 414.966 230.327 406.666 290.502C398.366 356.902 354.791 398.402 290.466 406.702C234.441 412.927 178.416 415.002 165.966 415.002C163.891 415.002 163.891 415.002 163.891 417.077L165.966 419.152C178.416 419.152 232.366 421.227 288.391 427.452C338.191 433.677 373.466 458.577 394.216 498.002C265.566 500.077 163.891 522.902 163.891 551.952C163.891 583.077 273.866 605.902 410.816 607.977C410.816 634.952 412.891 653.627 412.891 661.927C412.891 664.002 412.891 666.077 414.966 666.077C417.041 666.077 417.041 666.077 417.041 664.002C417.041 655.702 417.041 637.027 419.116 610.052C558.141 607.977 668.116 583.077 668.116 551.952ZM215.766 539.502C215.766 520.827 296.691 506.302 398.366 504.227C402.516 514.602 406.666 527.052 406.666 541.577C406.666 551.952 408.741 564.402 408.741 574.777C300.841 576.852 215.766 560.252 215.766 539.502ZM423.266 576.852C423.266 566.477 425.341 556.102 425.341 543.652C425.341 531.202 429.491 518.752 433.641 506.302C535.316 508.377 616.241 522.902 616.241 541.577C614.166 560.252 529.091 576.852 423.266 576.852Z" fill="white"/>

  <defs>
    <linearGradient id="paint0_linear_1000_5145" x1="709.048" y1="709.028" x2="122.157" y2="122.218" gradientUnits="userSpaceOnUse">
      <stop stop-color="#FD91FF"/>
      <stop offset="0.026172" stop-color="#F892FF"/>
      <stop offset="0.493" stop-color="#A0A8FF"/>
      <stop offset="0.6039" stop-color="#A2ACFF"/>
      <stop offset="0.7241" stop-color="#AAB9FF"/>
      <stop offset="0.8484" stop-color="#B6CFFF"/>
      <stop offset="0.9158" stop-color="#BEDEFF"/>
      <stop offset="0.9932" stop-color="#C9F2FF"/>
    </linearGradient>
  </defs>
</svg>
