<svg width="1920" height="1128" viewBox="0 0 1920 1128" fill="none" xmlns="http://www.w3.org/2000/svg">
<path d="M1447.83 234.049L1062.05 284.767C1059.87 285.05 1057.82 286.074 1056.23 287.628L1024.47 319.203C1020.51 323.123 1014.12 323.123 1010.17 319.203L1004.59 313.658C1000.61 309.702 1000.61 303.239 1004.59 299.283L1042.54 261.598C1046.53 257.642 1046.53 251.179 1042.54 247.223L967.57 172.629C963.617 168.709 957.229 168.709 953.276 172.629L878.309 247.223C874.321 251.179 874.321 257.642 878.309 261.598L916.216 299.318C920.204 303.274 920.204 309.738 916.216 313.693L910.64 319.238C906.687 323.159 900.298 323.159 896.345 319.238L864.58 287.663C862.991 286.109 860.944 285.085 858.756 284.802L472.981 234.049C463.381 232.777 457.628 244.468 464.511 251.285L548.654 334.991C555.078 341.383 550.56 352.332 541.524 352.332C532.489 352.332 527.971 363.281 534.395 369.674L613.244 448.117C614.55 449.389 616.138 450.307 617.938 450.766L886.321 518.084C888.51 518.614 890.415 519.885 891.827 521.651L933.37 574.453C940.781 584.696 953.276 596.528 953.276 596.528C957.229 600.448 963.617 600.448 967.57 596.528C967.57 596.528 977.912 586.073 987.477 574.453L1029.02 521.651C1030.4 519.885 1032.34 518.649 1034.52 518.084L1302.94 450.766C1304.71 450.307 1306.33 449.424 1307.64 448.117L1386.49 369.674C1392.91 363.281 1388.39 352.332 1379.36 352.332C1370.32 352.332 1365.8 341.383 1372.23 334.991L1456.37 251.285C1463.18 244.468 1457.43 232.813 1447.83 234.049ZM388.944 694.82H310.166C307.483 694.82 305.295 697.01 305.295 699.694V737.945C305.295 741.088 308.224 743.419 311.295 742.713L380.685 726.501C387.815 724.841 394.627 730.245 394.627 737.592V767.365C394.627 771.604 391.697 775.277 387.603 776.231L309.072 794.561C306.848 795.091 305.295 797.033 305.295 799.329V831.469C305.295 833.871 304.342 836.202 302.613 837.897L269.682 870.85C263.929 876.607 254.117 872.51 254.117 864.422V694.926C254.117 691.924 255.317 689.028 257.435 686.874L297.354 646.928C299.471 644.809 302.365 643.608 305.401 643.608H421.874C429.992 643.608 434.051 653.426 428.298 659.183L395.368 692.136C393.674 693.867 391.344 694.82 388.944 694.82ZM548.019 694.82H469.24C466.558 694.82 464.369 697.01 464.369 699.694V740.806C464.369 742.501 465.958 743.737 467.581 743.349L542.513 725.83C548.23 724.488 553.701 728.832 553.701 734.695V767.33C553.701 771.568 550.772 775.242 546.677 776.195L468.146 794.526C465.922 795.056 464.369 796.998 464.369 799.294V817.483C464.369 820.167 466.558 822.357 469.24 822.357H542.301C548.583 822.357 553.666 827.443 553.666 833.73V862.162C553.666 868.448 548.583 873.534 542.301 873.534H424.592C418.31 873.534 413.227 868.448 413.227 862.162V694.891C413.227 691.889 414.427 688.993 416.545 686.838L457.099 646.257C458.793 644.561 461.122 643.572 463.522 643.572H580.949C589.067 643.572 593.126 653.391 587.373 659.148L554.442 692.101C552.748 693.867 550.419 694.82 548.019 694.82ZM574.949 687.545L615.503 646.963C617.62 644.844 620.515 643.643 623.55 643.643H746.059C752.341 643.643 757.424 648.729 757.424 655.016V862.232C757.424 868.519 752.341 873.605 746.059 873.605H717.646C711.364 873.605 706.281 868.519 706.281 862.232V779.445C706.281 777.749 704.693 776.513 703.07 776.902L627.221 794.632C624.997 795.162 623.444 797.104 623.444 799.4V834.295C623.444 836.697 622.491 839.028 620.762 840.723L591.679 869.826C584.514 876.996 572.266 871.91 572.266 861.773V694.043C572.302 691.571 573.255 689.275 574.949 687.545ZM706.281 720.886V699.73C706.281 697.045 704.093 694.856 701.411 694.856H628.35C625.668 694.856 623.479 697.045 623.479 699.73V737.98C623.479 741.123 626.409 743.455 629.479 742.748L702.54 725.689C704.728 725.124 706.281 723.146 706.281 720.886ZM1019.95 652.791V817.554C1019.95 820.238 1022.14 822.428 1024.82 822.428H1099.36C1105.64 822.428 1110.73 827.514 1110.73 833.801V862.232C1110.73 868.519 1105.64 873.605 1099.36 873.605H980.135C973.853 873.605 968.77 868.519 968.77 862.232V685.743C968.77 683.342 969.723 681.011 971.453 679.315L1004.38 646.363C1010.14 640.606 1019.95 644.667 1019.95 652.791ZM1178.42 822.428H1284.66C1294.79 822.428 1299.87 834.683 1292.71 841.853L1264.3 870.285C1262.18 872.404 1259.28 873.605 1256.25 873.605H1133.77C1127.49 873.605 1122.41 868.519 1122.41 862.232V694.008C1122.41 691.606 1123.36 689.275 1125.09 687.58L1166.32 646.327C1168.01 644.632 1170.34 643.643 1172.74 643.643H1290.17C1298.28 643.643 1302.34 653.462 1296.59 659.219L1264.33 691.5C1262.21 693.619 1259.32 694.82 1256.28 694.82H1178.42C1175.74 694.82 1173.55 697.01 1173.55 699.694V737.945C1173.55 741.088 1176.48 743.419 1179.55 742.713L1248.94 726.501C1256.07 724.841 1262.88 730.245 1262.88 737.592V767.365C1262.88 771.604 1259.95 775.277 1255.86 776.231L1177.33 794.561C1175.1 795.091 1173.55 797.033 1173.55 799.329V817.518C1173.52 820.238 1175.7 822.428 1178.42 822.428ZM1466.64 761.432V823.24C1466.64 825.642 1465.69 827.973 1463.96 829.668L1423.41 870.25C1421.29 872.369 1418.39 873.57 1415.36 873.57H1298.88C1290.77 873.57 1286.71 863.751 1292.46 857.994L1325.39 825.041C1327.09 823.346 1329.41 822.357 1331.81 822.357H1410.59C1413.28 822.357 1415.46 820.167 1415.46 817.483V799.824C1415.46 797.422 1413.7 795.373 1411.33 794.985L1291.08 776.266C1285.54 775.418 1281.45 770.615 1281.45 765.034V694.926C1281.45 691.924 1282.65 689.028 1284.77 686.874L1324.69 646.928C1326.8 644.809 1329.7 643.608 1332.73 643.608H1483.94C1494.07 643.608 1499.15 655.863 1491.98 663.033L1463.57 691.465C1461.45 693.584 1458.56 694.785 1455.52 694.785H1337.5C1334.81 694.785 1332.63 696.975 1332.63 699.659V728.515C1332.63 729.821 1333.58 730.916 1334.85 731.093L1457.01 750.13C1462.55 751.048 1466.64 755.816 1466.64 761.432ZM1531.9 699.694V712.55C1531.9 713.716 1532.64 714.705 1533.74 715.058L1659.49 754.227C1663.31 755.428 1665.88 758.924 1665.88 762.915V823.205C1665.88 825.606 1664.93 827.938 1663.2 829.633L1622.65 870.214C1620.53 872.334 1617.63 873.534 1614.6 873.534H1457.96C1449.84 873.534 1445.78 863.716 1451.54 857.959L1483.79 825.677C1485.91 823.558 1488.81 822.357 1491.84 822.357H1609.87C1612.55 822.357 1614.74 820.167 1614.74 817.483V797.175C1614.74 796.009 1614 795.02 1612.9 794.667L1487.15 755.498C1483.34 754.297 1480.76 750.801 1480.76 746.81V693.973C1480.76 691.571 1481.71 689.24 1483.44 687.545L1524 646.963C1526.11 644.844 1529.01 643.643 1532.04 643.643H1643.05C1653.18 643.643 1658.26 655.899 1651.09 663.069L1622.68 691.5C1620.56 693.619 1617.67 694.82 1614.63 694.82H1536.81C1534.09 694.82 1531.9 697.01 1531.9 699.694ZM904.533 776.125L825.473 794.596C823.249 795.126 821.696 797.069 821.696 799.365V862.232C821.696 868.519 816.614 873.605 810.331 873.605H781.919C775.636 873.605 770.554 868.519 770.554 862.232V655.016C770.554 648.729 775.636 643.643 781.919 643.643H944.346C950.629 643.643 955.711 648.729 955.711 655.016V724.877C955.711 727.278 954.758 729.61 953.029 731.305L923.946 760.408C920.875 763.48 923.063 768.743 927.405 768.743H944.311C950.593 768.743 955.676 773.829 955.676 780.116V830.516C955.676 833.518 954.476 836.414 952.358 838.569L920.099 870.85C914.345 876.607 904.533 872.51 904.533 864.422V776.125ZM904.533 720.886V699.73C904.533 697.045 902.345 694.856 899.663 694.856H826.602C823.92 694.856 821.731 697.045 821.731 699.73V737.98C821.731 741.123 824.661 743.455 827.732 742.748L900.792 725.689C902.981 725.124 904.533 723.146 904.533 720.886Z" fill="black"/>
</svg>
