<svg width="1920" height="1104" viewBox="0 0 1920 1104" fill="none" xmlns="http://www.w3.org/2000/svg">
<path d="M1659.88 336.105L1105.94 408.847C1102.8 409.252 1099.86 410.721 1097.58 412.95L1051.97 458.236C1046.29 463.859 1037.12 463.859 1031.44 458.236L1023.44 450.283C1017.71 444.61 1017.71 435.34 1023.44 429.666L1077.92 375.616C1083.64 369.943 1083.64 360.673 1077.92 354.999L970.271 248.014C964.595 242.392 955.422 242.392 949.745 248.014L842.1 354.999C836.373 360.673 836.373 369.943 842.1 375.616L896.531 429.717C902.258 435.39 902.258 444.66 896.531 450.334L888.523 458.287C882.847 463.909 873.674 463.909 867.997 458.287L822.385 413C820.104 410.772 817.165 409.303 814.023 408.897L260.083 336.105C246.298 334.281 238.037 351.048 247.919 360.825L368.742 480.879C377.966 490.048 371.479 505.751 358.505 505.751C345.53 505.751 339.043 521.454 348.267 530.623L461.488 643.13C463.363 644.953 465.644 646.27 468.228 646.929L853.604 743.479C856.746 744.239 859.483 746.062 861.51 748.595L921.162 824.325C931.804 839.016 949.745 855.985 949.745 855.985C955.422 861.608 964.595 861.608 970.271 855.985C970.271 855.985 985.12 840.991 998.855 824.325L1058.51 748.595C1060.48 746.062 1063.27 744.289 1066.41 743.479L1451.84 646.929C1454.37 646.27 1456.7 645.004 1458.58 643.13L1571.8 530.623C1581.02 521.454 1574.54 505.751 1561.56 505.751C1548.59 505.751 1542.1 490.048 1551.33 480.879L1672.15 360.825C1681.93 351.048 1673.67 334.332 1659.88 336.105Z" fill="white"/>
</svg>
