<?xml version="1.0" encoding="utf-8"?>
<!-- Generator: Adobe Illustrator 25.0.1, SVG Export Plug-In . SVG Version: 6.00 Build 0)  -->
<svg version="1.1" id="Layer_1" xmlns="http://www.w3.org/2000/svg" xmlns:xlink="http://www.w3.org/1999/xlink" x="0px" y="0px"
	 viewBox="0 0 400 173" style="enable-background:new 0 0 400 173;" xml:space="preserve">
<path d="M395.4,26.1L240.7,46.3c-0.8,0.1-1.7,0.6-2.4,1.1L225.6,60c-1.6,1.6-4.1,1.6-5.8,0l-2.3-2.3c-1.6-1.6-1.6-4.2,0-5.8
	l15.3-15.1c1.6-1.6,1.6-4.2,0-5.8l-30-29.6c-1.6-1.6-4.1-1.6-5.8,0l-30,29.8c-1.6,1.6-1.6,4.2,0,5.8l15.3,15c1.6,1.6,1.6,4.2,0,5.8
	l-2.3,2.3c-1.6,1.6-4.1,1.6-5.8,0l-12.7-12.6c-0.7-0.6-1.4-1-2.4-1.1L4.6,26.1c-3.8-0.6-6.2,4.2-3.4,6.9l33.7,33.5
	c2.5,2.5,0.7,6.9-2.8,6.9l0,0c-3.7,0-5.4,4.4-2.8,6.9l31.5,31.4c0.6,0.6,1.1,0.8,1.8,1.1l107.5,27c0.8,0.3,1.7,0.7,2.3,1.4
	l16.7,21.2c3,4.1,7.9,8.9,7.9,8.9c1.6,1.6,4.1,1.6,5.8,0c0,0,4.1-4.2,7.9-8.9l16.7-21.2c0.6-0.7,1.3-1.3,2.3-1.4l107.7-27
	c0.7-0.1,1.4-0.6,1.8-1.1l31.5-31.4c2.5-2.5,0.7-6.9-2.8-6.9l0,0c-3.7,0-5.4-4.4-2.8-6.9L398.8,33C401.6,30.2,399.2,25.5,395.4,26.1
	z"/>
</svg>
