<?xml version="1.0" encoding="utf-8"?>
<!-- Generator: Adobe Illustrator 25.0.0, SVG Export Plug-In . SVG Version: 6.00 Build 0)  -->
<svg version="1.1" id="Layer_1" xmlns="http://www.w3.org/2000/svg" xmlns:xlink="http://www.w3.org/1999/xlink" x="0px" y="0px"
	 viewBox="0 0 400 200" style="enable-background:new 0 0 400 200;" xml:space="preserve">
<path d="M338.2,18.6L228.9,32.9c-0.6,0.1-1.2,0.4-1.7,0.8l-9,8.9c-1.1,1.1-2.9,1.1-4.1,0l-1.6-1.6c-1.1-1.1-1.1-3,0-4.1l10.8-10.7
	c1.1-1.1,1.1-3,0-4.1L202.1,1.2c-1.1-1.1-2.9-1.1-4.1,0l-21.2,21.1c-1.1,1.1-1.1,3,0,4.1L187.6,37c1.1,1.1,1.1,3,0,4.1l-1.6,1.6
	c-1.1,1.1-2.9,1.1-4.1,0l-9-8.9c-0.5-0.4-1-0.7-1.7-0.8L62,18.6c-2.7-0.4-4.4,3-2.4,4.9l23.8,23.7c1.8,1.8,0.5,4.9-2,4.9l0,0
	c-2.6,0-3.8,3.1-2,4.9l22.3,22.2c0.4,0.4,0.8,0.6,1.3,0.8l76,19.1c0.6,0.2,1.2,0.5,1.6,1l11.8,15c2.1,2.9,5.6,6.3,5.6,6.3
	c1.1,1.1,2.9,1.1,4.1,0c0,0,2.9-3,5.6-6.3l11.8-15c0.4-0.5,0.9-0.9,1.6-1l76.1-19.1c0.5-0.1,1-0.4,1.3-0.8L320.8,57
	c1.8-1.8,0.5-4.9-2-4.9l0,0c-2.6,0-3.8-3.1-2-4.9l23.8-23.7C342.6,21.5,340.9,18.2,338.2,18.6z M38.2,149H15.9
	c-0.8,0-1.4,0.6-1.4,1.4v10.8c0,0.9,0.8,1.6,1.7,1.4l19.7-4.6c2-0.5,4,1.1,4,3.1v8.4c0,1.2-0.8,2.2-2,2.5l-22.3,5.2
	c-0.6,0.1-1.1,0.7-1.1,1.4v9.1c0,0.7-0.3,1.3-0.8,1.8l-9.3,9.3c-1.6,1.6-4.4,0.5-4.4-1.8v-48c0-0.9,0.3-1.7,0.9-2.3l11.3-11.3
	c0.6-0.6,1.4-0.9,2.3-0.9h33c2.3,0,3.5,2.8,1.8,4.4l-9.3,9.3C39.5,148.8,38.9,149,38.2,149z M83.3,149H61c-0.8,0-1.4,0.6-1.4,1.4
	v11.6c0,0.5,0.5,0.8,0.9,0.7l21.2-5c1.6-0.4,3.2,0.9,3.2,2.5v9.2c0,1.2-0.8,2.2-2,2.5l-22.3,5.2c-0.6,0.1-1.1,0.7-1.1,1.4v5.2
	c0,0.8,0.6,1.4,1.4,1.4h20.7c1.8,0,3.2,1.4,3.2,3.2v8.1c0,1.8-1.4,3.2-3.2,3.2h-23H48.3c-1.8,0-3.2-1.4-3.2-3.2v-47.4
	c0-0.9,0.3-1.7,0.9-2.3l11.5-11.5c0.5-0.5,1.1-0.8,1.8-0.8h33.3c2.3,0,3.5,2.8,1.8,4.4l-9.3,9.3C84.6,148.8,84,149,83.3,149z
	 M90.9,147l11.5-11.5c0.6-0.6,1.4-0.9,2.3-0.9h34.7c1.8,0,3.2,1.4,3.2,3.2v58.7c0,1.8-1.4,3.2-3.2,3.2h-8.1c-1.8,0-3.2-1.4-3.2-3.2
	V173c0-0.5-0.5-0.8-0.9-0.7l-21.5,5c-0.6,0.1-1.1,0.7-1.1,1.4v9.9c0,0.7-0.3,1.3-0.8,1.8l-8.2,8.2c-2,2-5.5,0.6-5.5-2.3v-47.5
	C90.2,148.1,90.4,147.5,90.9,147z M128.1,156.4v-6c0-0.8-0.6-1.4-1.4-1.4H106c-0.8,0-1.4,0.6-1.4,1.4v10.8c0,0.9,0.8,1.6,1.7,1.4
	l20.7-4.8C127.7,157.6,128.1,157.1,128.1,156.4z M217,137.1v46.7c0,0.8,0.6,1.4,1.4,1.4h21.1c1.8,0,3.2,1.4,3.2,3.2v8.1
	c0,1.8-1.4,3.2-3.2,3.2h-33.8c-1.8,0-3.2-1.4-3.2-3.2v-50c0-0.7,0.3-1.3,0.8-1.8l9.3-9.3C214.2,133.7,217,134.8,217,137.1z
	 M261.9,185.2H292c2.9,0,4.3,3.5,2.3,5.5l-8.1,8.1c-0.6,0.6-1.4,0.9-2.3,0.9h-24.4h-10.4c-1.8,0-3.2-1.4-3.2-3.2v-47.6
	c0-0.7,0.3-1.3,0.8-1.8l11.7-11.7c0.5-0.5,1.1-0.8,1.8-0.8h33.3c2.3,0,3.5,2.8,1.8,4.4l-9.1,9.1c-0.6,0.6-1.4,0.9-2.3,0.9h-22.1
	c-0.8,0-1.4,0.6-1.4,1.4v10.8c0,0.9,0.8,1.6,1.7,1.4l19.7-4.6c2-0.5,4,1.1,4,3.1v8.4c0,1.2-0.8,2.2-2,2.5l-22.3,5.2
	c-0.6,0.1-1.1,0.7-1.1,1.4v5.2C260.5,184.5,261.1,185.2,261.9,185.2z M343.5,167.9v17.5c0,0.7-0.3,1.3-0.8,1.8l-11.5,11.5
	c-0.6,0.6-1.4,0.9-2.3,0.9h-33c-2.3,0-3.5-2.8-1.8-4.4l9.3-9.3c0.5-0.5,1.1-0.8,1.8-0.8h22.3c0.8,0,1.4-0.6,1.4-1.4v-5
	c0-0.7-0.5-1.3-1.2-1.4l-34.1-5.3c-1.6-0.2-2.7-1.6-2.7-3.2v-19.9c0-0.9,0.3-1.7,0.9-2.3l11.3-11.3c0.6-0.6,1.4-0.9,2.3-0.9h42.8
	c2.9,0,4.3,3.5,2.3,5.5l-8.1,8.1c-0.6,0.6-1.4,0.9-2.3,0.9H307c-0.8,0-1.4,0.6-1.4,1.4v8.2c0,0.4,0.3,0.7,0.6,0.7l34.6,5.4
	C342.4,165,343.5,166.3,343.5,167.9z M362,150.4v3.6c0,0.3,0.2,0.6,0.5,0.7l35.6,11.1c1.1,0.3,1.8,1.3,1.8,2.5v17.1
	c0,0.7-0.3,1.3-0.8,1.8l-11.5,11.5c-0.6,0.6-1.4,0.9-2.3,0.9h-44.4c-2.3,0-3.5-2.8-1.8-4.4l9.1-9.1c0.6-0.6,1.4-0.9,2.3-0.9h33.4
	c0.8,0,1.4-0.6,1.4-1.4V178c0-0.3-0.2-0.6-0.5-0.7l-35.6-11.1c-1.1-0.3-1.8-1.3-1.8-2.5v-15c0-0.7,0.3-1.3,0.8-1.8l11.5-11.5
	c0.6-0.6,1.4-0.9,2.3-0.9h31.5c2.9,0,4.3,3.5,2.3,5.5l-8.1,8.1c-0.6,0.6-1.4,0.9-2.3,0.9h-22.1C362.7,149,362,149.7,362,150.4z
	 M184.3,172.1l-22.4,5.2c-0.6,0.1-1.1,0.7-1.1,1.4v17.8c0,1.8-1.4,3.2-3.2,3.2h-8.1c-1.8,0-3.2-1.4-3.2-3.2v-48.3v-10.4
	c0-1.8,1.4-3.2,3.2-3.2h46c1.8,0,3.2,1.4,3.2,3.2v7.9v11.9c0,0.7-0.3,1.3-0.8,1.8l-8.2,8.2c-0.9,0.9-0.3,2.4,1,2.4h4.8
	c1.8,0,3.2,1.4,3.2,3.2v14.3c0,0.9-0.3,1.7-0.9,2.3l-9.1,9.1c-1.6,1.6-4.4,0.5-4.4-1.8L184.3,172.1L184.3,172.1z M184.3,156.4v-6
	c0-0.8-0.6-1.4-1.4-1.4h-20.7c-0.8,0-1.4,0.6-1.4,1.4v10.8c0,0.9,0.8,1.6,1.7,1.4l20.7-4.8C183.8,157.6,184.3,157.1,184.3,156.4z"/>
</svg>
