<?xml version="1.0" encoding="utf-8"?>
<!-- Generator: Adobe Illustrator 24.2.3, SVG Export Plug-In . SVG Version: 6.00 Build 0)  -->
<svg version="1.1" id="Layer_1" xmlns="http://www.w3.org/2000/svg" xmlns:xlink="http://www.w3.org/1999/xlink" x="0px" y="0px"
	 viewBox="0 0 400 200" style="enable-background:new 0 0 400 200;" xml:space="preserve">
<style type="text/css">
	.st0{fill:#FFFFFF;}
</style>
<path class="st0" d="M337.83,17.58l-109.3,14.36c-0.62,0.08-1.2,0.37-1.65,0.81l-9,8.94c-1.12,1.11-2.93,1.11-4.05,0l-1.58-1.57
	c-1.13-1.12-1.13-2.95,0-4.07L223,25.38c1.13-1.12,1.13-2.95,0-4.07L201.76,0.19c-1.12-1.11-2.93-1.11-4.05,0l-21.24,21.12
	c-1.13,1.12-1.13,2.95,0,4.07l10.74,10.68c1.13,1.12,1.13,2.95,0,4.07l-1.58,1.57c-1.12,1.11-2.93,1.11-4.05,0l-9-8.94
	c-0.45-0.44-1.03-0.73-1.65-0.81L61.63,17.58c-2.72-0.36-4.35,2.95-2.4,4.88l23.84,23.7c1.82,1.81,0.54,4.91-2.02,4.91l0,0
	c-2.56,0-3.84,3.1-2.02,4.91l22.34,22.21c0.37,0.36,0.82,0.62,1.33,0.75L178.74,98c0.62,0.15,1.16,0.51,1.56,1.01l11.77,14.95
	c2.1,2.9,5.64,6.25,5.64,6.25c1.12,1.11,2.93,1.11,4.05,0c0,0,2.93-2.96,5.64-6.25l11.77-14.95c0.39-0.5,0.94-0.85,1.56-1.01
	l76.05-19.06c0.5-0.13,0.96-0.38,1.33-0.75l22.34-22.21c1.82-1.81,0.54-4.91-2.02-4.91l0,0c-2.56,0-3.84-3.1-2.02-4.91l23.84-23.7
	C342.18,20.53,340.55,17.23,337.83,17.58z M37.82,148.04H15.5c-0.76,0-1.38,0.62-1.38,1.38v10.83c0,0.89,0.83,1.55,1.7,1.35
	l19.66-4.59c2.02-0.47,3.95,1.06,3.95,3.14v8.43c0,1.2-0.83,2.24-1.99,2.51l-22.25,5.19c-0.63,0.15-1.07,0.7-1.07,1.35v9.1
	c0,0.68-0.27,1.34-0.76,1.82l-9.33,9.33c-1.63,1.63-4.41,0.47-4.41-1.82v-47.99c0-0.85,0.34-1.67,0.94-2.28l11.31-11.31
	c0.6-0.6,1.42-0.94,2.28-0.94h33c2.3,0,3.45,2.78,1.82,4.41l-9.33,9.33C39.16,147.77,38.5,148.04,37.82,148.04z M82.89,148.04H60.57
	c-0.76,0-1.38,0.62-1.38,1.38v11.64c0,0.48,0.45,0.83,0.91,0.72l21.23-4.96c1.62-0.38,3.17,0.85,3.17,2.51v9.24
	c0,1.2-0.83,2.24-1.99,2.51l-22.25,5.19c-0.63,0.15-1.07,0.7-1.07,1.35v5.15c0,0.76,0.62,1.38,1.38,1.38h20.7
	c1.78,0,3.22,1.44,3.22,3.22v8.05c0,1.78-1.44,3.22-3.22,3.22h-23H47.92c-1.78,0-3.22-1.44-3.22-3.22v-47.36
	c0-0.85,0.34-1.67,0.94-2.28l11.49-11.49c0.48-0.48,1.14-0.76,1.82-0.76h33.27c2.3,0,3.45,2.78,1.82,4.41l-9.33,9.33
	C84.23,147.77,83.57,148.04,82.89,148.04z M90.52,145.98l11.49-11.49c0.6-0.6,1.42-0.94,2.28-0.94H139c1.78,0,3.22,1.44,3.22,3.22
	v58.67c0,1.78-1.44,3.22-3.22,3.22h-8.05c-1.78,0-3.22-1.44-3.22-3.22V172c0-0.48-0.45-0.83-0.91-0.72l-21.49,5.02
	c-0.63,0.15-1.07,0.7-1.07,1.35v9.88c0,0.68-0.27,1.34-0.76,1.82l-8.24,8.24c-2.03,2.03-5.5,0.59-5.5-2.28v-47.49
	C89.77,147.12,90.04,146.47,90.52,145.98z M127.73,155.42v-5.99c0-0.76-0.62-1.38-1.38-1.38h-20.7c-0.76,0-1.38,0.62-1.38,1.38
	v10.83c0,0.89,0.83,1.55,1.7,1.35l20.7-4.83C127.29,156.62,127.73,156.06,127.73,155.42z M216.6,136.14v46.65
	c0,0.76,0.62,1.38,1.38,1.38h21.12c1.78,0,3.22,1.44,3.22,3.22v8.05c0,1.78-1.44,3.22-3.22,3.22h-33.78c-1.78,0-3.22-1.44-3.22-3.22
	v-49.97c0-0.68,0.27-1.34,0.76-1.82l9.33-9.33C213.82,132.69,216.6,133.84,216.6,136.14z M261.5,184.17h30.1
	c2.87,0,4.31,3.47,2.28,5.5l-8.05,8.05c-0.6,0.6-1.42,0.94-2.28,0.94H259.2h-10.35c-1.78,0-3.22-1.44-3.22-3.22v-47.63
	c0-0.68,0.27-1.34,0.76-1.82l11.68-11.68c0.48-0.48,1.14-0.76,1.82-0.76h33.27c2.3,0,3.45,2.78,1.82,4.41l-9.14,9.14
	c-0.6,0.6-1.42,0.94-2.28,0.94H261.5c-0.76,0-1.38,0.62-1.38,1.38v10.83c0,0.89,0.83,1.55,1.7,1.35l19.66-4.59
	c2.02-0.47,3.95,1.06,3.95,3.14v8.43c0,1.2-0.83,2.24-1.99,2.51l-22.25,5.19c-0.63,0.15-1.07,0.7-1.07,1.35v5.15
	C260.11,183.55,260.73,184.17,261.5,184.17z M343.16,166.9v17.5c0,0.68-0.27,1.34-0.76,1.82l-11.49,11.49
	c-0.6,0.6-1.42,0.94-2.28,0.94h-33c-2.3,0-3.45-2.78-1.82-4.41l9.33-9.33c0.48-0.48,1.14-0.76,1.82-0.76h22.32
	c0.76,0,1.38-0.62,1.38-1.38v-5c0-0.68-0.5-1.26-1.17-1.37l-34.07-5.3c-1.57-0.24-2.73-1.6-2.73-3.18v-19.85
	c0-0.85,0.34-1.67,0.94-2.28l11.31-11.31c0.6-0.6,1.42-0.94,2.28-0.94h42.84c2.87,0,4.31,3.47,2.28,5.5l-8.05,8.05
	c-0.6,0.6-1.42,0.94-2.28,0.94h-33.44c-0.76,0-1.38,0.62-1.38,1.38v8.17c0,0.37,0.27,0.68,0.63,0.73l34.61,5.39
	C342,163.96,343.16,165.31,343.16,166.9z M361.65,149.42v3.64c0,0.33,0.21,0.61,0.52,0.71l35.63,11.09
	c1.08,0.34,1.81,1.33,1.81,2.46v17.07c0,0.68-0.27,1.34-0.76,1.82l-11.49,11.49c-0.6,0.6-1.42,0.94-2.28,0.94H340.7
	c-2.3,0-3.45-2.78-1.82-4.41l9.14-9.14c0.6-0.6,1.42-0.94,2.28-0.94h33.44c0.76,0,1.38-0.62,1.38-1.38v-5.75
	c0-0.33-0.21-0.61-0.52-0.71l-35.63-11.09c-1.08-0.34-1.81-1.33-1.81-2.46V147.8c0-0.68,0.27-1.34,0.76-1.82l11.49-11.49
	c0.6-0.6,1.42-0.94,2.28-0.94h31.45c2.87,0,4.31,3.47,2.28,5.5l-8.05,8.05c-0.6,0.6-1.42,0.94-2.28,0.94h-22.05
	C362.27,148.04,361.65,148.66,361.65,149.42z M183.9,171.06l-22.4,5.23c-0.63,0.15-1.07,0.7-1.07,1.35v17.8
	c0,1.78-1.44,3.22-3.22,3.22h-8.05c-1.78,0-3.22-1.44-3.22-3.22v-48.32v-10.35c0-1.78,1.44-3.22,3.22-3.22h46.02
	c1.78,0,3.22,1.44,3.22,3.22v7.88v11.9c0,0.68-0.27,1.34-0.76,1.82l-8.24,8.24c-0.87,0.87-0.25,2.36,0.98,2.36h4.79
	c1.78,0,3.22,1.44,3.22,3.22v14.27c0,0.85-0.34,1.67-0.94,2.28l-9.14,9.14c-1.63,1.63-4.41,0.47-4.41-1.82L183.9,171.06
	L183.9,171.06z M183.9,155.42v-5.99c0-0.76-0.62-1.38-1.38-1.38h-20.7c-0.76,0-1.38,0.62-1.38,1.38v10.83c0,0.89,0.83,1.55,1.7,1.35
	l20.7-4.83C183.46,156.62,183.9,156.06,183.9,155.42z"/>
</svg>
